SplineFontDB: 3.0
FontName: CMUSerif-BoldItalic
FullName: CMU Serif Bold Extended Italic
FamilyName: CMU Serif
Weight: Bold
Copyright: Converted by Andrey V. Panov from TeX fonts
UComments: "2009-6-18: Created." 
Version: 0.7.0
ItalicAngle: -14.04
UnderlinePosition: -100
UnderlineWidth: 50
Ascent: 800
Descent: 200
LayerCount: 2
Layer: 0 0 "+BBcEMAQ0BD0EOAQ5 +BD8EOwQwBD0A"  1
Layer: 1 0 "+BB8ENQRABDUENAQ9BDgEOQAA +BD8EOwQwBD0A"  0
NeedsXUIDChange: 1
XUID: [1067 16079388]
FSType: 0
OS2Version: 0
OS2_WeightWidthSlopeOnly: 0
OS2_UseTypoMetrics: 1
CreationTime: 1245310327
ModificationTime: 1245310904
PfmFamily: 17
TTFWeight: 700
TTFWidth: 5
LineGap: 200
VLineGap: 90
OS2TypoAscent: 0
OS2TypoAOffset: 1
OS2TypoDescent: 0
OS2TypoDOffset: 1
OS2TypoLinegap: 200
OS2WinAscent: 921
OS2WinAOffset: 0
OS2WinDescent: 308
OS2WinDOffset: 0
HheadAscent: 921
HheadAOffset: 0
HheadDescent: -308
HheadDOffset: 0
Lookup: 1 0 0 "Case substitutions"  {"Case substitutions subtable"  } ['case' ('cyrl' <'dflt' > 'grek' <'dflt' > 'latn' <'dflt' > ) ]
Lookup: 1 0 0 "Italic substitutions"  {"Italic substitutions cyr"  } ['locl' ('cyrl' <'MKD ' 'SRB ' > ) ]
Lookup: 3 0 0 "Greek alternatives"  {"Greek alternatives subtable"  } ['salt' ('grek' <'dflt' > ) ]
Lookup: 1 0 0 "Greek substitutions"  {"Greek substitutions subtable"  } ['locl' ('grek' <'dflt' > ) ]
Lookup: 4 0 1 "Latin Dutch ligatures"  {"Latin Dutch ligatures subtable"  } ['liga' ('latn' <'NLD ' > ) ]
Lookup: 4 0 1 "Latin ligatures excepting Turkic"  {"Latin ligatures excepting Turkic subtable"  } ['liga' ('latn' <'dflt' 'NLD ' 'VIT ' > ) ]
Lookup: 4 0 1 "Latin ligatures"  {"Latin ligatures subtable"  } ['liga' ('latn' <'dflt' 'NLD ' 'VIT ' 'TRK ' 'AZE ' > ) ]
Lookup: 4 0 1 "Cyrillic ligatures"  {"Cyrillic ligatures subtable"  } ['liga' ('cyrl' <'dflt' 'MKD ' 'SRB ' > ) ]
Lookup: 3 0 0 "Latin alternatives"  {"Latin alternatives subtable"  } ['salt' ('latn' <'dflt' > ) ]

StartChar: .notdef
Encoding: 0 0 0
Width: 760
Flags: HW
HStem: 10 60<105 655> 705 60<105 655>
VStem: 10 60<112 663> 690 60<112 663>
DStem2: 105 705 70 663 0.702289 -0.711892<5.31938 389.612 448.699 832.991> 70 112 105 70 0.702289 0.711892<0 384.292 443.379 827.672>
LayerCount: 2
Fore
SplineSet
10 10 m 1
 10 765 l 1
 750 765 l 1
 750 10 l 1
 10 10 l 1
70 112 m 1
 346 388 l 1
 70 663 l 1
 70 112 l 1
105 70 m 1
 655 70 l 1
 380 346 l 1
 105 70 l 1
105 705 m 1
 380 429 l 1
 655 705 l 1
 105 705 l 1
414 388 m 1
 690 112 l 1
 690 663 l 1
 414 388 l 1
EndSplineSet
EndChar

StartChar: uni262D
Encoding: 9773 9773 1
Width: 700
Flags: HW
TeX: 117 0
HStem: -1 21G<56 93 593.5 601> 39 76<321.786 462.78> 102 51<140.549 177.987>
VStem: 129 54<101.776 137.734> 556 82<197.341 366.709>
DStem2: 123 357 178 301 0.707107 0.707107<0 86.9741 130.108 182.434>
LayerCount: 2
Fore
SplineSet
40 18 m 0
 40 64 129 102 129 128 c 0
 129 148 134 153 148 153 c 0xb8
 162 153 164 157 182 180 c 1
 229 156 307 115 390 115 c 0
 438 115 463 128 463 129 c 0
 463 135 406 186 240 363 c 1
 178 301 l 1
 123 357 l 1
 252 486 l 1
 347 470 l 1
 271 393 l 1
 484 190 l 1
 513 165 l 1
 519 165 556 218 556 295 c 0
 556 473 346 588 346 593 c 1
 394 593 638 478 638 267 c 0
 638 167 592 118 580 100 c 1
 636 44 637 42 637 38 c 0xd8
 637 17 605 -1 597 -1 c 2
 596 -1 l 2
 591 -1 590 1 529 62 c 1
 500 51 474 39 428 39 c 0xd8
 297 39 201 138 188 138 c 0
 183 138 182 134 182 130 c 0
 182 126 183 123 183 118 c 0
 183 108 178 102 168 102 c 0
 131 102 122 0 64 -0 c 0
 48 0 40 7 40 18 c 0
EndSplineSet
EndChar

StartChar: longs
Encoding: 383 383 2
Width: 400
Flags: HW
TeX: 108 0
HStem: -206 37<58.7354 118.639> 397 47<119.33 236> 669 37<396.523 459.038>
VStem: -19 121<-142.99 -70.0752> 417 120<569.722 643.352>
DStem2: 188 136 294 135 0.178885 0.98387<-227.37 265.377 313.05 521.161>
AnchorPoint: "above" 401 694 basechar 0
AnchorPoint: "below" 119 -194 basechar 0
LayerCount: 2
Fore
SplineSet
-19 -123 m 0
 -19 -62 37 -49 52 -49 c 0
 78 -49 102 -65 102 -95 c 0
 102 -134 70 -153 58 -160 c 1
 69 -165 80 -169 89 -169 c 0
 134 -169 146 -93 188 136 c 2
 236 397 l 1
 151 397 l 2
 128 397 119 400 119 417 c 0
 119 441 134 444 153 444 c 2
 244 444 l 1
 252 452 255 580 302 645 c 0
 330 685 379 706 425 706 c 0
 488 706 537 674 537 623 c 0
 537 561 480 548 466 548 c 0
 438 548 417 567 417 595 c 0
 417 633 448 653 460 659 c 1
 446 666 436 669 427 669 c 0
 405 669 394 648 391 642 c 0
 384 627 348 430 342 397 c 2
 294 135 l 2
 270 5 253 -54 232 -97 c 0
 203 -157 146 -206 89 -206 c 0
 28 -205 -19 -173 -19 -123 c 0
EndSplineSet
EndChar

StartChar: uni03F5
Encoding: 1013 1013 3
Width: 572
Flags: HW
TeX: 117 0
HStem: -6 48<346.489 481> 204 64<242 454.75> 212 48<274.25 488> 402 48<413.202 583>
VStem: 106 115<130.855 204>
LayerCount: 2
Fore
SplineSet
106 182 m 0
 106 289 191 450 594 450 c 2
 595 450 l 1
 583 402 l 1
 445 402 302 373 242 268 c 1xd8
 500 260 l 1
 488 212 l 1xb8
 222 204 l 1
 222 201 221 198 221 195 c 0xd8
 221 73 379 43 493 42 c 1
 481 -6 l 1
 320 -6 106 32 106 182 c 0
EndSplineSet
EndChar

StartChar: circumflex.cap
Encoding: 65536 -1 4
Width: 591
Flags: HW
HStem: 740 164
VStem: 334 310<763 780>
AnchorPoint: "above" 473 708 mark 0
LayerCount: 2
Fore
SplineSet
334 772 m 0
 334 781 340 787 352 795 c 0
 506 904 512 904 518 904 c 2
 520 904 l 2
 528 904 530 900 618 808 c 0
 642 783 644 780 644 772 c 0
 644 762 626 740 610 740 c 0
 602 740 593 747 506 823 c 1
 454 795 374 740 360 740 c 0
 344 740 334 763 334 772 c 0
EndSplineSet
EndChar

StartChar: dieresis.cap
Encoding: 65537 -1 5
Width: 591
Flags: HW
HStem: 747 147<561.282 645.718> 747 148<354.56 439.718>
VStem: 322 151<780.341 861.907> 528 151<780.163 860.659>
AnchorPoint: "above" 472 708 mark 0
LayerCount: 2
Fore
SplineSet
528 807 m 0xb0
 528 851 570 894 617 894 c 0
 654 894 679 867 679 833 c 0
 679 790 637 747 590 747 c 0
 553 747 528 774 528 807 c 0xb0
EndSplineSet
Refer: 6 -1 S 1 0 0 1 -106 -11 2
EndChar

StartChar: dotaccent.cap
Encoding: 65538 -1 6
Width: 591
Flags: HW
HStem: 758 148<460.56 545.718>
VStem: 428 151<791.341 872.907>
AnchorPoint: "above" 472 708 mark 0
LayerCount: 2
Fore
SplineSet
428 819 m 0
 428 865 472 906 517 906 c 0
 554 906 579 879 579 845 c 0
 579 801 537 758 490 758 c 0
 453 758 428 785 428 819 c 0
EndSplineSet
EndChar

StartChar: caron.cap
Encoding: 65539 -1 7
Width: 591
Flags: HW
HStem: 768 91<455.648 541.282>
VStem: 355 315<844.173 877>
AnchorPoint: "above" 473 708 mark 0
LayerCount: 2
Fore
SplineSet
355 867 m 0
 355 877 363 884 374 884 c 0
 387 884 490 859 506 859 c 0
 520 859 640 884 651 884 c 0
 662 884 670 877 670 867 c 0
 670 856 657 849 648 844 c 0
 502 768 497 768 492 768 c 0
 481 768 466 781 456 788 c 0
 356 856 355 854 355 867 c 0
EndSplineSet
EndChar

StartChar: ring.cap
Encoding: 65540 -1 8
Width: 591
Flags: HW
HStem: 728 36<438.821 543.172> 871 36<457.469 561.872>
VStem: 381 55<767.388 854.631> 565 55<780.559 867.992>
AnchorPoint: "above" 473 708 mark 0
LayerCount: 2
Fore
SplineSet
381 798 m 0
 381 833 415 907 523 907 c 0
 601 907 620 866 620 838 c 0
 620 803 587 728 477 728 c 0
 399 728 381 770 381 798 c 0
436 794 m 0
 436 770 457 764 483 764 c 0
 539 764 551 778 561 822 c 0
 563 828 565 834 565 841 c 0
 565 869 539 871 513 871 c 0
 463 871 449 856 439 814 c 0
 437 808 436 801 436 794 c 0
EndSplineSet
EndChar

StartChar: breve.cap
Encoding: 65541 -1 9
Width: 591
Flags: HW
HStem: 764 60<393.675 598.447>
VStem: 347 37<840.037 892.877>
AnchorPoint: "above" 472 708 mark 0
LayerCount: 2
Fore
SplineSet
347 858 m 0
 347 874 351 893 367 893 c 0
 378 893 385 885 385 873 c 0
 385 871 384 868 384 866 c 0
 384 841 409 824 496 824 c 0
 670 824 626 893 661 893 c 0
 672 893 678 884 678 874 c 0
 678 847 629 764 490 764 c 0
 405 764 347 801 347 858 c 0
EndSplineSet
EndChar

StartChar: grave
Encoding: 96 96 10
Width: 591
Flags: HW
TeX: 652 0
HStem: 515 160
VStem: 294 189
LayerCount: 2
Fore
SplineSet
294 611 m 0
 294 642 325 675 357 675 c 0
 379 675 394 659 405 646 c 0
 481 561 483 559 483 549 c 0
 483 537 465 515 451 515 c 2
 450 515 l 2
 443 515 443 517 340 562 c 0
 317 572 294 582 294 611 c 0
EndSplineSet
EndChar

StartChar: acute
Encoding: 180 180 11
Width: 591
Flags: HW
TeX: 652 0
ItalicCorrection: 74
HStem: 515 160
VStem: 380 225<548 628>
LayerCount: 2
Fore
SplineSet
380 548 m 0
 380 559 389 565 404 576 c 0
 515 656 535 675 560 675 c 0
 588 675 605 652 605 628 c 0
 605 581 555 568 539 562 c 0
 420 518 410 515 404 515 c 0
 385 515 380 544 380 548 c 0
EndSplineSet
EndChar

StartChar: circumflex
Encoding: 710 710 12
Width: 530
Flags: HW
TeX: 652 0
HStem: 476 187
VStem: 235 312<494 516>
LayerCount: 2
Fore
SplineSet
235 507 m 0
 235 520 236 518 379 632 c 0
 410 657 416 663 425 663 c 0
 438 663 450 645 461 630 c 0
 540 525 547 516 547 507 c 0
 547 494 525 476 513 476 c 0
 502 476 497 483 456 529 c 1
 413 580 l 1
 281 484 273 476 262 476 c 0
 251 476 235 493 235 507 c 0
EndSplineSet
EndChar

StartChar: tilde
Encoding: 732 732 13
Width: 591
Flags: HW
TeX: 652 0
ItalicCorrection: 104
HStem: 575 58<481.022 552.263> 636 58<351.259 424.612>
LayerCount: 2
Fore
SplineSet
267 593 m 0
 267 604 279 613 286 620 c 0
 317 648 366 694 413 694 c 0
 467 694 482 634 516 633 c 1
 558 633 600 693 622 693 c 0
 623 693 625 692 626 692 c 0
 635 689 638 681 638 676 c 0
 638 665 626 657 619 650 c 0
 551 587 518 575 493 575 c 0
 437 575 425 636 389 636 c 0
 348 636 305 576 283 576 c 0
 282 576 281 577 280 577 c 0
 271 580 267 588 267 593 c 0
EndSplineSet
EndChar

StartChar: dieresis
Encoding: 168 168 14
Width: 591
Flags: HW
TeX: 690 0
ItalicCorrection: 112
HStem: 539 147<302.918 387.44 508.282 593.44>
VStem: 269 151<571.305 652.243> 475 151<571.305 652.659>
LayerCount: 2
Fore
SplineSet
269 599 m 0
 269 642 311 686 358 686 c 0
 395 686 420 659 420 625 c 0
 420 579 376 539 331 539 c 0
 294 539 269 565 269 599 c 0
475 599 m 0
 475 643 517 686 564 686 c 0
 601 686 626 659 626 625 c 0
 626 579 582 539 537 539 c 0
 500 539 475 565 475 599 c 0
EndSplineSet
EndChar

StartChar: ring
Encoding: 730 730 16
Width: 935
Flags: HW
TeX: 652 0
HStem: 492 34<551.049 653.686> 631 34<569.415 672.013>
VStem: 493 55<529.155 616.062> 675 55<541.419 627.845>
LayerCount: 2
Fore
SplineSet
493 560 m 0
 493 612 545 665 633 665 c 0
 713 665 730 624 730 597 c 0
 730 546 679 492 590 492 c 0
 510 492 493 533 493 560 c 0
548 556 m 0
 548 532 568 526 597 526 c 0
 645 526 662 537 672 582 c 0
 673 588 675 595 675 601 c 0
 675 625 656 631 627 631 c 0
 577 631 561 619 551 575 c 0
 550 569 548 562 548 556 c 0
EndSplineSet
EndChar

StartChar: caron
Encoding: 711 711 17
Width: 530
Flags: HW
TeX: 652 0
HStem: 475 176
VStem: 266 314<625 640>
LayerCount: 2
Fore
SplineSet
266 635 m 0
 266 644 272 651 282 651 c 0
 296 651 404 576 404 576 c 1
 471 607 549 651 563 651 c 0
 576 651 580 640 580 635 c 0
 580 624 569 616 561 609 c 0
 397 477 399 475 387 475 c 0
 374 475 364 493 353 508 c 0
 270 620 266 625 266 635 c 0
EndSplineSet
EndChar

StartChar: breve
Encoding: 728 728 18
Width: 591
Flags: HW
TeX: 652 0
ItalicCorrection: 92
HStem: 506 60<339.641 522.626>
VStem: 285 38<587.307 650.839> 576 42<600.648 650.491>
LayerCount: 2
Fore
SplineSet
285 613 m 0
 285 626 287 651 306 651 c 0
 321 651 323 641 323 630 c 2
 323 619 l 2
 323 576 388 566 432 566 c 0
 483 566 552 581 576 623 c 0
 581 632 585 651 601 651 c 0
 611 651 618 642 618 633 c 0
 618 596 550 506 426 506 c 0
 344 506 285 549 285 613 c 0
EndSplineSet
EndChar

StartChar: macron
Encoding: 175 175 19
Width: 591
Flags: HW
TeX: 690 0
ItalicCorrection: 127
HStem: 658 50<274.684 656.211>
LayerCount: 2
Fore
SplineSet
274 678 m 0
 274 702 289 708 305 708 c 2
 630 708 l 2
 643 708 657 706 657 688 c 0
 657 673 651 658 627 658 c 2
 300 658 l 2
 286 658 274 663 274 678 c 0
EndSplineSet
EndChar

StartChar: dotaccent
Encoding: 729 729 20
Width: 355
Flags: HW
TeX: 690 0
ItalicCorrection: 129
HStem: 547 148<303.56 389.44>
VStem: 271 151<580.093 661.907>
LayerCount: 2
Fore
SplineSet
271 608 m 0
 271 654 315 695 360 695 c 0
 397 695 422 668 422 634 c 0
 422 588 378 547 333 547 c 0
 296 547 271 574 271 608 c 0
EndSplineSet
EndChar

StartChar: cedilla
Encoding: 184 184 21
Width: 532
Flags: HW
TeX: 0 170
HStem: -192 36<81.0138 243.676> -73 109<214.791 270.349>
VStem: 200 121<-37.3286 29.3165> 272 107<-134.387 -77.3383>
LayerCount: 2
Fore
SplineSet
81 -174 m 0
 81 -157 100 -156 111 -156 c 0
 119 -156 127 -156 135 -156 c 0
 200 -155 272 -145 272 -103 c 0xd0
 272 -85 252 -76 236 -73 c 0
 225 -71 200 -72 200 -53 c 0
 200 -46 203 -33 211 -0 c 0
 218 28 219 36 246 36 c 2xe0
 290 36 l 2
 300 36 321 36 321 18 c 0xe0
 321 11 318 -3 309 -39 c 1
 325 -42 379 -52 379 -101 c 0
 379 -174 277 -192 148 -192 c 0
 134 -192 120 -192 106 -192 c 0
 86 -192 81 -181 81 -174 c 0
EndSplineSet
EndChar

StartChar: ogonek
Encoding: 731 731 22
Width: 355
Flags: HW
TeX: 0 194
HStem: -195 66<68.5 170.997>
VStem: 3 111<-128.238 -76.4215>
LayerCount: 2
Fore
SplineSet
3 -122 m 0
 3 -90 27 -60 52 -42 c 0
 100 -8 164 -7 213 22 c 0
 232 34 234 35 239 35 c 0
 248 35 256 27 256 18 c 0
 256 -11 168 -35 125 -88 c 0
 120 -94 114 -102 114 -110 c 0
 114 -122 128 -129 143 -129 c 0
 195 -129 224 -73 242 -73 c 0
 250 -73 259 -81 259 -91 c 0
 259 -109 180 -195 93 -195 c 0
 44 -195 3 -166 3 -122 c 0
EndSplineSet
EndChar

StartChar: guilsinglleft
Encoding: 8249 8249 24
Width: 532
Flags: HW
TeX: 472 0
ItalicCorrection: 59
HStem: 1 21G<360 371.5>
VStem: 208 287
LayerCount: 2
Fore
SplineSet
208 236 m 0
 208 246 220 252 229 257 c 0
 412 364 449 472 479 472 c 0
 487 472 495 468 495 458 c 0
 495 441 411 313 316 234 c 1
 373 138 384 51 384 21 c 0
 384 15 385 11 384 10 c 0
 381 4 375 1 368 1 c 0
 352 1 348 17 347 22 c 0
 305 174 208 215 208 236 c 0
EndSplineSet
EndChar

StartChar: guilsinglright
Encoding: 8250 8250 25
Width: 532
Flags: HW
TeX: 472 0
ItalicCorrection: 59
HStem: 1 21G<165 184.5>
VStem: 152 288
LayerCount: 2
Fore
SplineSet
152 15 m 0
 152 32 233 154 331 238 c 1
 271 347 263 420 263 448 c 0
 263 457 264 462 264 462 c 1
 267 468 273 472 280 472 c 0
 297 472 300 453 301 450 c 0
 344 298 440 257 440 236 c 0
 440 226 427 220 419 215 c 0
 236 108 200 1 169 1 c 0
 161 1 152 5 152 15 c 0
EndSplineSet
EndChar

StartChar: quotedblright
Encoding: 8221 8221 27
Width: 444
Flags: HW
TeX: 690 0
ItalicCorrection: 79
HStem: 547 147<206.608 285.342 460.694 537.956>
VStem: 174 157<565.224 661.888> 427 157<565.323 660.299>
LayerCount: 2
Fore
SplineSet
395 372 m 0
 395 383 408 389 413 393 c 0
 469 433 518 494 539 563 c 1
 525 555 508 547 488 547 c 0
 453 547 427 568 427 605 c 0
 427 648 466 694 516 694 c 0
 563 694 584 656 584 611 c 0
 584 542 532 439 443 371 c 0
 424 357 419 354 413 354 c 0
 403 354 395 364 395 372 c 0
EndSplineSet
Refer: 48 8217 S 1 0 0 1 -82 0 2
EndChar

StartChar: quotedblbase
Encoding: 8222 8222 28
Width: 444
Flags: HW
TeX: 147 194
ItalicCorrection: 79
HStem: -193 21G<19 27 272 280> 0 148<70.6526 149.388 322.653 401.956>
VStem: 38 157<18.1243 115.042> 290 158<18.1243 115.042>
LayerCount: 2
Fore
SplineSet
7 -175 m 0
 7 -164 19 -158 24 -154 c 0
 80 -114 129 -52 150 17 c 1
 137 9 120 0 99 0 c 0
 64 0 38 22 38 59 c 0
 38 104 78 148 128 148 c 0
 175 148 195 108 195 65 c 0
 195 9 157 -99 55 -176 c 0
 36 -191 30 -193 24 -193 c 0
 14 -193 7 -182 7 -175 c 0
259 -175 m 0
 259 -164 272 -158 277 -154 c 0
 333 -114 382 -52 403 17 c 1
 390 9 372 0 351 0 c 0
 316 0 290 22 290 59 c 0
 290 104 330 148 380 148 c 0
 427 148 448 108 448 65 c 0
 448 9 409 -99 307 -176 c 0
 288 -191 283 -193 277 -193 c 0
 267 -193 259 -183 259 -175 c 0
EndSplineSet
EndChar

StartChar: endash
Encoding: 8211 8211 31
Width: 591
Flags: HW
TeX: 444 0
ItalicCorrection: 98
HStem: 257 36<100.011 626.989>
LayerCount: 2
Fore
SplineSet
100 275 m 0
 100 282 104 293 127 293 c 2
 599 293 l 2
 612 293 627 290 627 275 c 0
 627 268 623 258 601 257 c 1
 127 257 l 2
 115 257 100 259 100 275 c 0
EndSplineSet
EndChar

StartChar: emdash
Encoding: 8212 8212 32
Width: 1182
Flags: HW
TeX: 444 0
ItalicCorrection: 98
HStem: 257 36<130.012 1186.99>
LayerCount: 2
Fore
SplineSet
130 275 m 0
 130 282 134 293 157 293 c 2
 1160 293 l 2
 1170 293 1187 292 1187 275 c 0
 1187 260 1174 257 1160 257 c 2
 171 257 l 2
 167 257 164 256 160 256 c 0
 146 256 130 259 130 275 c 0
EndSplineSet
Substitution2: "Cyrillic substitutions subtable" emdash.cyr
AlternateSubs2: "Cyrillic alternatives subtable" emdash.cyr
EndChar

StartChar: dotlessi
Encoding: 305 305 34
Width: 355
Flags: HW
TeX: 444 0
ItalicCorrection: 94
HStem: -11 37<227.476 279.418> 418 38<184.873 237.907>
VStem: 131 96<26.8824 120.971> 238 96<322.769 417.759> 336 51<100.281 161.992>
AnchorPoint: "below" 177 0 basechar 0
AnchorPoint: "above" 292 456 basechar 0
LayerCount: 2
Fore
SplineSet
77 299 m 0
 77 320 127 456 230 456 c 0
 286 456 334 419 334 365 c 0
 334 317 227 94 227 45 c 0
 227 33 231 26 243 26 c 0
 302 26 330 147 336 155 c 0
 340 160 346 162 357 162 c 2
 363 162 l 2
 372 162 387 162 387 146 c 0
 387 125 338 -11 235 -11 c 0
 185 -11 131 19 131 79 c 0
 131 127 238 349 238 399 c 0
 238 411 233 418 221 418 c 0
 208 418 189 409 170 383 c 0
 124 319 147 283 108 282 c 1
 103 282 l 2
 94 282 77 283 77 299 c 0
EndSplineSet
EndChar

StartChar: dotlessj
Encoding: 567 567 35
Width: 385
Flags: HW
TeX: 444 194
ItalicCorrection: 46
HStem: -206 37<54.0782 115.261> 418 37<208.024 273.651>
VStem: -30 120<-152.798 -78.9984> 78 61<282.399 347.535> 275 100<282.969 416.27>
DStem2: 130.487 -206 237.738 -206 0.242599 0.970127<99.2482 604.497>
AnchorPoint: "below" 115 -194 basechar 0
AnchorPoint: "above" 350 456 basechar 0
LayerCount: 2
Fore
SplineSet
-30 -131 m 0
 -30 -93 0 -58 41 -58 c 0
 70 -58 90 -77 90 -104 c 0xe8
 90 -118 85 -144 53 -166 c 1
 59 -167 65 -169 72 -169 c 0
 135 -169 163 -77 176 -24 c 2
 263 321 l 2
 273 361 275 376 275 389 c 0
 275 409 268 418 253 418 c 0
 230 418 180 398 139 307 c 0
 129 283 125 282 108 282 c 2
 98 282 l 2
 83 282 78 289 78 297 c 0xd8
 78 321 148 455 258 455 c 0
 324 455 375 416 375 357 c 0
 375 335 367 312 364 298 c 2
 282 -29 l 2
 272 -71 262 -110 213 -152 c 0
 185 -176 133 -206 71 -206 c 0
 12 -206 -30 -176 -30 -131 c 0
EndSplineSet
EndChar

StartChar: ff
Encoding: 64256 64256 36
Width: 755
Flags: HW
TeX: 690 194
ItalicCorrection: 217
HStem: -206 37<58.4749 120.24 354.512 437.208> 397 47<119.405 236 351 579 694 829.632> 669 37<411.474 521.914 742.531 812.565>
VStem: -19 121<-144.91 -70.25> 275 120<-142.729 -70.25>
DStem2: 152 -51 267 3 0.184648 0.982805<-45.6694 455.807 523.233 702.538> 579 397 635 122 0.180229 0.983625<-270.615 0 66.9567 254.799>
LayerCount: 2
Fore
SplineSet
-19 -123 m 0
 -19 -81 14 -49 53 -49 c 0
 81 -49 102 -67 102 -95 c 0
 102 -111 95 -143 58 -160 c 1
 68 -164 78 -169 89 -169 c 0
 127 -169 139 -113 152 -51 c 0
 171 38 228 352 236 397 c 1
 151 397 l 2
 150 397 149 396 147 396 c 0
 135 396 119 398 119 417 c 0
 119 443 140 444 149 444 c 2
 245 444 l 1
 268 594 291 706 473 706 c 0
 578 706 605 656 605 623 c 0
 605 583 573 549 534 549 c 0
 505 549 484 567 484 595 c 0
 484 608 490 638 524 657 c 1
 524 658 l 1
 510 664 493 669 473 669 c 0
 432 669 408 651 399 640 c 0
 379 616 361 497 351 444 c 1
 588 444 l 1
 606 551 618 621 662 663 c 0
 693 692 734 706 775 706 c 0
 825 706 892 684 892 623 c 0
 892 575 853 549 821 549 c 0
 792 549 772 567 772 595 c 0
 772 625 792 647 814 658 c 1
 814 659 l 1
 798 666 786 669 776 669 c 0
 723 669 726 601 694 444 c 1
 802 444 l 2
 824 444 830 433 830 424 c 0
 830 397 809 396 801 396 c 2
 799 396 l 2
 797 396 794 397 792 397 c 2
 686 397 l 1
 635 122 l 2
 605 -38 579 -106 522 -154 c 0
 461 -205 404 -206 391 -206 c 0
 324 -206 275 -172 275 -123 c 0
 275 -81 308 -49 346 -49 c 0
 378 -49 395 -71 395 -96 c 0
 395 -121 381 -143 353 -159 c 1
 366 -165 379 -169 393 -169 c 0
 428 -169 462 -132 475 -107 c 0
 501 -55 579 397 579 397 c 1
 343 397 l 1
 342 396 l 1
 342 396 289 87 267 3 c 0
 245 -81 221 -133 170 -174 c 0
 147 -192 122 -206 89 -206 c 0
 40 -206 -19 -179 -19 -123 c 0
EndSplineSet
Ligature2: "Latin ligatures subtable" f f
EndChar

StartChar: fi
Encoding: 64257 64257 37
Width: 674
Flags: HW
TeX: 690 194
ItalicCorrection: 108
HStem: -206 37<57.0439 111.013> -11 37<569.854 613.168> 397 47<108.381 225 341 542> 669 37<413.895 620.116>
VStem: -19 121<-143.675 -70.375> 468 101<28.4238 162.445> 581 120<562.375 632.337> 654 53<83.2107 161.992>
DStem2: 169 95 255 3 0.183098 0.983095<-199.546 307.148 374.593 540.442> 391.725 -206 497.977 -206 0.242599 0.970127<304.587 621.443>
LayerCount: 2
Fore
SplineSet
-19 -124 m 0
 -19 -81 14 -49 53 -49 c 0
 81 -49 102 -67 102 -95 c 0
 102 -113 94 -143 56 -160 c 1
 66 -165 75 -169 83 -169 c 0
 123 -169 132 -101 169 95 c 2
 225 397 l 1
 141 397 l 2
 139 397 137 396 135 396 c 0
 123 396 108 398 108 417 c 0xfd
 108 442 128 444 138 444 c 2
 234 444 l 1
 249 527 258 613 332 666 c 0
 381 701 444 706 502 706 c 2
 503 706 l 2
 572 706 701 704 701 617 c 0
 701 574 669 540 630 540 c 0
 613 540 581 550 581 587 c 0xfe
 581 603 587 629 622 650 c 1
 603 659 579 669 515 669 c 2
 514 669 l 2
 385 669 373 641 341 444 c 1
 633 444 l 2
 651 444 656 438 656 429 c 0
 656 423 654 417 652 409 c 2
 580 122 l 2
 576 106 569 77 569 56 c 0
 569 39 573 26 588 26 c 0
 629 26 646 141 654 153 c 0
 658 159 664 162 675 162 c 2
 681 162 l 2
 692 162 707 163 707 146 c 0
 707 140 678 -11 583 -11 c 0
 527 -11 468 24 468 88 c 0
 468 107 475 126 481 151 c 2
 542 397 l 1
 331 397 l 1
 331 397 277 89 255 3 c 0
 233 -81 211 -135 160 -176 c 0
 144 -189 117 -206 83 -206 c 0
 27 -206 -19 -173 -19 -124 c 0
EndSplineSet
Ligature2: "Latin ligatures excepting Turkic subtable" f i
EndChar

StartChar: fl
Encoding: 64258 64258 38
Width: 704
Flags: HW
TeX: 690 194
ItalicCorrection: 108
HStem: -205 37<56.9104 111.717> -11 37<600.408 642.25> 397 47<108.382 225 341 571> 669 37<405.788 542.697> 674 20G<656.5 728>
VStem: -19 121<-143.622 -70.9501> 498 100<28.3655 161.469> 679 57<76.8805 161.535>
DStem2: 177 138 254 -4 0.190635 0.981661<-245.878 263.401 331.652 515.597> 420.976 -205.004 527.977 -205.004 0.242599 0.970127<303.664 620.416 669.165 820.508 848.399 932.041>
LayerCount: 2
Fore
SplineSet
-19 -124 m 0
 -19 -75 21 -49 53 -49 c 0
 81 -49 102 -67 102 -95 c 0
 102 -113 94 -143 56 -160 c 1
 66 -165 75 -168 83 -168 c 0
 123 -168 130 -114 177 138 c 2
 225 397 l 1
 136 397 l 2
 123 397 108 398 108 417 c 0
 108 442 128 444 138 444 c 2
 234 444 l 1
 234 445 l 1
 260 619 295 706 477 706 c 0xf7
 605 706 624 657 627 618 c 1
 643 691 646 694 667 694 c 2xef
 722 694 l 2xef
 734 694 748 693 748 678 c 0
 748 673 745 664 743 657 c 2
 607 111 l 2
 606 106 598 79 598 57 c 0
 598 31 610 26 618 26 c 0
 652 26 672 112 679 139 c 0
 685 160 690 162 713 162 c 0
 732 162 736 155 736 146 c 0
 736 142 708 -11 612 -11 c 0
 557 -11 498 24 498 88 c 0
 498 104 502 119 504 127 c 2
 571 397 l 1
 331 397 l 1
 331 397 277 83 254 -4 c 0
 237 -69 217 -131 160 -176 c 0
 123 -206 94 -205 82 -205 c 0
 28 -205 -19 -173 -19 -124 c 0
341 444 m 1
 584 444 l 1
 620 591 l 1
 601 555 571 549 555 549 c 2
 554 549 l 2xf7
 527 549 506 567 506 595 c 0
 506 609 511 636 544 657 c 1
 525 665 503 669 477 669 c 0
 388 669 378 618 378 617 c 0
 364 579 348 489 341 444 c 1
EndSplineSet
Ligature2: "Latin ligatures subtable" f l
EndChar

StartChar: ffi
Encoding: 64259 64259 39
Width: 1044
Flags: HW
TeX: 690 194
ItalicCorrection: 108
HStem: -206 38<57.0666 111.174 345.25 437.824> -11 37<939.574 982.897> 397 47<108.405 225 341 580 695 912> 669 37<403.957 540.271 770.309 990.109>
VStem: -19 121<-143.675 -70.9501> 264 120<-143.946 -70.1121> 503 120<571 642.914> 838 100<28.3646 158.828> 951 120<561.816 632.666> 1024 53<83.6337 161.992>
DStem2: 225 397 255 2 0.190989 0.981592<-259.263 0 68.2895 247.759> 580 397 637 128 0.180529 0.98357<-263.023 0 66.9886 227.989> 761.725 -206 868.226 -206 0.242599 0.970127<304.587 621.443>
LayerCount: 2
Fore
SplineSet
-19 -124 m 0
 -19 -84 12 -49 53 -49 c 0
 81 -49 102 -67 102 -95 c 0
 102 -113 94 -143 56 -160 c 1
 67 -165 75 -168 83 -168 c 0
 128 -168 133 -106 225 397 c 1
 141 397 l 2
 140 397 138 396 136 396 c 0
 124 396 108 398 108 417 c 0
 108 443 129 444 138 444 c 2
 234 444 l 1
 262 630 302 706 477 706 c 0
 599 706 623 656 623 623 c 0
 623 583 591 549 552 549 c 0
 524 549 503 567 503 595 c 0xff40
 503 609 508 635 541 657 c 1
 535 659 514 669 475 669 c 0
 387 669 377 616 377 615 c 0
 366 582 363 564 341 444 c 1
 589 444 l 1
 604 527 614 615 691 668 c 0
 745 705 822 706 865 706 c 0
 935 706 1071 706 1071 617 c 0
 1071 576 1040 540 1000 540 c 0
 983 540 951 550 951 587 c 0xff80
 951 603 957 629 992 650 c 1
 972 659 947 669 879 669 c 2
 878 669 l 2
 718 669 732 621 695 444 c 1
 1002 444 l 2
 1020 444 1026 438 1026 429 c 0
 1026 424 1024 417 1022 410 c 2
 953 133 l 2
 952 130 938 88 938 58 c 0
 938 40 943 26 958 26 c 0
 998 26 1017 142 1024 153 c 0
 1028 159 1034 162 1045 162 c 2
 1051 162 l 2
 1062 162 1077 163 1077 146 c 0
 1077 141 1047 -11 953 -11 c 0
 897 -11 838 24 838 88 c 0
 838 107 845 126 851 151 c 2
 912 397 l 1
 687 397 l 1
 637 128 l 2
 605 -39 581 -108 516 -158 c 0
 485 -183 438 -206 386 -206 c 0
 336 -206 264 -185 264 -123 c 0
 264 -84 295 -49 335 -49 c 0
 352 -49 384 -58 384 -95 c 0
 384 -110 379 -138 344 -158 c 1
 358 -164 372 -169 387 -169 c 0
 431 -169 466 -124 476 -105 c 0
 505 -48 554 268 580 397 c 1
 332 397 l 1
 331 396 l 1
 331 396 278 91 255 2 c 0
 233 -82 210 -135 159 -176 c 0
 143 -188 117 -206 83 -206 c 0
 27 -206 -19 -173 -19 -124 c 0
EndSplineSet
Ligature2: "Latin ligatures excepting Turkic subtable" ff i
Ligature2: "Latin ligatures excepting Turkic subtable" f f i
EndChar

StartChar: ffl
Encoding: 64260 64260 40
Width: 1059
Flags: HW
TeX: 690 194
ItalicCorrection: 108
HStem: -206 38<57.0666 111.926 344.617 437.385> -11 37<955.78 997.266> 397 47<108.405 225 341 580 696 927> 669 37<401.202 512.014 761.396 898.317> 675 20G<1009.5 1020>
VStem: -19 121<-143.675 -70.9501> 264 120<-143.946 -71> 853 101<28.3499 163.578> 1034 58<77.2871 161.535>
DStem2: 141 -50 256 6 0.185009 0.982737<-53.1403 454.824 522.474 700.488> 580 397 638 132 0.182766 0.983156<-263.582 0 67.4092 238.915> 775.727 -206 882.728 -206 0.242599 0.970127<304.691 621.685 670.192 821.534 849.426 932.663>
LayerCount: 2
Fore
SplineSet
-19 -124 m 0
 -19 -84 12 -49 53 -49 c 0
 81 -49 102 -67 102 -95 c 0
 102 -113 94 -143 56 -160 c 1
 67 -165 75 -168 83 -168 c 0
 116 -168 126 -123 141 -50 c 0
 160 39 176 129 225 397 c 1
 141 397 l 2
 140 397 138 396 136 396 c 0
 124 396 108 398 108 417 c 0
 108 443 129 444 138 444 c 2
 234 444 l 1
 258 603 285 706 462 706 c 0
 563 706 594 660 594 623 c 0
 594 583 562 549 523 549 c 0
 494 549 474 567 474 595 c 0
 474 608 479 638 513 657 c 1
 513 658 l 1
 499 664 482 669 462 669 c 0
 421 669 397 651 388 640 c 0
 373 621 362 557 341 444 c 1
 589 444 l 1
 615 586 627 706 831 706 c 0xf780
 964 706 981 654 982 618 c 1
 997 688 1001 695 1018 695 c 0xef80
 1022 695 1026 694 1032 694 c 2
 1078 694 l 2
 1090 694 1103 693 1103 678 c 0
 1103 673 1101 664 1099 657 c 2
 962 111 l 2
 961 106 954 78 954 56 c 0
 954 30 965 26 973 26 c 0
 1007 26 1027 112 1034 139 c 0
 1040 160 1045 162 1068 162 c 0
 1087 162 1092 155 1092 146 c 0
 1092 143 1063 -11 967 -11 c 0
 912 -11 853 24 853 88 c 0
 853 104 857 119 859 127 c 2
 927 397 l 1
 687 397 l 1
 683 370 677 344 638 132 c 0
 628 76 604 -59 553 -122 c 0
 523 -158 463 -206 385 -206 c 0
 334 -206 264 -185 264 -123 c 0
 264 -83 296 -49 335 -49 c 0
 352 -49 384 -58 384 -95 c 0
 384 -110 379 -138 344 -158 c 1
 358 -164 372 -169 387 -169 c 0
 401 -169 426 -166 458 -130 c 0
 505 -77 509 40 580 397 c 1
 332 397 l 1
 331 396 l 1
 331 396 277 91 256 6 c 0
 234 -80 212 -135 159 -176 c 0
 143 -188 116 -206 83 -206 c 0
 27 -206 -19 -173 -19 -124 c 0
696 444 m 1
 939 444 l 1
 975 591 l 1
 956 555 926 549 910 549 c 0xf780
 883 549 861 567 861 595 c 0
 861 609 866 636 899 657 c 1
 880 665 858 669 832 669 c 0
 743 669 733 617 732 615 c 0
 718 574 700 471 696 444 c 1
EndSplineSet
Ligature2: "Latin ligatures subtable" ff l
Ligature2: "Latin ligatures subtable" f f l
EndChar

StartChar: uni2423
Encoding: 9251 9251 41
Width: 591
Flags: HW
TeX: 444 97
ItalicCorrection: 44
HStem: -97 108<164.462 433.673>
VStem: 97 57<20.7425 107.506>
LayerCount: 2
Fore
SplineSet
97 85 m 0
 97 104 108 108 122 108 c 2
 124 108 l 2
 152 108 152 95 154 73 c 0
 159 30 167 11 221 11 c 2
 357 11 l 2
 424 11 441 30 479 92 c 0
 489 107 497 108 509 108 c 2
 512 108 l 1
 532 107 536 97 536 90 c 0
 536 81 534 79 442 -80 c 0
 433 -95 425 -97 413 -97 c 2
 138 -97 l 2
 120 -97 111 -95 109 -72 c 0
 105 -20 97 79 97 85 c 0
EndSplineSet
EndChar

StartChar: exclam
Encoding: 33 33 42
Width: 386
Flags: HW
TeX: 690 0
ItalicCorrection: 114
HStem: 0 148<167.56 253.44>
VStem: 135 151<33.0929 114.907> 223 62<219.964 249> 278 151<585.656 685.515>
LayerCount: 2
Fore
SplineSet
223 237 m 0xa0
 223 242 225 252 226 259 c 2
 278 636 l 2
 288 702 343 716 367 716 c 0
 402 716 429 694 429 660 c 0x90
 429 648 426 637 422 627 c 2
 285 249 l 2
 274 218 270 220 249 219 c 0
 235 219 223 220 223 237 c 0xa0
EndSplineSet
Refer: 20 729 S 1 0 0 1 -136 -547 2
EndChar

StartChar: numbersign
Encoding: 35 35 44
Width: 944
Flags: HW
TeX: 690 194
ItalicCorrection: 68
HStem: -193 21G<175 186 422 433> 120 37<124.013 319 381 566 627 886.988> 343 36<180.012 439 501 686 747 941.988> 673 20G<634 645 881 892>
DStem2: 176 -146 210 -160 0.47449 0.880261<-31.3205 302.001 363.99 555.238 616.346 951.427> 422 -146 456 -160 0.475335 0.879805<-30.8435 302.476 364.025 555.713 616.381 951.46>
LayerCount: 2
Fore
SplineSet
124 139 m 0
 124 156 142 157 153 157 c 2
 340 157 l 1
 439 343 l 1
 209 343 l 2
 197 343 180 344 180 361 c 0
 180 378 196 379 208 379 c 2
 460 379 l 1
 466 390 471 402 477 413 c 2
 611 661 l 2
 623 683 628 693 640 693 c 0
 650 693 657 686 657 676 c 0
 657 667 649 654 644 645 c 2
 501 379 l 1
 706 379 l 1
 712 391 718 402 724 413 c 2
 858 661 l 2
 870 683 875 693 887 693 c 0
 897 693 903 686 903 676 c 0
 903 667 896 654 891 645 c 2
 747 379 l 1
 916 379 l 2
 938 379 942 368 942 361 c 0
 942 344 925 343 914 343 c 2
 727 343 l 1
 627 157 l 1
 858 157 l 2
 870 157 887 156 887 139 c 0
 887 122 871 120 858 120 c 2
 607 120 l 1
 456 -160 l 2
 443 -184 439 -193 427 -193 c 0
 417 -193 410 -185 410 -175 c 0
 410 -166 417 -155 422 -146 c 2
 566 120 l 1
 361 120 l 1
 210 -160 l 2
 197 -184 192 -193 180 -193 c 0
 170 -193 163 -185 163 -175 c 0
 163 -166 171 -155 176 -146 c 2
 319 120 l 1
 151 120 l 2
 128 120 124 132 124 139 c 0
381 157 m 1
 586 157 l 1
 686 343 l 1
 480 343 l 1
 381 157 l 1
EndSplineSet
EndChar

StartChar: dollar
Encoding: 36 36 45
Width: 591
Flags: HW
TeX: 742 55
ItalicCorrection: 131
HStem: -10 47<222.15 268> 128 117<185.846 232.025> 657 47<495 546.127>
VStem: 128 125<148.983 217.176> 208 93<392 548.905> 466 93<159.08 330.5> 512 125<490.171 558.24>
DStem2: 256.747 -55 304.747 -55 0.242599 0.970127<20.3145 46.3857 108.72 362.895 505.991 732.761 794.126 820.197>
LayerCount: 2
Fore
SplineSet
128 133 m 0
 128 226 174 245 204 245 c 0
 237 245 253 224 253 199 c 0xf4
 253 185 246 136 185 128 c 1
 192 49 255 41 279 37 c 1
 345 297 l 1
 317 304 208 329 208 455 c 0
 208 542 276 691 446 705 c 1
 454 735 455 750 477 750 c 0
 495 750 500 741 500 730 c 0
 500 722 497 712 495 704 c 1
 581 695 637 650 637 569 c 0
 637 483 591 463 561 463 c 0
 534 463 512 480 512 509 c 0xea
 512 535 531 574 579 580 c 1
 571 634 527 652 483 657 c 1
 425 424 l 1
 437 421 559 401 559 260 c 0xe4
 559 164 489 9 316 -10 c 1
 308 -43 307 -55 285 -55 c 0
 268 -55 263 -47 263 -36 c 0
 263 -28 266 -19 268 -10 c 1
 145 4 128 88 128 133 c 0
301 519 m 0xe8
 301 469 337 446 379 436 c 1
 434 656 l 1
 342 643 301 569 301 519 c 0xe8
329 39 m 1
 424 55 466 141 466 196 c 0xe4
 466 210 463 270 390 286 c 1
 329 39 l 1
EndSplineSet
EndChar

StartChar: percent
Encoding: 37 37 46
Width: 944
Flags: HW
TeX: 742 55
ItalicCorrection: 128
HStem: -55 37<681.146 751.992> 310 37<757.884 830.905> 347 37<310.832 382.08> 610 36<587.057 779.079> 713 37<387.352 460.353>
VStem: 216 87<395.785 555.124> 476 55<517.397 676.605> 586 87<-6.27195 147.754> 846 55<116.45 299.169>
DStem2: 196 14 233 -35 0.692343 0.721569<-44.9026 849.419 890.072 1026.75>
LayerCount: 2
Fore
SplineSet
171 -25 m 0
 171 -9 186 4 196 14 c 2
 784 627 l 1
 755 618 723 610 682 610 c 0
 623 610 577 625 529 651 c 1
 530 643 531 634 531 626 c 0
 531 526 465 347 335 347 c 0
 289 347 216 373 216 479 c 0
 216 601 301 750 428 750 c 0
 477 750 501 720 512 710 c 0
 540 685 597 646 682 646 c 0
 758 646 832 679 876 723 c 0
 889 736 899 749 914 749 c 0
 929 749 944 738 944 720 c 0
 944 704 930 692 920 681 c 2
 233 -35 l 2
 224 -44 214 -55 200 -55 c 0
 183 -55 171 -40 171 -25 c 0
303 436 m 0
 303 400 318 384 339 384 c 0
 361 384 389 401 412 432 c 0
 454 489 476 583 476 633 c 0
 476 686 455 713 428 713 c 0
 360 713 334 589 327 563 c 0
 316 521 303 471 303 436 c 0
586 77 m 0
 586 197 671 347 798 347 c 0
 841 347 901 322 901 223 c 0
 901 117 831 -55 706 -55 c 0
 658 -55 586 -29 586 77 c 0
673 33 m 0
 673 -2 689 -18 710 -18 c 0
 732 -18 759 -2 782 29 c 0
 830 93 846 196 846 231 c 0
 846 297 817 310 798 310 c 0
 782 310 742 298 716 222 c 0
 700 177 673 71 673 33 c 0
EndSplineSet
EndChar

StartChar: ampersand
Encoding: 38 38 47
Width: 885
Flags: HW
TeX: 690 0
ItalicCorrection: 85
HStem: -22 36<338.697 580.288> 236 120<620.965 699.57> 306 37<335.515 410.441> 435 36<358.298 427.76> 674 20G<827 859> 680 36<412.244 505.789>
VStem: 139 116<93.6638 268.549> 428 55<355.886 434.805> 466 122<534.337 605.494> 773 123<583.695 671.747> 776 57<194.362 380.76>
LayerCount: 2
Fore
SplineSet
139 178 m 0
 139 232 171 331 233 393 c 1
 224 421 224 439 224 451 c 0
 224 568 313 716 460 716 c 0
 534 716 588 669 588 599 c 0
 588 533 544 511 515 511 c 0
 488 511 466 529 466 557 c 0x96a0
 466 585 485 619 529 627 c 1
 515 668 484 680 460 680 c 0
 436 680 415 668 398 651 c 0
 371 624 355 589 325 455 c 1
 344 461 375 471 407 471 c 0
 468 471 483 433 483 407 c 0
 483 360 444 306 373 306 c 0
 341 306 315 312 294 323 c 1
 268 248 255 185 255 150 c 0
 255 69 309 14 447 14 c 0
 603 14 718 70 764 222 c 0
 771 246 776 270 776 294 c 0xb720
 776 354 749 392 725 429 c 1
 614 376 613 345 610 321 c 1
 622 339 642 356 672 356 c 0
 702 356 722 337 722 308 c 0
 722 279 697 236 647 236 c 0
 600 236 554 268 554 320 c 0
 554 415 682 461 736 498 c 0
 766 519 792 545 812 576 c 1
 788 581 773 598 773 622 c 0
 773 662 809 694 845 694 c 0
 873 694 896 676 896 647 c 0xda40
 896 613 862 524 775 460 c 1
 803 422 833 369 833 300 c 0xda20
 833 210 782 100 695 42 c 0
 611 -14 515 -22 436 -22 c 2
 429 -22 l 2
 377 -22 139 -10 139 178 c 0
323 382 m 1
 330 364 345 343 377 343 c 0xb3
 423 343 428 406 428 414 c 0
 428 427 418 435 404 435 c 0
 383 435 351 419 323 382 c 1
EndSplineSet
EndChar

StartChar: quoteright
Encoding: 8217 8217 48
Width: 355
Flags: HW
TeX: 690 0
ItalicCorrection: 129
HStem: 547 147<288.608 367.342>
VStem: 256 157<565.224 661.888>
LayerCount: 2
Fore
SplineSet
225 372 m 0
 225 383 237 389 242 393 c 0
 298 433 347 494 368 563 c 1
 354 555 337 547 317 547 c 0
 278 547 256 572 256 605 c 0
 256 655 300 694 346 694 c 0
 393 694 413 656 413 611 c 0
 413 542 361 438 272 371 c 0
 253 357 248 354 242 354 c 0
 232 354 225 365 225 372 c 0
EndSplineSet
EndChar

StartChar: parenleft
Encoding: 40 40 49
Width: 473
Flags: HW
TeX: 742 249
ItalicCorrection: 158
VStem: 168 84<-79.4207 197.753>
LayerCount: 2
Fore
SplineSet
168 72 m 0
 168 281 274 573 521 738 c 0
 528 743 537 749 548 749 c 0
 556 749 565 746 565 736 c 0
 564 725 549 715 540 707 c 0
 336 525 252 202 252 14 c 0
 252 -149 312 -210 320 -230 c 0
 324 -239 318 -250 305 -250 c 2
 304 -250 l 2
 277 -250 168 -134 168 72 c 0
EndSplineSet
EndChar

StartChar: parenright
Encoding: 41 41 50
Width: 473
Flags: HW
TeX: 742 249
ItalicCorrection: 33
VStem: 344 84<299.949 579.781>
LayerCount: 2
Fore
SplineSet
32 -237 m 0
 32 -226 45 -217 53 -210 c 0
 279 -12 344 334 344 486 c 0
 344 651 283 711 276 730 c 0
 272 739 278 749 291 749 c 0
 318 749 428 634 428 428 c 0
 428 219 321 -76 73 -240 c 0
 68 -244 58 -250 49 -250 c 0
 40 -250 32 -245 32 -237 c 0
EndSplineSet
EndChar

StartChar: asterisk
Encoding: 42 42 51
Width: 591
Flags: HW
TeX: 742 0
ItalicCorrection: 143
HStem: 395 72<209.595 277.563> 588 72<572.646 643.52>
VStem: 338 79<312.31 396.481> 436 79<659.76 743.783>
LayerCount: 2
Fore
SplineSet
206 429 m 0
 206 444 215 458 227 467 c 0
 237 474 240 475 388 528 c 1
 251 588 251 585 251 607 c 0
 251 634 280 660 304 660 c 0
 320 660 322 656 416 561 c 1
 427 665 427 708 436 723 c 0
 445 739 463 750 481 750 c 0
 498 750 515 738 515 721 c 0
 515 710 517 718 454 562 c 1
 601 660 598 660 614 660 c 0
 633 660 647 643 647 626 c 0
 647 611 638 597 626 588 c 0
 616 581 613 581 465 528 c 1
 602 468 602 471 602 449 c 0
 602 422 572 395 548 395 c 0
 533 395 532 398 437 494 c 1
 420 336 425 347 417 333 c 0
 408 317 390 306 372 306 c 0
 355 306 338 317 338 334 c 0
 338 345 336 338 399 494 c 1
 252 396 254 395 238 395 c 0
 219 395 206 412 206 429 c 0
EndSplineSet
EndChar

StartChar: plus
Encoding: 43 43 52
Width: 885
Flags: HW
TeX: 603 103
ItalicCorrection: 33
HStem: 232 36<152.014 481 528 855.985>
DStem2: 396.997 -102 434.997 -102 0.242599 0.970127<20.4962 344.401 390.728 729.101>
LayerCount: 2
Fore
SplineSet
152 250 m 0
 152 267 171 268 184 268 c 2
 490 268 l 1
 564 566 l 2
 568 581 571 602 588 602 c 0
 598 602 606 592 605 580 c 0
 604 565 546 348 528 268 c 1
 824 268 l 2
 836 268 856 267 856 250 c 0
 856 234 838 232 825 232 c 2
 518 232 l 1
 515 219 512 206 509 194 c 2
 444 -66 l 2
 440 -81 437 -102 420 -102 c 0
 408 -102 404 -94 404 -83 c 0
 404 -75 406 -66 408 -58 c 2
 481 232 l 1
 182 232 l 2
 170 232 152 234 152 250 c 0
EndSplineSet
EndChar

StartChar: comma
Encoding: 44 44 53
Width: 355
Flags: HW
TeX: 147 194
HStem: -193 21G<101 109> 0 148<154.311 227.827>
VStem: 120 155<16.9375 114.927>
LayerCount: 2
Fore
SplineSet
89 -175 m 0
 89 -151 176 -131 229 14 c 1
 216 7 200 0 181 0 c 0
 143 0 120 24 120 58 c 0
 120 103 160 148 210 148 c 0
 256 148 275 110 275 68 c 0
 275 11 237 -97 136 -176 c 0
 118 -190 112 -193 106 -193 c 0
 96 -193 89 -182 89 -175 c 0
EndSplineSet
EndChar

StartChar: hyphen
Encoding: 45 45 54
Width: 414
Flags: HW
TeX: 444 0
ItalicCorrection: 26
HStem: 176 93<102.667 373.671>
VStem: 91 295<180.833 264.409>
LayerCount: 2
Fore
SplineSet
91 195 m 0
 91 200 92 205 102 245 c 0
 106 262 112 269 134 269 c 2
 360 269 l 2
 376 269 386 261 386 249 c 0
 386 244 379 216 373 195 c 0
 369 181 361 176 345 176 c 2
 118 176 l 2
 105 176 91 179 91 195 c 0
EndSplineSet
EndChar

StartChar: period
Encoding: 46 46 55
Width: 355
Flags: HW
TeX: 147 0
HStem: 0 148<154.473 236.527>
VStem: 120 151<34.3499 113.65>
LayerCount: 2
Fore
SplineSet
120 60 m 0
 120 103 162 148 210 148 c 0
 247 148 271 121 271 88 c 0
 271 45 229 0 181 0 c 0
 144 0 120 27 120 60 c 0
EndSplineSet
EndChar

StartChar: slash
Encoding: 47 47 56
Width: 591
Flags: HW
TeX: 742 249
ItalicCorrection: 158
DStem2: 623 700 669 703 0.539235 0.842155<-1102.46 57.6862>
LayerCount: 2
Fore
SplineSet
32 -231 m 0
 32 -224 37 -216 39 -213 c 2
 623 700 l 2
 643 732 651 749 665 749 c 0
 674 749 682 740 682 731 c 0
 682 725 681 722 669 703 c 2
 78 -220 l 2
 67 -237 61 -249 49 -249 c 0
 39 -249 32 -240 32 -231 c 0
EndSplineSet
EndChar

StartChar: zero
Encoding: 48 48 57
Width: 591
Flags: HW
TeX: 639 0
ItalicCorrection: 131
HStem: -22 37<246.456 361.093> 630 36<388.534 505.897>
VStem: 112 104<54.9066 233.241> 535 102<411.93 587.631>
LayerCount: 2
Fore
SplineSet
112 156 m 0
 112 224 149 428 225 538 c 0
 250 574 319 666 461 666 c 0
 548 666 637 630 637 486 c 0
 637 416 600 217 528 110 c 0
 448 -11 339 -22 289 -22 c 0
 201 -22 112 13 112 156 c 0
216 103 m 0
 216 48 250 15 299 15 c 0
 351 15 403 53 429 113 c 0
 452 166 535 463 535 545 c 0
 535 601 498 630 451 630 c 0
 404 630 363 600 341 570 c 0
 292 504 216 160 216 103 c 0
EndSplineSet
Substitution2: "LGC old numerals subtable" zerooldstyle
EndChar

StartChar: one
Encoding: 49 49 58
Width: 591
Flags: HW
TeX: 639 0
ItalicCorrection: 131
HStem: 0 48<124.485 260.959 370 491.618> 480 54<234.075 351.877>
DStem2: 243.495 0 357.497 0 0.242599 0.970127<79.1965 524.727>
LayerCount: 2
Fore
SplineSet
124 20 m 0
 124 34 130 48 154 48 c 2
 170 48 l 2
 262 48 256 49 263 78 c 2
 371 509 l 1
 350 500 303 480 257 480 c 0
 238 480 232 490 232 500 c 0
 232 535 269 527 300 534 c 0
 367 548 428 591 470 640 c 0
 477 648 485 656 496 656 c 0
 508 656 515 648 515 637 c 0
 515 630 513 620 509 604 c 2
 385 108 l 1
 370 50 l 1
 393 48 416 48 439 48 c 2
 464 48 l 2
 477 48 492 46 492 27 c 0
 492 18 489 0 464 0 c 0
 449 0 403 3 311 3 c 0
 188 3 163 0 150 0 c 0
 127 0 124 12 124 20 c 0
EndSplineSet
Substitution2: "LGC old numerals subtable" oneoldstyle
EndChar

StartChar: two
Encoding: 50 50 59
Width: 591
Flags: HW
TeX: 639 0
ItalicCorrection: 131
HStem: -22 106<333.361 482.812> 62 37<201 260.801> 347 37<225.381 285.523> 630 36<360.456 479.571>
VStem: 89 57<-21.8772 41.6463> 169 55<384.234 488.954> 340 37<445.899 545.698> 508 110<430.369 584.882> 541 58<130.683 182.689>
LayerCount: 2
Fore
SplineSet
89 -6 m 0
 89 11 127 140 272 232 c 0
 309 256 444 313 485 426 c 0
 493 448 508 508 508 543 c 0
 508 613 462 630 426 630 c 0
 310 630 224 483 224 412 c 0
 224 397 228 384 244 384 c 0
 293 384 340 462 340 499 c 0
 340 520 326 529 326 540 c 0
 326 550 336 559 345 559 c 0
 362 559 377 525 377 501 c 0
 377 449 320 347 239 347 c 0
 198 347 169 378 169 420 c 0
 169 503 274 666 431 666 c 0
 537 666 618 610 618 500 c 0
 618 376 537 314 376 229 c 0
 305 192 262 171 201 99 c 1x7f
 276 99 358 84 424 84 c 0
 494 84 530 135 541 163 c 0
 547 178 550 183 570 183 c 2
 575 183 l 2
 586 183 599 182 599 168 c 0
 599 133 531 -22 409 -22 c 0xbe80
 321 -22 273 62 202 62 c 0x7e80
 178 62 162 47 146 -3 c 0
 141 -18 136 -22 120 -22 c 0xbe80
 118 -22 115 -22 113 -22 c 0xbe80
 104 -22 89 -21 89 -6 c 0
EndSplineSet
Substitution2: "LGC old numerals subtable" twooldstyle
EndChar

StartChar: three
Encoding: 51 51 60
Width: 591
Flags: HW
TeX: 639 0
ItalicCorrection: 131
HStem: -22 37<201.618 337.984> 311 48<304.801 422.682> 412 37<268.325 323.488> 630 36<377.235 509.06>
VStem: 106 123<110.759 182.633> 212 55<449.129 539.96> 339 38<463.797 546.638> 436 110<142.197 283.282> 529 99<460.071 604.125>
LayerCount: 2
Fore
SplineSet
106 114 m 0
 106 186 150 206 180 206 c 0
 209 206 229 187 229 160 c 0
 229 132 208 96 164 90 c 1
 179 32 224 15 266 15 c 0
 316 15 364 38 391 83 c 0
 412 117 436 213 436 250 c 0xfb
 436 310 385 311 363 311 c 2
 332 311 l 2
 318 311 304 312 304 328 c 0
 304 361 328 359 330 359 c 2
 371 359 l 2
 477 359 503 425 524 524 c 0
 527 537 529 550 529 563 c 0
 529 616 487 630 454 630 c 0
 360 630 267 554 267 478 c 0
 267 458 277 449 289 449 c 0
 310 449 339 474 339 500 c 0
 339 519 326 530 326 541 c 0
 326 551 338 560 345 560 c 0xf680
 358 560 377 533 377 502 c 0
 377 454 330 412 282 412 c 0
 239 412 212 444 212 483 c 0
 212 568 318 666 458 666 c 0
 553 666 628 623 628 532 c 0xf680
 628 458 580 382 509 343 c 0
 498 337 486 332 474 327 c 1
 537 295 546 239 546 206 c 0
 546 94 445 -22 266 -22 c 0
 173 -22 106 32 106 114 c 0
EndSplineSet
Substitution2: "LGC old numerals subtable" threeoldstyle
EndChar

StartChar: four
Encoding: 52 52 61
Width: 591
Flags: HW
TeX: 639 194
ItalicCorrection: 131
HStem: -194 21G<326 346.5> -24 48<442 521.48> 28 48<185 305.896> 646 20G<473.5 500>
VStem: 430 102<557.031 654.625>
DStem2: 329 -1 430 -24 0.245047 0.969511<-154.289 1.32114 51.9281 226.244>
LayerCount: 2
Fore
SplineSet
54 28 m 0
 54 57 86 41 186 146 c 0
 370 339 418 602 430 629 c 0
 439 648 460 666 487 666 c 0
 513 666 532 648 532 624 c 0
 532 603 471 317 185 76 c 1
 197 76 l 2
 256 76 282 66 341 46 c 1
 382 209 378 198 390 212 c 0
 402 226 420 236 438 236 c 0
 463 236 483 219 483 194 c 0
 483 182 478 168 442 24 c 1
 494 25 511 36 522 36 c 0
 531 36 545 21 545 10 c 0
 545 -10 479 -24 430 -24 c 1
 395 -177 391 -166 384 -174 c 0
 372 -186 355 -194 338 -194 c 0
 314 -194 294 -177 294 -152 c 0
 294 -137 299 -121 329 -1 c 1
 287 12 252 28 191 28 c 0
 83 28 103 2 78 2 c 0
 65 2 54 18 54 28 c 0
EndSplineSet
Substitution2: "LGC old numerals subtable" fouroldstyle
EndChar

StartChar: five
Encoding: 53 53 62
Width: 591
Flags: HW
TeX: 639 0
ItalicCorrection: 131
HStem: -22 44<205.428 334.871> 98 127<176.25 226.806> 384 36<318.635 429.804> 517 117<328.01 481.589> 645 20G<294.5 307.5 606.5 617.5>
VStem: 118 134<122.371 195.828> 443 121<209.002 348.905>
DStem2: 115.724 -22 179.221 -22 0.242599 0.970127<439.06 578.898>
LayerCount: 2
Fore
SplineSet
118 120 m 0
 118 204 167 225 199 225 c 0
 229 225 252 205 252 175 c 0
 252 150 235 104 176 98 c 1
 193 25 248 22 265 22 c 0
 391 22 414 178 425 223 c 0
 433 256 443 300 443 328 c 0
 443 350 432 384 391 384 c 0
 378 384 318 382 262 326 c 0
 250 315 246 305 228 305 c 0
 215 305 204 311 204 325 c 0
 204 332 207 341 208 347 c 2
 282 643 l 2
 284 652 288 665 301 665 c 0
 314 665 359 634 449 634 c 0
 539 634 600 665 613 665 c 0
 622 665 627 660 627 651 c 0
 627 636 610 621 600 612 c 0
 545 561 464 517 374 517 c 0
 354 517 335 519 315 523 c 1
 282 389 l 1
 314 407 349 420 398 420 c 0
 495 420 564 365 564 264 c 0
 564 120 445 -22 263 -22 c 0
 172 -22 118 41 118 120 c 0
EndSplineSet
Substitution2: "LGC old numerals subtable" fiveoldstyle
EndChar

StartChar: six
Encoding: 54 54 63
Width: 591
Flags: HW
TeX: 639 0
ItalicCorrection: 131
HStem: -22 44<252.442 363.613> 392 37<347.001 449.098> 627 39<444.713 560.815>
VStem: 130 106<57.5857 214.164> 463 114<218.282 356.244> 506 123<509.04 580.142>
LayerCount: 2
Fore
SplineSet
130 165 m 0
 130 230 151 331 179 402 c 0
 246 573 380 666 515 666 c 0
 608 666 629 610 629 573 c 0
 629 516 593 485 555 485 c 0
 527 485 506 504 506 532 c 0xf4
 506 556 524 593 567 601 c 1
 556 617 542 627 512 627 c 0
 487 627 418 615 363 537 c 0
 330 489 311 426 294 364 c 1
 339 423 387 429 414 429 c 0
 544 429 577 332 577 275 c 0xf8
 577 241 563 162 526 105 c 0
 490 50 414 -22 297 -22 c 0
 211 -22 130 21 130 165 c 0
236 93 m 0
 236 63 251 22 299 22 c 0
 401 22 418 130 441 218 c 0
 452 264 463 310 463 333 c 0xf8
 463 360 451 392 403 392 c 0
 269 392 236 120 236 93 c 0
EndSplineSet
Substitution2: "LGC old numerals subtable" sixoldstyle
EndChar

StartChar: seven
Encoding: 55 55 64
Width: 591
Flags: HW
TeX: 639 0
ItalicCorrection: 131
HStem: -22 21G<338 360> 526 37<497.499 554.296> 561 105<333.288 468.119>
VStem: 300 122<-4.91779 95.4294>
LayerCount: 2
Fore
SplineSet
144 445 m 0
 144 454 148 458 243 642 c 0
 253 661 255 666 274 666 c 2
 280 666 l 2
 298 666 304 660 304 652 c 0
 304 642 295 629 292 622 c 1
 348 659 398 666 424 666 c 0xb0
 505 666 471 563 525 563 c 0xd0
 581 563 644 650 647 653 c 0
 658 666 664 667 675 667 c 0
 678 667 681 666 683 666 c 0xb0
 694 666 705 664 705 652 c 0
 705 643 697 636 692 629 c 0
 489 360 437 59 422 24 c 0
 405 -15 368 -22 352 -22 c 0
 324 -22 300 -4 300 27 c 0
 300 59 351 255 555 531 c 1
 543 528 531 526 519 526 c 0xd0
 471 526 449 561 401 561 c 0
 348 561 261 531 211 460 c 0
 191 431 193 431 174 431 c 2xb0
 165 431 l 2
 155 431 144 434 144 445 c 0
EndSplineSet
Substitution2: "LGC old numerals subtable" sevenoldstyle
EndChar

StartChar: eight
Encoding: 56 56 65
Width: 591
Flags: HW
TeX: 639 0
ItalicCorrection: 131
HStem: -22 43<225.447 385.951> 627 39<370.852 517.297>
VStem: 107 87<50.9909 197.705> 219 93<424.5 532.861> 464 102<133.204 268.5> 542 76<474.571 604.668>
LayerCount: 2
Fore
SplineSet
107 114 m 0
 107 200 162 278 277 330 c 1
 236 360 219 403 219 446 c 0
 219 537 298 666 458 666 c 0
 540 666 618 633 618 547 c 0xf4
 618 483 579 415 481 369 c 1
 481 368 l 1
 508 350 566 311 566 226 c 0xf8
 566 124 477 -22 290 -22 c 0
 197 -22 107 15 107 114 c 0
194 113 m 0
 194 66 219 21 298 21 c 0
 404 21 464 95 464 156 c 0xf8
 464 205 435 217 317 302 c 1
 241 262 194 183 194 113 c 0
312 521 m 0xf4
 312 483 335 474 443 396 c 1
 444 396 l 1
 531 451 542 520 542 550 c 0
 542 603 505 627 453 627 c 0
 362 627 312 572 312 521 c 0xf4
EndSplineSet
Substitution2: "LGC old numerals subtable" eightoldstyle
EndChar

StartChar: nine
Encoding: 57 57 66
Width: 591
Flags: HW
TeX: 639 0
ItalicCorrection: 131
HStem: -22 44<190.528 321.767> 215 37<301.153 400.052> 627 40<395.02 500.65>
VStem: 122 122<62.6219 135.375> 174 114<288.332 425.189> 517 104<439.061 588.009>
LayerCount: 2
Fore
SplineSet
122 72 m 0
 122 125 154 159 195 159 c 0
 223 159 244 141 244 113 c 0xf4
 244 91 230 55 189 44 c 1
 198 36 214 22 251 22 c 0
 307 22 359 60 390 107 c 0
 410 137 434 191 456 280 c 1
 411 221 363 215 336 215 c 0
 206 215 174 313 174 370 c 0xec
 174 403 186 480 222 536 c 0
 252 584 329 667 458 667 c 0
 541 667 621 624 621 482 c 0
 621 433 604 326 569 237 c 0
 504 72 377 -22 249 -22 c 0
 186 -22 122 2 122 72 c 0
288 309 m 0
 288 284 299 252 347 252 c 0xec
 484 252 517 539 517 557 c 0
 517 605 490 627 455 627 c 0
 350 627 329 501 311 431 c 0
 296 371 288 333 288 309 c 0
EndSplineSet
Substitution2: "LGC old numerals subtable" nineoldstyle
EndChar

StartChar: colon
Encoding: 58 58 67
Width: 355
Flags: HW
TeX: 444 0
ItalicCorrection: 66
HStem: 0 148<154.473 236.527> 297 147<229.706 312.133>
VStem: 120 151<34.3499 113.65> 195 150<330.341 409.23>
LayerCount: 2
Fore
SplineSet
195 356 m 0
 195 402 240 444 285 444 c 0
 322 444 345 417 345 384 c 0
 345 340 304 297 256 297 c 0xd0
 219 297 195 323 195 356 c 0
EndSplineSet
Refer: 55 46 S 1 0 0 1 0 0 3
EndChar

StartChar: semicolon
Encoding: 59 59 68
Width: 355
Flags: HW
TeX: 444 194
ItalicCorrection: 66
HStem: -193 21<101 109> 0 148<154.311 227.827> 297 147<228.706 311.54>
VStem: 120 155<16.9375 114.927> 194 151<330.341 409.23>
LayerCount: 2
Fore
SplineSet
194 356 m 0
 194 402 239 444 284 444 c 0
 321 444 345 417 345 384 c 0
 345 340 303 297 255 297 c 0xe8
 218 297 194 323 194 356 c 0
EndSplineSet
Refer: 53 44 S 1 0 0 1 0 0 3
EndChar

StartChar: less
Encoding: 60 60 69
Width: 885
Flags: HW
TeX: 585 85
ItalicCorrection: 87
DStem2: 240 248 204 226 0.867818 -0.496882<0 586.965> 207 273 240 248 0.913351 0.407173<19.9613 740.653>
LayerCount: 2
Fore
SplineSet
182 250 m 0
 182 264 199 269 207 273 c 2
 862 565 l 2
 869 568 877 572 885 572 c 0
 895 572 903 565 903 555 c 0
 903 541 886 536 878 532 c 2
 240 248 l 1
 728 -32 l 2
 737 -37 750 -44 750 -56 c 0
 750 -65 743 -73 733 -73 c 0
 724 -73 715 -66 707 -62 c 2
 204 226 l 2
 195 231 182 238 182 250 c 0
EndSplineSet
EndChar

StartChar: equal
Encoding: 61 61 70
Width: 885
Flags: HW
TeX: 391 -108
ItalicCorrection: 68
HStem: 120 37<124.012 827.974> 343 36<180.009 882.986>
LayerCount: 2
Fore
SplineSet
124 139 m 0
 124 155 140 157 153 157 c 2
 786 157 l 2
 810 157 815 156 820 153 c 0
 825 150 828 144 828 139 c 0
 828 130 819 120 802 120 c 2
 152 120 l 2
 128 120 124 132 124 139 c 0
180 361 m 0
 180 376 193 379 209 379 c 2
 846 379 l 2
 864 379 883 379 883 361 c 0
 883 346 868 343 858 343 c 2
 208 343 l 2
 184 343 180 354 180 361 c 0
EndSplineSet
EndChar

StartChar: greater
Encoding: 62 62 71
Width: 885
Flags: HW
TeX: 585 85
ItalicCorrection: 3
DStem2: 301 561 280 531 0.868349 -0.495954<-27.6637 558.769> 704 223 802 226 0.914099 0.405492<-650.773 70.2616>
LayerCount: 2
Fore
SplineSet
105 -56 m 0
 105 -42 122 -36 130 -32 c 2
 704 223 l 2
 725 233 747 242 768 252 c 1
 280 531 l 2
 271 536 258 543 258 555 c 0
 258 564 265 572 275 572 c 0
 284 572 293 565 301 561 c 2
 807 272 l 2
 815 267 826 261 826 250 c 0
 826 236 810 230 802 226 c 2
 146 -65 l 2
 139 -68 131 -73 123 -73 c 0
 113 -73 105 -66 105 -56 c 0
EndSplineSet
EndChar

StartChar: question
Encoding: 63 63 72
Width: 591
Flags: HW
TeX: 690 0
ItalicCorrection: 114
HStem: 0 148<270.56 356.44> 219 38<342.077 404.377> 680 36<400.198 532.199>
VStem: 214 119<465.506 553.578> 238 151<33.0929 114.907> 284 58<257.658 318.921> 431 58<279.973 327.691> 556 58<547.965 659.508>
LayerCount: 2
Fore
SplineSet
214 490 m 0xf3
 214 557 315 716 471 716 c 0
 556 716 614 672 614 592 c 0
 614 564 607 489 526 428 c 0
 420 348 342 329 342 276 c 0
 342 266 345 257 360 257 c 0
 380 257 416 275 431 310 c 0
 436 322 440 327 456 328 c 0xe7
 459 328 462 328 465 328 c 0
 473 328 489 328 489 313 c 0
 489 283 435 219 356 219 c 0
 312 219 284 247 284 292 c 0xe7
 284 322 296 362 323 391 c 0
 353 423 484 495 516 526 c 0
 538 547 556 577 556 611 c 0
 556 659 517 680 469 680 c 0
 434 680 358 666 295 560 c 1
 315 555 333 542 333 515 c 0
 333 476 298 444 263 444 c 0
 237 444 214 461 214 490 c 0xf3
EndSplineSet
Refer: 20 729 S 1 0 0 1 -33 -547 2
EndChar

StartChar: at
Encoding: 64 64 73
Width: 885
Flags: HW
TeX: 690 0
ItalicCorrection: 92
HStem: -11 36<345.673 600.947> 125 37<434.604 545.441 666.529 754.062> 533 37<525.627 633.219> 669 37<500.243 714.749>
VStem: 162 55<136.608 367.659> 308 102<196.628 375.215> 662 107<374.819 482.646> 839 56<317.377 559.461>
LayerCount: 2
Fore
SplineSet
162 244 m 0
 162 347 206 480 299 575 c 0
 387 665 504 706 615 706 c 0
 782 706 895 614 895 450 c 0
 895 368 848 125 705 125 c 0
 630 125 608 163 605 168 c 1
 563 140 526 125 475 125 c 0
 408 125 308 156 308 283 c 0
 308 412 408 570 579 570 c 0
 650 570 695 534 714 483 c 1
 721 483 729 484 736 484 c 2
 742 484 l 2
 754 484 769 483 769 470 c 0
 769 457 758 415 708 217 c 0
 705 204 703 192 703 183 c 0
 703 169 708 162 719 162 c 0
 800 162 839 395 839 453 c 0
 839 626 711 669 612 669 c 0
 356 669 217 423 217 241 c 0
 217 100 306 25 450 25 c 0
 606 25 731 84 747 87 c 0
 757 89 768 89 778 89 c 2
 792 89 l 2
 806 89 811 83 811 76 c 0
 811 71 808 64 802 61 c 0
 771 44 602 -11 449 -11 c 0
 230 -11 162 120 162 244 c 0
410 259 m 0
 410 177 452 162 480 162 c 0
 542 162 592 211 603 232 c 0
 610 245 662 462 662 468 c 0
 662 494 629 533 580 533 c 0
 476 533 411 363 410 259 c 0
EndSplineSet
EndChar

StartChar: A
Encoding: 65 65 74
Width: 865
Flags: HW
TeX: 690 0
HStem: 0 58<76.8429 193.423 247 329.605> 3 45<470.373 572 709.017 801.909> 189 48<356 552> 685 20G<597 626>
DStem2: 200 90 247 58 0.520685 0.853749<-2.60019 150.127 206.728 526.235> 644 667 522 510 0.108839 -0.994059<142.789 417.432 465.8 602.34>
AnchorPoint: "ogonek" 657 0 basechar 0
AnchorPoint: "below" 431 0 basechar 0
AnchorPoint: "above" 611 708 basechar 0
LayerCount: 2
Fore
SplineSet
72 20 m 0
 72 64 131 38 173 60 c 0
 185 67 193 78 200 90 c 2
 558 677 l 2
 574 703 584 705 610 705 c 0
 642 705 641 692 644 667 c 2
 704 119 l 2
 712 44 706 50 736 48 c 1
 773 48 l 2x70
 788 48 802 46 802 27 c 0
 802 17 799 0 775 0 c 0xb0
 763 0 727 3 656 3 c 2x70
 626 3 l 2x70
 547 3 507 0 494 0 c 0xb0
 476 0 470 10 470 21 c 0
 470 33 475 48 501 48 c 2
 509 48 l 2x70
 540 48 560 51 572 53 c 1
 558 189 l 1
 326 189 l 1
 247 58 l 1
 301 41 331 58 331 27 c 0
 331 15 324 0 304 0 c 0xb0
 292 0 257 3 188 3 c 0
 133 3 105 1 96 1 c 0
 75 1 72 12 72 20 c 0
356 237 m 1x30
 552 237 l 1
 522 510 l 1
 356 237 l 1x30
EndSplineSet
EndChar

StartChar: B
Encoding: 66 66 75
Width: 816
Flags: HW
TeX: 690 0
ItalicCorrection: 99
HStem: -0 48<65.5257 179.385 305 551.924> 339 36<387 598.104> 638 48<225.284 326 452 676.75>
VStem: 642 136<150.524 294.833> 697 133<473.555 617.961>
DStem2: 166.996 -0 292.747 -0 0.242599 0.970127<81.0158 380.062 417.17 655.575>
AnchorPoint: "below" 366 0 basechar 0
AnchorPoint: "above" 543 708 basechar 0
LayerCount: 2
Fore
SplineSet
65 20 m 0
 65 46 86 48 94 48 c 2
 114 48 l 2
 147 48 167 49 180 52 c 1
 326 636 l 1
 308 638 289 638 271 638 c 2
 251 638 l 2
 236 638 225 643 225 659 c 0
 225 673 230 686 255 686 c 2
 618 686 l 2
 657 686 697 684 734 672 c 0
 777 658 830 624 830 551 c 0xe8
 830 480 776 404 679 372 c 0
 662 366 644 362 626 358 c 1
 714 350 778 305 778 225 c 0
 778 136 696 17 529 2 c 0
 512 0 494 0 477 -0 c 2
 92 -0 l 2
 77 0 65 4 65 20 c 0
305 49 m 1
 316 48 329 48 340 48 c 2
 462 48 l 2
 503 48 532 53 564 77 c 0
 616 115 642 187 642 246 c 0xf0
 642 339 575 339 549 339 c 2
 378 339 l 1
 305 49 l 1
387 375 m 1
 519 375 l 2
 662 375 697 504 697 557 c 0xe8
 697 622 657 638 611 638 c 2
 497 638 l 2
 482 638 467 639 452 637 c 1
 387 375 l 1
EndSplineSet
EndChar

StartChar: C
Encoding: 67 67 76
Width: 826
Flags: HW
TeX: 690 0
ItalicCorrection: 142
HStem: -22 48<380.726 573.155> 660 48<534.173 721.133>
VStem: 161 135<129.399 333.857> 785 64<426.254 488.021>
AnchorPoint: "below" 461 0 basechar 0
AnchorPoint: "above" 631 708 basechar 0
LayerCount: 2
Fore
SplineSet
161 243 m 0
 161 450 327 708 631 708 c 0
 696 708 750 687 794 640 c 1
 858 688 871 708 890 708 c 0
 897 708 908 705 908 692 c 0
 908 687 908 687 849 450 c 0
 844 431 841 426 820 426 c 2
 813 426 l 2
 790 426 785 430 785 444 c 0
 785 454 788 468 788 489 c 0
 788 556 759 660 644 660 c 0
 610 660 485 653 398 533 c 0
 330 438 296 260 296 198 c 0
 296 60 401 26 480 26 c 0
 506 26 594 30 674 120 c 0
 753 210 720 248 762 248 c 2
 768 248 l 2
 788 248 793 241 793 232 c 0
 793 227 791 220 789 213 c 0
 743 71 595 -22 455 -22 c 0
 331 -22 161 31 161 243 c 0
EndSplineSet
EndChar

StartChar: D
Encoding: 68 68 77
Width: 875
Flags: HW
TeX: 690 0
ItalicCorrection: 90
HStem: -0 48<65.548 179.385 311 545.682> 638 48<225.368 326 458.703 682.838>
VStem: 755 129<346.364 556.8>
DStem2: 166.996 -0 298.747 -0 0.242599 0.970127<82.4714 655.575>
AnchorPoint: "below" 395 0 basechar 0
AnchorPoint: "above" 572 708 basechar 0
LayerCount: 2
Fore
SplineSet
65 20 m 0
 65 46 86 48 94 48 c 2
 114 48 l 2
 147 48 167 49 180 52 c 1
 326 636 l 1
 307 638 286 638 267 638 c 2
 250 638 l 2
 231 638 225 648 225 659 c 0
 225 685 246 686 254 686 c 2
 620 686 l 2
 831 686 884 559 884 447 c 0
 884 264 754 0 453 -0 c 2
 93 -0 l 2
 81 0 65 2 65 20 c 0
311 49 m 1
 324 48 336 48 349 48 c 0
 375 48 401 48 427 48 c 0
 468 48 581 50 658 154 c 0
 721 240 755 436 755 484 c 0
 755 608 668 638 572 638 c 2
 504 638 l 2
 488 638 473 639 458 637 c 1
 311 49 l 1
EndSplineSet
EndChar

StartChar: E
Encoding: 69 69 78
Width: 756
Flags: HW
TeX: 690 0
ItalicCorrection: 114
HStem: 0 48<65.5257 179.385 317 561.405> 329 48<399 502.388> 633 47<223.336 324 462.75 696.691>
VStem: 497 65<216.145 287.97> 725 78<461.926 605.227>
DStem2: 166.996 0 304.747 0 0.242599 0.970127<83.927 372.544 422.022 649.269>
AnchorPoint: "ogonek" 376 0 basechar 0
AnchorPoint: "below" 376 0 basechar 0
AnchorPoint: "above" 553 708 basechar 0
LayerCount: 2
Fore
SplineSet
65 20 m 0
 65 46 86 48 94 48 c 2
 114 48 l 2
 147 48 167 49 180 52 c 1
 324 630 l 1
 306 632 288 633 270 633 c 2
 250 633 l 2
 235 633 223 636 223 653 c 0
 223 666 228 680 252 680 c 2
 775 680 l 2
 791 680 803 676 803 658 c 0
 803 652 789 532 782 469 c 0
 780 449 776 438 752 438 c 0
 731 438 725 446 725 462 c 0
 725 477 730 498 730 527 c 0
 730 620 679 633 580 633 c 2
 510 633 l 2
 494 633 478 633 462 631 c 1
 399 377 l 1
 433 377 l 2
 468 377 498 378 521 400 c 0
 564 441 540 494 585 494 c 0
 599 494 612 488 612 472 c 0
 612 465 608 456 562 270 c 0
 552 229 553 213 524 213 c 0
 503 213 497 220 497 232 c 0
 497 246 506 267 506 289 c 0
 506 329 470 329 426 329 c 2
 387 329 l 1
 317 49 l 1
 330 48 342 48 355 48 c 2
 420 48 l 2
 467 48 526 48 579 79 c 0
 641 115 670 185 700 253 c 0
 707 269 712 275 733 275 c 0
 753 275 758 263 758 256 c 0
 758 247 748 228 661 22 c 0
 653 4 648 0 628 0 c 2
 94 0 l 2
 82 0 65 0 65 20 c 0
EndSplineSet
EndChar

StartChar: F
Encoding: 70 70 79
Width: 727
Flags: HW
TeX: 690 0
ItalicCorrection: 128
HStem: 0 48<64.5306 179 316 444.497> 317 47<395 492.305> 633 47<222.369 323 461 683.423>
VStem: 488 65<203.587 275.923> 710 78<469.019 606.284>
DStem2: 165.996 0 303.497 0 0.242599 0.970127<84.8971 360.175 408.682 649.269>
AnchorPoint: "below" 354 0 basechar 0
AnchorPoint: "above" 531 708 basechar 0
LayerCount: 2
Fore
SplineSet
64 20 m 0
 64 29 67 47 92 48 c 1
 109 48 l 2
 144 48 165 49 179 52 c 1
 323 630 l 1
 305 632 287 633 269 633 c 2
 249 633 l 2
 234 633 222 637 222 653 c 0
 222 679 243 681 253 681 c 0
 256 681 260 680 263 680 c 2
 760 680 l 2
 776 680 788 676 788 658 c 0
 788 652 773 532 766 469 c 0
 764 449 760 438 736 438 c 0
 715 438 710 446 710 462 c 0
 710 477 714 500 714 530 c 0
 714 621 663 633 570 633 c 2
 509 633 l 2
 493 633 477 633 461 631 c 1
 395 364 l 1
 426 364 l 2
 461 364 491 366 513 388 c 0
 555 430 531 481 575 481 c 0
 586 481 602 477 602 460 c 0
 602 453 600 445 553 258 c 0
 543 219 543 200 515 200 c 0
 493 200 488 207 488 219 c 0
 488 233 496 254 496 277 c 0
 496 315 465 317 420 317 c 2
 383 317 l 1
 316 50 l 1
 341 48 365 48 390 48 c 2
 415 48 l 2
 425 48 445 47 445 28 c 0
 445 15 439 0 417 0 c 0
 401 0 321 3 258 3 c 0
 138 3 106 0 91 0 c 0
 78 0 64 2 64 20 c 0
EndSplineSet
EndChar

StartChar: G
Encoding: 71 71 80
Width: 895
Flags: HW
TeX: 690 0
ItalicCorrection: 73
HStem: -22 48<382.454 566.744> 227 48<529.453 655 788.006 871.474> 660 48<536.088 721.321>
VStem: 161 136<130.467 335.203>
AnchorPoint: "below" 461 0 basechar 0
AnchorPoint: "above" 631 708 basechar 0
LayerCount: 2
Fore
SplineSet
161 241 m 0
 161 454 331 708 631 708 c 0
 696 708 751 687 794 640 c 1
 858 688 871 708 890 708 c 0
 897 708 908 705 908 692 c 0
 908 687 908 687 849 450 c 0
 844 431 841 426 820 426 c 2
 809 426 l 2
 799 426 785 427 785 444 c 0
 785 453 788 465 788 488 c 0
 788 557 759 660 644 660 c 0
 565 660 478 627 417 556 c 0
 326 451 297 250 297 200 c 0
 297 54 412 26 485 26 c 0
 569 26 612 80 624 107 c 0
 629 118 631 130 655 225 c 1
 631 227 592 227 576 227 c 2
 557 227 l 2
 547 227 529 228 529 248 c 0
 529 259 534 275 558 275 c 0
 575 275 593 273 732 273 c 2
 760 273 l 2
 775 273 790 273 834 274 c 0
 840 274 846 275 850 275 c 0
 863 275 872 270 872 255 c 0
 872 229 851 227 842 227 c 2
 829 227 l 2
 819 227 806 227 792 224 c 1
 787 203 747 39 741 19 c 0
 737 6 732 2 725 2 c 0
 713 2 671 28 651 47 c 1
 650 47 l 1
 596 -5 519 -22 455 -22 c 0
 334 -22 161 30 161 241 c 0
EndSplineSet
EndChar

StartChar: H
Encoding: 72 72 81
Width: 896
Flags: HW
TeX: 690 0
ItalicCorrection: 172
HStem: 0 48<64.5161 180 316 417.627 487.656 603 740 840.627> 333 48<399 673> 638 48<224.309 325 459.001 576.643 647.502 748 880.763 1000.28>
DStem2: 166.996 0 303.497 0 0.242599 0.970127<84.6545 376.425 425.902 655.332> 589.996 0 727.497 0 0.242599 0.970127<84.8971 343.189 392.666 654.385>
AnchorPoint: "below" 446 0 basechar 0
AnchorPoint: "above" 623 708 basechar 0
LayerCount: 2
Fore
SplineSet
64 20 m 0
 64 45 82 48 93 48 c 2
 110 48 l 2
 145 48 167 49 180 52 c 1
 325 636 l 1
 307 638 288 638 270 638 c 2
 251 638 l 2
 236 638 224 643 224 659 c 0
 224 669 227 686 252 686 c 0
 267 686 310 683 398 683 c 0
 505 683 535 686 550 686 c 0
 563 686 577 683 577 665 c 0
 577 654 573 639 549 638 c 1
 531 638 l 2
 468 638 464 638 459 619 c 2
 399 381 l 1
 685 381 l 1
 748 636 l 1
 730 638 711 638 693 638 c 2
 673 638 l 2
 658 638 647 643 647 659 c 0
 647 668 651 686 676 686 c 0
 691 686 735 683 825 683 c 0
 934 683 961 686 974 686 c 0
 991 686 1001 679 1001 666 c 0
 1001 659 998 639 973 638 c 1
 948 638 l 2
 880 638 886 637 877 601 c 2
 740 50 l 1
 759 48 779 48 798 48 c 2
 817 48 l 2
 835 48 841 38 841 27 c 0
 841 17 837 0 812 0 c 2
 811 0 l 1
 746 2 712 3 661 3 c 0
 603 3 573 0 515 0 c 0
 494 0 487 10 487 20 c 0
 487 26 489 47 516 48 c 1
 533 48 l 2
 568 48 590 49 603 52 c 1
 673 333 l 1
 387 333 l 1
 316 50 l 1
 335 48 356 48 375 48 c 2
 394 48 l 2
 412 48 418 38 418 27 c 0
 418 17 414 0 389 0 c 2
 388 0 l 1
 323 2 289 3 238 3 c 0
 180 3 150 2 92 0 c 0
 79 0 64 3 64 20 c 0
EndSplineSet
EndChar

StartChar: I
Encoding: 73 73 82
Width: 472
Flags: HW
TeX: 690 0
ItalicCorrection: 156
HStem: 0 48<59.5449 180 317 423.083> 638 48<219.432 325 462 582.568>
DStem2: 166.996 0 304.497 0 0.242599 0.970127<84.8971 655.332>
AnchorPoint: "ogonek" 235 0 basechar 0
AnchorPoint: "below" 235 0 basechar 0
AnchorPoint: "above" 412 708 basechar 0
LayerCount: 2
Fore
SplineSet
59 20 m 0
 59 30 63 47 88 48 c 1
 105 48 l 2
 142 48 166 49 180 52 c 1
 325 636 l 1
 305 637 284 638 264 638 c 2
 245 638 l 2
 226 638 219 648 219 659 c 0
 219 665 221 686 247 686 c 0
 253 686 259 685 265 685 c 0
 317 684 343 683 395 683 c 0
 494 683 543 686 559 686 c 0
 580 686 583 673 583 666 c 0
 583 642 566 638 552 638 c 2
 533 638 l 2
 498 638 476 636 462 633 c 1
 317 50 l 1
 337 49 358 48 378 48 c 2
 397 48 l 2
 417 48 424 38 424 28 c 0
 424 25 422 0 396 0 c 0
 380 0 333 3 239 3 c 0
 132 3 101 0 86 0 c 0
 71 0 59 4 59 20 c 0
EndSplineSet
EndChar

StartChar: J
Encoding: 74 74 83
Width: 610
Flags: HW
TeX: 690 0
ItalicCorrection: 144
HStem: -22 37<162.339 277.636> 638 48<336.42 469 601 688.381>
VStem: 70 152<72.9615 154.125>
DStem2: 304.986 -22 436.986 -22 0.242599 0.970127<115.49 678.133>
AnchorPoint: "below" 284 0 basechar 0
AnchorPoint: "above" 553 708 basechar 0
LayerCount: 2
Fore
SplineSet
70 91 m 0
 70 148 112 188 160 188 c 0
 196 188 222 165 222 130 c 0
 222 100 203 55 150 43 c 1
 169 26 194 15 221 15 c 0
 328 15 354 173 357 186 c 2
 469 636 l 1
 430 639 390 638 369 638 c 2
 365 638 l 2
 352 638 336 638 336 658 c 0
 336 672 341 686 365 686 c 0
 369 686 458 683 506 683 c 0
 524 683 542 683 560 683 c 0
 623 683 654 686 665 686 c 0
 676 686 689 682 689 666 c 0
 689 658 686 639 662 638 c 1
 648 638 l 2
 632 638 617 638 601 635 c 1
 486 174 l 2
 474 127 467 92 425 51 c 0
 371 -3 293 -22 228 -22 c 0
 131 -22 70 25 70 91 c 0
EndSplineSet
EndChar

StartChar: K
Encoding: 75 75 84
Width: 895
Flags: HW
TeX: 690 0
ItalicCorrection: 142
HStem: 0 55<515.632 601> 0 48<65.548 180 317 418.472 740.139 824.443> 630 56<710.742 782> 638 48<225.387 326 459.002 577.461 849.496 969.527>
DStem2: 166.996 0 304.497 0 0.242599 0.970127<84.8971 322.856 374.485 655.575> 387 331 384 267 0.798427 0.602092<0 74.8689 206.536 495.404> 585 419 477 336 0.40372 -0.914882<32.3334 339.477>
AnchorPoint: "below" 439 0 basechar 0
AnchorPoint: "above" 616 708 basechar 0
LayerCount: 2
Fore
SplineSet
65 20 m 0
 65 30 68 47 93 48 c 1
 110 48 l 2
 145 48 166 49 180 52 c 1
 326 636 l 1
 308 638 289 638 271 638 c 2
 252 638 l 2
 236 638 225 643 225 659 c 0
 225 669 229 686 253 686 c 0
 267 686 310 683 397 683 c 0
 513 683 538 686 551 686 c 0
 567 686 578 681 578 666 c 0
 578 657 575 639 549 638 c 1
 535 638 l 2x50
 463 638 464 636 459 616 c 2
 387 331 l 1
 782 630 l 1
 737 643 710 630 710 659 c 0
 710 671 714 686 738 686 c 0x20
 751 686 789 683 866 683 c 0
 897 683 921 685 938 685 c 0
 960 685 970 682 970 666 c 0
 970 636 944 638 941 638 c 0
 871 635 847 617 811 589 c 0
 631 453 608 435 585 419 c 1
 618 349 724 102 741 67 c 0
 750 49 771 48 789 48 c 2
 790 48 l 2
 809 48 825 48 825 28 c 0
 825 19 822 0 798 0 c 0x50
 786 0 751 3 681 3 c 0
 620 3 587 1 541 0 c 0
 531 0 513 2 513 19 c 0
 513 60 556 42 601 55 c 1x80
 477 336 l 1
 384 267 l 2
 363 251 372 270 317 50 c 1
 336 48 356 48 375 48 c 2x40
 394 48 l 2
 412 48 419 38 419 27 c 0
 419 21 416 0 392 0 c 0
 377 0 331 3 239 3 c 0
 181 3 137 1 93 0 c 0
 81 0 65 1 65 20 c 0
EndSplineSet
EndChar

StartChar: L
Encoding: 76 76 85
Width: 698
Flags: HW
TeX: 690 0
HStem: 0 48<64.5257 178.385 316 491.004> 638 48<224.466 325 462 603.474>
DStem2: 165.996 0 303.747 0 0.242599 0.970127<83.927 655.575>
AnchorPoint: "below" 339 0 basechar 0
AnchorPoint: "above" 516 708 basechar 0
LayerCount: 2
Fore
SplineSet
64 20 m 0
 64 47 85 48 93 48 c 2
 113 48 l 2
 146 48 166 49 179 52 c 1
 325 636 l 1
 306 638 286 638 267 638 c 2
 249 638 l 2
 230 638 224 648 224 659 c 0
 224 665 226 686 251 686 c 0
 256 686 261 685 266 685 c 0
 298 684 315 683 427 683 c 0
 518 683 564 686 579 686 c 0
 598 686 604 676 604 666 c 0
 604 641 583 638 574 638 c 2
 554 638 l 2
 508 638 480 637 462 633 c 1
 316 49 l 1
 328 48 340 48 352 48 c 2
 389 48 l 2
 533 48 588 149 627 253 c 0
 633 269 640 275 656 275 c 0
 671 275 684 271 684 255 c 0
 684 246 685 252 601 22 c 0
 594 4 589 0 570 0 c 2
 88 0 l 1
 68 1 64 12 64 20 c 0
EndSplineSet
EndChar

StartChar: M
Encoding: 77 77 86
Width: 1073
Flags: HW
TeX: 690 0
ItalicCorrection: 172
HStem: 0 48<64.6813 179.258 244.94 343.123 680.692 796 916 1017.61> 638 48<224.368 325 1058.06 1176.58>
DStem2: 166.238 0 229.496 0 0.242599 0.970127<74.4158 642.908> 489 655 382 609 0.154536 -0.987987<28.9121 521.331> 570 140 545 25 0.549825 0.83528<0 604.391> 782.996 0 903.497 0 0.242599 0.970127<80.7729 641.022>
AnchorPoint: "below" 534 0 basechar 0
AnchorPoint: "above" 711 708 basechar 0
LayerCount: 2
Fore
SplineSet
64 20 m 0
 64 31 70 45 83 47 c 0
 97 50 165 46 180 65 c 0
 186 73 193 108 210 175 c 2
 301 540 l 2
 309 572 318 604 325 636 c 1
 307 638 288 638 270 638 c 2
 251 638 l 2
 235 638 224 643 224 659 c 0
 224 685 245 686 253 686 c 2
 453 686 l 2
 474 686 485 683 489 655 c 2
 562 191 l 2
 565 174 566 157 570 140 c 1
 604 191 l 1
 909 655 l 2
 926 682 936 686 959 686 c 2
 1150 686 l 2
 1165 686 1177 682 1177 666 c 0
 1177 640 1161 638 1139 638 c 2
 1127 638 l 2
 1069 638 1064 638 1059 620 c 2
 1044 562 l 1
 916 50 l 1
 935 48 955 48 974 48 c 2
 993 48 l 2
 1011 48 1018 38 1018 27 c 0
 1018 2 996 0 989 0 c 2
 987 0 l 1
 971 1 924 3 829 3 c 0
 776 3 747 1 707 1 c 0
 686 1 680 10 680 20 c 0
 680 26 682 47 709 48 c 1
 726 48 l 2
 761 48 783 49 796 52 c 1
 938 622 l 1
 937 622 l 1
 919 593 l 1
 545 25 l 2
 534 9 522 0 503 0 c 0
 475 0 474 22 471 40 c 2
 391 551 l 2
 388 570 384 590 382 609 c 1
 381 609 l 1
 244 58 l 1
 264 50 288 48 314 48 c 2
 315 48 l 2
 336 48 344 39 344 28 c 0
 344 24 341 0 315 0 c 0
 304 0 270 3 202 3 c 0
 135 3 100 0 89 0 c 0
 76 0 64 5 64 20 c 0
EndSplineSet
EndChar

StartChar: N
Encoding: 78 78 87
Width: 896
Flags: HW
TeX: 690 0
ItalicCorrection: 172
HStem: 0 48<64.6813 183.161 244.94 342.548> 638 48<224.368 326 722.382 820.105 882.143 1000.45>
DStem2: 166.706 0 229.209 0 0.242599 0.970127<74.2202 616.116> 480 664 375 583 0.458562 -0.888662<23.8326 514.339> 664.236 0 726.998 0 0.242599 0.970127<213.374 648.15>
AnchorPoint: "below" 446 0 basechar 0
AnchorPoint: "above" 623 708 basechar 0
LayerCount: 2
Fore
SplineSet
64 20 m 0
 64 31 70 45 83 47 c 0
 97 50 165 46 180 65 c 0
 183 69 185 73 186 78 c 2
 326 637 l 1
 308 637 289 638 271 638 c 2
 251 638 l 2
 236 638 224 642 224 659 c 0
 224 685 245 686 253 686 c 2
 446 686 l 2
 465 686 470 683 480 664 c 2
 716 207 l 1
 821 628 l 1
 802 636 777 638 751 638 c 0
 737 638 722 641 722 658 c 0
 722 686 741 686 758 686 c 0
 779 686 812 683 867 683 c 0
 912 683 943 685 964 685 c 0
 991 685 1001 682 1001 666 c 0
 1001 640 979 638 971 638 c 2
 969 638 l 1
 893 636 885 627 880 610 c 0
 875 592 871 573 866 555 c 2
 733 24 l 2
 727 3 720 0 700 0 c 2
 699 0 l 2
 679 0 675 3 665 21 c 2
 404 527 l 2
 394 546 386 565 375 583 c 1
 244 58 l 1
 264 50 288 48 314 48 c 2
 315 48 l 2
 330 48 343 45 343 27 c 0
 343 20 340 0 315 0 c 0
 301 0 274 3 198 3 c 0
 133 3 100 1 89 1 c 0
 76 1 64 5 64 20 c 0
EndSplineSet
EndChar

StartChar: O
Encoding: 79 79 88
Width: 855
Flags: HW
TeX: 690 0
ItalicCorrection: 90
HStem: -22 43<359.078 513.05> 667 41<511.47 669.282>
VStem: 159 137<113.588 334.823> 733 132<364.106 569.823>
AnchorPoint: "ogonek" 427 0 basechar 0
AnchorPoint: "below" 427 0 basechar 0
AnchorPoint: "above" 605 708 basechar 0
LayerCount: 2
Fore
SplineSet
159 226 m 0
 159 429 314 708 605 708 c 0
 715 708 865 658 865 457 c 0
 865 244 707 -22 421 -22 c 0
 310 -22 159 27 159 226 c 0
296 186 m 0
 296 50 378 21 432 21 c 0
 493 21 550 56 586 93 c 0
 700 210 733 458 733 506 c 0
 733 642 645 667 593 667 c 0
 566 667 486 659 417 573 c 0
 329 463 296 249 296 186 c 0
EndSplineSet
EndChar

StartChar: P
Encoding: 80 80 89
Width: 787
Flags: HW
TeX: 690 0
ItalicCorrection: 99
HStem: 0 48<64.5108 179 316 417.469> 301 42<384 595.481> 638 48<224.36 325 457.796 663.341>
VStem: 687 137<460.142 613.162>
DStem2: 165.996 0 303.497 0 0.242599 0.970127<84.8971 343.683 385.641 655.575>
AnchorPoint: "below" 350 0 basechar 0
AnchorPoint: "above" 527 708 basechar 0
LayerCount: 2
Fore
SplineSet
64 20 m 0
 64 30 67 47 92 48 c 1
 109 48 l 2
 144 48 165 49 179 52 c 1
 325 636 l 1
 307 638 288 638 270 638 c 2
 250 638 l 2
 234 638 224 643 224 659 c 0
 224 681 238 686 255 686 c 2
 615 686 l 2
 708 686 824 656 824 536 c 0
 824 444 748 327 580 305 c 0
 553 301 526 301 499 301 c 2
 379 301 l 1
 316 50 l 1
 335 48 355 48 374 48 c 2
 393 48 l 2
 411 48 418 38 418 27 c 0
 418 21 415 0 390 0 c 0
 375 0 329 3 238 3 c 0
 177 3 116 1 91 1 c 2
 88 1 l 2
 79 1 64 2 64 20 c 0
384 343 m 1
 484 343 l 2
 611 343 645 379 672 484 c 0
 684 532 687 549 687 565 c 0
 687 638 608 638 557 638 c 2
 507 638 l 2
 490 638 474 639 457 637 c 1
 384 343 l 1
EndSplineSet
EndChar

StartChar: Q
Encoding: 81 81 90
Width: 855
Flags: HW
TeX: 690 194
ItalicCorrection: 90
HStem: -194 144<594.581 665.872> -22 41<389.971 511.848> 119 36<414.767 502.058> 667 41<511.128 669.135>
VStem: 159 130<114.557 327.711> 350 37<42.8301 92.1406> 735 130<349.208 569.08>
AnchorPoint: "below" 378 -194 basechar 0
AnchorPoint: "above" 604 708 basechar 0
LayerCount: 2
Fore
SplineSet
159 226 m 0
 159 434 318 708 604 708 c 0
 715 708 865 658 865 457 c 0
 865 321 798 153 670 59 c 0
 641 38 609 20 576 7 c 1
 589 -28 602 -50 639 -50 c 0
 671 -50 710 -38 728 -10 c 0
 733 -3 735 7 742 13 c 0
 751 20 763 17 768 7 c 0
 769 6 769 4 769 1 c 0
 769 -36 711 -194 599 -194 c 0
 528 -194 509 -139 509 -78 c 0
 509 -56 512 -34 513 -12 c 1
 475 -19 454 -22 421 -22 c 0
 257 -22 159 71 159 226 c 0
289 186 m 0
 289 122 307 72 351 42 c 1
 351 45 350 47 350 50 c 0
 350 111 410 155 462 155 c 0
 521 155 545 109 559 64 c 1
 688 150 735 417 735 498 c 0
 735 637 650 667 594 667 c 0
 555 667 468 652 397 549 c 0
 325 444 289 255 289 186 c 0
387 52 m 0
 387 25 406 19 430 19 c 0
 463 19 491 27 516 38 c 1
 516 76 512 119 462 119 c 0
 417 119 387 80 387 52 c 0
EndSplineSet
EndChar

StartChar: R
Encoding: 82 82 91
Width: 859
Flags: HW
TeX: 690 0
ItalicCorrection: 25
HStem: -22 37<689.132 756.838> 0 48<65.4285 180 311 412.65> 325 36<389 540.408> 638 48<225.487 326 458.704 657.095>
VStem: 539 143<30.5288 197.418> 569 133<145.224 295.779> 686 139<461.776 605.534> 791 57<49.5406 116.512>
DStem2: 161.495 -22 292.995 -22 0.242599 0.970127<106.119 389.643 426.751 678.252>
AnchorPoint: "below" 350 0 basechar 0
AnchorPoint: "above" 527 708 basechar 0
LayerCount: 2
Fore
SplineSet
65 20 m 0
 65 33 70 48 93 48 c 2
 111 48 l 2x74
 146 48 167 49 180 52 c 1
 326 636 l 1
 308 638 289 638 271 638 c 2
 251 638 l 2
 232 638 225 646 225 658 c 0
 225 680 239 686 255 686 c 2
 565 686 l 2
 653 686 790 675 820 570 c 0
 823 559 825 547 825 535 c 0x72
 825 463 771 394 675 356 c 0
 658 349 640 344 622 339 c 1
 666 321 702 285 702 231 c 0x74
 702 196 682 114 682 70 c 0
 682 39 690 15 720 15 c 0
 752 15 777 50 791 95 c 0
 797 112 802 117 821 117 c 0
 822 117 823 117 824 117 c 0
 844 117 848 106 848 98 c 0
 848 80 810 -22 716 -22 c 0
 637 -22 539 1 539 94 c 0xb9
 539 135 569 209 569 246 c 0
 569 283 552 325 485 325 c 2
 380 325 l 1
 311 50 l 1
 330 48 351 48 370 48 c 2
 388 48 l 2
 406 48 413 38 413 27 c 0
 413 13 406 0 381 -0 c 0
 363 0 327 3 236 3 c 0
 131 3 104 0 91 0 c 0
 68 0 65 12 65 20 c 0
389 361 m 1
 475 361 l 2
 635 361 657 427 676 501 c 0
 681 521 686 542 686 562 c 0
 686 638 599 638 543 638 c 0x32
 530 638 517 638 504 638 c 0
 489 638 473 639 458 637 c 1
 389 361 l 1
EndSplineSet
EndChar

StartChar: S
Encoding: 83 83 92
Width: 650
Flags: HW
TeX: 690 0
ItalicCorrection: 112
HStem: -22 48<255.108 427.319> 665 43<387.827 544.093>
VStem: 87 103<-12.5 184.216> 208 108<442 550.382> 508 107<151.093 266.5> 596 106<500.237 697.5>
AnchorPoint: "below" 354 0 basechar 0
AnchorPoint: "above" 469 708 basechar 0
LayerCount: 2
Fore
SplineSet
87 -6 m 0
 87 1 121 134 139 204 c 0
 145 226 147 228 173 228 c 0
 192 228 197 223 197 212 c 0
 197 200 190 181 190 157 c 0
 190 52 284 26 352 26 c 0
 459 26 508 126 508 188 c 0
 508 328 305 248 231 372 c 0
 216 398 208 427 208 457 c 0
 208 560 297 708 469 708 c 0
 554 708 593 672 611 652 c 1
 657 694 669 708 684 708 c 0xf8
 693 708 702 703 702 692 c 0
 702 685 668 551 650 480 c 0
 644 458 637 458 623 458 c 2
 621 458 l 2
 598 458 593 462 593 475 c 0
 593 485 596 501 596 525 c 0xf4
 596 637 527 665 466 665 c 0
 361 665 316 574 316 520 c 0
 316 394 507 460 584 353 c 0
 608 320 615 282 615 251 c 0
 615 145 529 -22 348 -22 c 0
 246 -22 201 15 179 34 c 1
 129 -11 119 -22 105 -22 c 0
 98 -22 87 -19 87 -6 c 0
EndSplineSet
EndChar

StartChar: T
Encoding: 84 84 93
Width: 796
Flags: HW
TeX: 690 0
ItalicCorrection: 128
HStem: 0 48<181.527 346.315 479 624.594> 627 48<329.416 485 622.75 772.066>
VStem: 792 77<509.332 662>
DStem2: 328.494 0 466.246 0 0.242599 0.970127<85.989 645.267>
AnchorPoint: "below" 397 0 basechar 0
AnchorPoint: "above" 574 708 basechar 0
LayerCount: 2
Fore
SplineSet
181 20 m 0
 181 46 202 48 211 48 c 2
 243 48 l 2
 351 48 341 48 349 82 c 2
 472 575 l 2
 476 592 480 609 485 626 c 1
 473 627 459 627 447 627 c 2
 437 627 l 2
 324 627 291 599 241 460 c 0
 234 439 228 433 208 433 c 0
 189 433 182 441 182 452 c 0
 182 460 181 455 249 653 c 0
 256 672 263 675 281 675 c 2
 841 675 l 2
 857 675 869 671 869 653 c 0
 869 646 850 526 840 463 c 0
 837 443 835 433 810 433 c 0
 794 433 783 437 783 454 c 0
 783 466 792 506 792 547 c 0
 792 623 739 627 679 627 c 2
 670 627 l 2
 654 627 638 627 622 625 c 1
 479 51 l 1
 507 48 534 49 563 48 c 0
 574 48 585 48 596 48 c 0
 609 48 625 46 625 27 c 0
 625 17 621 0 596 0 c 0
 577 0 521 3 408 3 c 2
 357 3 l 2
 306 3 211 0 207 0 c 0
 193 0 181 4 181 20 c 0
EndSplineSet
EndChar

StartChar: U
Encoding: 85 85 94
Width: 881
Flags: HW
TeX: 690 0
ItalicCorrection: 172
HStem: -22 48<382.065 562.402> 638 48<223.539 325 458.116 576.438 706.539 805.059 866.8 984.463>
VStem: 216 128<79.7187 248.643>
DStem2: 160.481 -22 298.478 -22 0.242599 0.970127<201.276 678.256> 643.481 -22 706.731 -22 0.242599 0.970127<151.467 670.618>
AnchorPoint: "ogonek" 459 0 basechar 0
AnchorPoint: "below" 459 0 basechar 0
AnchorPoint: "above" 615 708 basechar 0
LayerCount: 2
Fore
SplineSet
216 170 m 0
 216 204 224 231 230 256 c 2
 297 525 l 1
 325 636 l 1
 306 638 285 638 266 638 c 2
 249 638 l 2
 230 638 223 648 223 659 c 0
 223 665 226 686 252 686 c 0
 258 686 263 685 269 685 c 0
 339 683 339 683 386 683 c 2
 399 683 l 2
 491 683 538 685 553 685 c 0
 571 685 577 676 577 666 c 0
 577 656 573 638 546 638 c 2
 531 638 l 2
 454 638 464 636 456 609 c 1
 378 296 l 2
 365 243 344 174 344 129 c 0
 344 46 407 26 461 26 c 0
 539 26 648 63 697 201 c 0
 703 218 708 235 712 252 c 2
 806 628 l 1
 786 636 761 638 735 638 c 0
 715 638 706 646 706 658 c 0
 706 668 710 686 734 686 c 0
 746 686 782 683 853 683 c 0
 918 683 940 685 962 685 c 0
 973 685 985 681 985 666 c 0
 985 655 981 638 956 638 c 0
 860 636 868 620 861 597 c 1
 774 247 l 2
 763 203 742 116 657 47 c 0
 622 18 555 -22 453 -22 c 0
 326 -22 216 36 216 170 c 0
EndSplineSet
EndChar

StartChar: V
Encoding: 86 86 95
Width: 865
Flags: HW
TeX: 690 0
ItalicCorrection: 186
HStem: -13 21G<407.5 442.5> 628 58<725.015 806 858.706 971.858> 638 48<218.516 307.256 445 545.666>
DStem2: 445 633 304 636 0.138904 -0.990306<0 469.66> 511 168 479 15 0.539877 0.841744<0 545.856>
AnchorPoint: "below" 432 0 basechar 0
AnchorPoint: "above" 608 708 basechar 0
LayerCount: 2
Fore
SplineSet
218 658 m 0
 218 670 223 686 247 686 c 0
 261 686 276 683 388 683 c 0
 469 683 509 686 522 686 c 0
 539 686 546 676 546 665 c 0
 546 642 528 638 514 638 c 2
 508 638 l 2xa0
 495 638 470 637 445 633 c 1
 511 168 l 1
 806 628 l 1
 758 645 723 630 723 659 c 0
 723 670 728 686 750 686 c 0
 761 686 795 683 863 683 c 0
 917 683 944 685 953 685 c 0
 965 685 976 682 976 666 c 0
 976 624 926 647 883 628 c 0
 869 621 859 608 851 595 c 2
 479 15 l 2
 464 -9 452 -13 433 -13 c 0xc0
 430 -13 427 -13 424 -13 c 0
 391 -13 393 7 389 30 c 2
 313 573 l 2
 310 594 308 615 304 636 c 1
 288 637 271 638 255 638 c 2
 246 638 l 2
 233 638 218 640 218 658 c 0
EndSplineSet
EndChar

StartChar: W
Encoding: 87 87 96
Width: 1160
Flags: HW
TeX: 690 0
ItalicCorrection: 186
HStem: -13 21G<370.5 398.5 749.5 774> 633 53<812 900.559 1019.52 1115 1165.92 1270.39> 638 48<217.644 296 436 537.693 594.452 674.779 814.102 914.291>
DStem2: 436 633 296 636 0.0948091 -0.995495<-0.760397 445.887> 478 189 434 15 0.510401 0.859936<0 331.439> 812 633 673 636 0.0938923 -0.995582<-1.02833 76.6875 172.822 445.982> 854 189 811 16 0.510332 0.859977<0 509.178>
AnchorPoint: "below" 579 0 basechar 0
AnchorPoint: "above" 756 708 basechar 0
LayerCount: 2
Fore
SplineSet
217 658 m 0
 217 669 222 686 246 686 c 0
 259 686 272 683 380 683 c 0
 460 683 501 686 514 686 c 0
 532 686 538 676 538 665 c 0
 538 651 532 638 507 638 c 2
 499 638 l 2xa0
 486 638 438 635 436 633 c 1xc0
 477 189 l 1
 478 189 l 1
 498 224 l 1
 673 519 l 2
 679 529 681 531 681 543 c 0
 681 556 678 580 673 636 c 1
 658 638 644 638 629 638 c 2
 622 638 l 2
 607 638 594 641 594 659 c 0
 594 668 598 686 623 686 c 0xa0
 636 686 649 683 756 683 c 0
 837 683 864 686 891 686 c 0
 909 686 915 676 915 666 c 0
 915 656 909 644 901 641 c 0
 892 637 857 641 812 633 c 1
 854 189 l 1
 1115 627 l 1
 1047 647 1019 628 1019 661 c 0
 1019 673 1026 686 1046 686 c 0xc0
 1058 686 1095 683 1169 683 c 0
 1217 683 1241 685 1249 685 c 0
 1260 685 1272 682 1272 666 c 0
 1272 626 1225 645 1188 629 c 0
 1172 622 1163 608 1154 594 c 2
 811 16 l 2
 796 -10 785 -13 763 -13 c 0
 736 -13 733 -2 731 21 c 2
 695 401 l 2
 694 417 692 432 691 448 c 1
 434 15 l 2
 419 -9 409 -13 388 -13 c 2
 386 -13 l 2
 355 -13 356 5 354 27 c 2
 302 579 l 2
 300 598 298 617 296 636 c 1
 281 638 267 638 252 638 c 2xa0
 245 638 l 2
 236 638 217 638 217 658 c 0
EndSplineSet
EndChar

StartChar: X
Encoding: 88 88 97
Width: 865
Flags: HW
TeX: 690 0
ItalicCorrection: 156
HStem: 0 59<270 353.126> 0 48<66.5257 201.212 477.461 566 711.002 809.481> 627 59<637.874 720> 638 48<240.227 339.447 484 571.534 789.366 923.474>
DStem2: 233 100 270 59 0.678337 0.734751<-4.74006 296.413 500.3 717.564> 484 632 340 615 0.372239 -0.928137<0 195.722 261.592 272.473 323.354 566.987>
AnchorPoint: "below" 432 0 basechar 0
AnchorPoint: "above" 609 708 basechar 0
LayerCount: 2
Fore
SplineSet
66 20 m 0
 66 46 87 48 95 48 c 2
 98 48 l 1
 187 51 198 62 233 100 c 2
 425 307 l 2
 434 317 443 328 452 337 c 1
 340 615 l 2
 328 643 330 636 264 638 c 0
 246 638 240 649 240 660 c 0
 240 667 242 686 267 686 c 0
 280 686 319 683 398 683 c 0
 488 683 532 686 547 686 c 0x50
 566 686 572 676 572 666 c 0
 572 630 534 639 484 632 c 1
 556 450 l 1
 720 627 l 1
 666 645 636 629 636 659 c 0
 636 671 642 686 665 686 c 0x20
 678 686 715 683 791 683 c 0
 856 683 889 685 900 685 c 0
 913 685 924 681 924 666 c 0
 924 639 903 638 895 638 c 2
 893 638 l 1
 804 636 789 620 763 593 c 0
 584 399 583 400 583 390 c 0
 583 387 584 383 586 378 c 2
 711 66 l 2
 718 51 717 48 773 48 c 2
 780 48 l 2
 795 48 810 46 810 27 c 0
 810 20 807 0 782 0 c 0
 771 0 717 3 673 3 c 2
 634 3 l 2
 590 3 559 0 503 0 c 0x50
 484 0 477 11 477 21 c 0
 477 57 517 45 566 54 c 1
 475 280 l 1
 270 59 l 1
 324 41 355 57 355 27 c 0x80
 355 14 349 0 326 0 c 0x80
 313 0 275 3 200 3 c 0
 147 3 116 1 97 1 c 0
 80 1 66 2 66 20 c 0
EndSplineSet
EndChar

StartChar: Y
Encoding: 89 89 98
Width: 865
Flags: HW
TeX: 690 0
ItalicCorrection: 197
HStem: 0 48<263.462 383.104 509 610.538> 630 56<727.375 800> 638 48<212.382 310.684 458.796 548.381 864.161 981.521>
DStem2: 458 634 312 613 0.340574 -0.940218<0 299.88> 560 352 578 289 0.652643 0.757666<0 365.968>
AnchorPoint: "below" 431 0 basechar 0
AnchorPoint: "above" 608 708 basechar 0
LayerCount: 2
Fore
SplineSet
212 659 m 0
 212 668 215 686 240 686 c 0
 267 686 268 683 375 683 c 2
 402 683 l 2
 469 683 503 686 521 686 c 0
 533 686 549 686 549 666 c 0
 549 658 546 639 522 638 c 1
 508 638 l 2xa0
 491 638 475 636 458 634 c 1
 560 352 l 1
 800 630 l 1
 756 644 726 629 726 661 c 0
 726 673 733 686 754 686 c 0xc0
 776 686 776 683 862 683 c 2
 878 683 l 2
 927 683 944 685 960 685 c 0
 977 685 982 674 982 666 c 0
 982 636 955 638 952 638 c 0
 883 636 868 625 839 592 c 2
 578 289 l 2
 561 269 569 291 509 50 c 1
 528 48 549 48 568 48 c 2xa0
 587 48 l 2
 605 48 611 38 611 27 c 0
 611 20 608 0 583 0 c 0
 578 0 573 1 567 1 c 0
 517 2 492 3 442 3 c 0
 350 3 302 0 287 0 c 0
 269 0 263 10 263 21 c 0
 263 28 266 47 291 48 c 1
 304 48 l 2
 386 48 378 50 385 77 c 0
 423 226 433 260 433 275 c 0
 433 281 431 284 429 290 c 2
 312 613 l 2
 302 638 307 638 248 638 c 2
 241 638 l 2
 227 638 212 640 212 659 c 0
EndSplineSet
EndChar

StartChar: Z
Encoding: 90 90 99
Width: 709
Flags: HW
TeX: 690 0
ItalicCorrection: 142
HStem: -0 52<259 496.216> 638 48<398.075 622>
VStem: 629 61<201.05 284.692>
DStem2: 115 59 259 52 0.658505 0.752577<89.5566 769.604>
AnchorPoint: "below" 357 0 basechar 0
AnchorPoint: "above" 534 708 basechar 0
LayerCount: 2
Fore
SplineSet
94 16 m 0
 94 34 104 47 115 59 c 2
 622 638 l 1
 530 638 l 2
 427 638 332 622 279 471 c 0
 272 450 269 444 248 444 c 2
 244 444 l 2
 235 444 221 449 221 464 c 0
 221 473 220 466 280 663 c 0
 286 680 291 686 308 686 c 2
 766 686 l 2
 776 686 785 683 785 670 c 0
 785 657 779 646 770 636 c 2
 259 52 l 1
 360 52 l 2
 499 52 574 85 629 253 c 0
 638 279 641 286 663 286 c 0
 682 286 690 279 690 266 c 0
 690 258 687 249 685 244 c 0
 608 0 617 0 584 -0 c 2
 118 -0 l 2
 109 0 94 0 94 16 c 0
EndSplineSet
EndChar

StartChar: bracketleft
Encoding: 91 91 100
Width: 356
Flags: HW
TeX: 742 249
ItalicCorrection: 187
HStem: -250 37<174 240.982> 713 37<405 481.988>
DStem2: 62.2453 -250 164.747 -250 0.242599 0.970127<63.4209 1017.38>
LayerCount: 2
Fore
SplineSet
69 -230 m 0
 69 -222 75 -199 79 -183 c 2
 305 719 l 2
 310 738 312 750 338 750 c 2
 455 750 l 2
 465 750 482 749 482 732 c 0
 482 725 479 714 458 713 c 1
 405 713 l 1
 174 -213 l 1
 218 -213 l 1
 235 -214 241 -222 241 -231 c 0
 241 -250 220 -250 215 -250 c 2
 96 -250 l 2
 81 -250 69 -247 69 -230 c 0
EndSplineSet
EndChar

StartChar: backslash
Encoding: 92 92 101
Width: 591
Flags: HW
TeX: 742 249
DStem2: 310 719 275 711 0.138439 -0.990371<-13.7569 955.877>
LayerCount: 2
Fore
SplineSet
273 728 m 0
 273 741 279 749 290 749 c 0
 306 749 308 732 310 719 c 2
 440 -211 l 2
 441 -216 442 -222 442 -228 c 0
 442 -240 435 -249 425 -249 c 0
 409 -249 406 -232 404 -219 c 2
 275 711 l 2
 274 716 273 722 273 728 c 0
EndSplineSet
EndChar

StartChar: bracketright
Encoding: 93 93 102
Width: 356
Flags: HW
TeX: 742 249
ItalicCorrection: 99
HStem: -250 37<-1.98476 75> 713 37<239.01 307>
DStem2: 66.1806 -250.009 167.683 -250.009 0.242599 0.970127<38.0431 992.006>
LayerCount: 2
Fore
SplineSet
-2 -232 m 0
 -2 -225 2 -213 23 -213 c 2
 75 -213 l 1
 307 713 l 1
 263 713 l 1
 246 714 239 723 239 731 c 0
 239 747 253 750 266 750 c 2
 385 750 l 2
 400 750 411 746 411 730 c 0
 411 722 405 699 401 683 c 2
 176 -219 l 2
 171 -240 170 -250 143 -250 c 2
 25 -250 l 2
 19 -250 -2 -251 -2 -232 c 0
EndSplineSet
EndChar

StartChar: asciicircum
Encoding: 94 94 103
Width: 709
Flags: HW
TeX: 690 0
ItalicCorrection: 66
HStem: 456 21G<277.5 294.5 648 664.5> 548 83<462.394 535.496>
LayerCount: 2
Fore
SplineSet
263 489 m 0
 263 505 281 512 296 520 c 0
 483 621 496 631 507 631 c 0
 518 631 517 630 669 516 c 0
 681 507 689 500 689 490 c 0
 689 478 671 456 658 456 c 0
 638 456 511 548 495 548 c 0
 482 548 302 456 287 456 c 0
 268 456 263 485 263 489 c 0
EndSplineSet
EndChar

StartChar: underscore
Encoding: 95 95 104
Width: 885
Flags: HW
TeX: 0 307
HStem: -308 61<51.6026 693.643>
LayerCount: 2
Fore
SplineSet
50 -278 m 0
 50 -270 54 -247 89 -247 c 2
 657 -247 l 2
 692 -247 695 -270 695 -278 c 0
 695 -290 689 -308 656 -308 c 2
 91 -308 l 2
 69 -308 50 -302 50 -278 c 0
EndSplineSet
EndChar

StartChar: quoteleft
Encoding: 8216 8216 105
Width: 355
Flags: HW
TeX: 690 0
ItalicCorrection: 129
HStem: 352 148<247.044 325.017> 673 20G<370 378>
VStem: 201 158<386.56 481.337>
LayerCount: 2
Fore
SplineSet
201 435 m 0
 201 490 239 598 342 676 c 0
 361 690 367 693 373 693 c 0
 383 693 390 682 390 675 c 0
 390 665 378 658 373 654 c 0
 316 613 271 556 246 483 c 1
 260 491 277 500 298 500 c 0
 333 500 359 479 359 442 c 0
 359 400 321 352 269 352 c 0
 222 352 201 392 201 435 c 0
EndSplineSet
EndChar

StartChar: a
Encoding: 97 97 106
Width: 591
Flags: HW
TeX: 444 0
ItalicCorrection: 94
HStem: -11 37<228.646 327.446 486.328 529.173> 419 37<322.426 421.226>
VStem: 104 108<61.3615 218.657> 446 116<297.935 398.468> 565 58<74.543 161.759>
AnchorPoint: "ogonek" 501 0 basechar 0
AnchorPoint: "affricate-below" 542 -194 basechar 0
AnchorPoint: "affricate-above" 765 694 basechar 0
AnchorPoint: "below" 260 0 basechar 0
AnchorPoint: "above" 374 456 basechar 0
LayerCount: 2
Fore
SplineSet
104 150 m 0
 104 293 212 456 374 456 c 0
 413 456 444 443 472 416 c 1
 486 428 499 435 517 435 c 0
 539 435 562 422 562 393 c 0
 562 366 485 99 485 57 c 0
 485 31 496 26 504 26 c 0
 538 26 557 106 565 138 c 0
 569 156 572 162 593 162 c 2
 597 162 l 2
 610 162 623 161 623 145 c 1
 623 145 597 -11 498 -11 c 0
 464 -11 422 2 396 41 c 1
 365 15 322 -11 264 -11 c 0
 181 -11 104 37 104 150 c 0
212 97 m 0
 212 40 246 26 269 26 c 0
 326 26 373 79 382 97 c 0
 385 102 446 346 446 354 c 0
 446 369 427 419 374 419 c 0
 337 419 303 391 282 357 c 0
 249 301 212 146 212 97 c 0
EndSplineSet
EndChar

StartChar: b
Encoding: 98 98 107
Width: 532
Flags: HW
TeX: 690 0
ItalicCorrection: 78
HStem: -11 37<225.843 319.656> 419 37<314.796 413.539> 674 20G<246.5 325.5>
VStem: 111 96<57.6525 227.261> 430 108<225.023 383.567>
DStem2: 61.482 -11 170.225 -11 0.242599 0.970127<166.974 439.372 477.685 667.099>
AnchorPoint: "affricate-below" 483 -194 basechar 0
AnchorPoint: "affricate-above" 706 694 basechar 0
AnchorPoint: "below" 268 0 basechar 0
AnchorPoint: "above" 442 694 basechar 0
LayerCount: 2
Fore
SplineSet
111 147 m 0
 111 184 118 217 126 247 c 2
 195 520 l 2
 205 559 215 597 224 636 c 1
 186 640 155 631 155 659 c 0
 155 693 185 687 308 694 c 1
 316 694 l 2
 335 694 339 686 339 675 c 0
 339 669 338 662 336 656 c 2
 279 427 l 1
 306 442 338 456 378 456 c 0
 441 456 538 424 538 295 c 0
 538 161 438 -11 266 -11 c 0
 176 -11 111 43 111 147 c 0
207 103 m 0
 207 41 243 26 268 26 c 0
 308 26 343 60 359 86 c 0
 395 144 430 302 430 348 c 0
 430 405 396 419 373 419 c 0
 317 419 269 366 260 348 c 0
 259 345 207 162 207 103 c 0
EndSplineSet
EndChar

StartChar: c
Encoding: 99 99 108
Width: 532
Flags: HW
TeX: 444 0
ItalicCorrection: 52
HStem: -11 36<245.22 393.265> 419 37<337.933 455.225>
VStem: 106 110<70.5721 238.528> 409 121<304.5 377.849>
AnchorPoint: "affricate-below" 483 -194 basechar 0
AnchorPoint: "affricate-above" 706 694 basechar 0
AnchorPoint: "below" 302 0 basechar 0
AnchorPoint: "above" 403 456 basechar 0
LayerCount: 2
Fore
SplineSet
106 159 m 0
 106 300 220 456 403 456 c 0
 478 456 530 417 530 360 c 0
 530 316 497 282 458 282 c 0
 431 282 409 300 409 328 c 0
 409 348 421 384 461 396 c 1
 448 409 432 419 403 419 c 0
 393 419 347 418 304 375 c 0
 234 305 216 126 216 113 c 0
 216 54 249 25 302 25 c 0
 359 25 428 47 478 96 c 0
 495 113 498 116 505 116 c 0
 517 116 534 96 534 86 c 0
 534 68 464 -11 299 -11 c 0
 181 -11 106 49 106 159 c 0
EndSplineSet
EndChar

StartChar: d
Encoding: 100 100 109
Width: 591
Flags: HW
TeX: 690 0
ItalicCorrection: 108
HStem: -11 37<228.638 327.428 486.585 528.88> 419 37<322.426 421.78> 674 20G<607 615>
VStem: 104 108<61.4326 218.657> 565 58<77.4506 161.892>
DStem2: 355.47 -11 463.203 -11 0.242599 0.970127<96.3671 375.519 447.364 666.859>
AnchorPoint: "affricate-below" 542 -194 basechar 0
AnchorPoint: "affricate-above" 765 694 basechar 0
AnchorPoint: "below" 322 0 basechar 0
AnchorPoint: "above" 435 694 basechar 0
LayerCount: 2
Fore
SplineSet
104 150 m 0
 104 293 212 456 374 456 c 0
 410 456 435 446 464 423 c 1
 517 636 l 1
 478 640 450 631 450 659 c 0
 450 694 480 686 596 693 c 0
 600 693 605 694 609 694 c 0
 621 694 633 690 633 674 c 0
 633 669 632 664 631 660 c 2
 497 123 l 2
 491 101 485 75 485 55 c 0
 485 38 490 26 504 26 c 0
 538 26 558 112 565 138 c 1
 570 161 579 162 591 162 c 2
 597 162 l 2
 617 162 623 156 623 147 c 0
 623 143 596 -11 499 -11 c 0
 464 -11 422 2 396 41 c 1
 358 10 317 -11 264 -11 c 0
 202 -11 104 21 104 150 c 0
212 97 m 0
 212 40 246 26 269 26 c 0
 326 26 373 79 382 97 c 0
 385 103 446 346 446 354 c 0
 446 376 422 419 374 419 c 0
 337 419 303 391 282 357 c 0
 249 301 212 146 212 97 c 0
EndSplineSet
EndChar

StartChar: e
Encoding: 101 101 110
Width: 532
Flags: HW
TeX: 444 0
ItalicCorrection: 84
HStem: -11 36<246.254 389.494> 218 36<243 387.178> 419 37<337.09 449.368>
VStem: 108 109<73.4492 215.246> 466 66<303.806 405.216>
AnchorPoint: "ogonek" 302 0 basechar 0
AnchorPoint: "affricate-below" 483 -194 basechar 0
AnchorPoint: "affricate-above" 706 694 basechar 0
AnchorPoint: "below" 302 0 basechar 0
AnchorPoint: "above" 402 456 basechar 0
LayerCount: 2
Fore
SplineSet
108 164 m 0
 108 317 226 456 402 456 c 0
 479 456 532 417 532 358 c 0
 532 344 528 298 481 263 c 0
 447 238 396 218 255 218 c 2
 233 218 l 1
 228 196 217 154 217 117 c 0
 217 56 249 25 302 25 c 0
 332 25 411 34 474 93 c 0
 491 109 495 116 504 116 c 0
 516 116 534 97 534 86 c 0
 534 68 465 -11 299 -11 c 0
 181 -11 108 53 108 164 c 0
243 254 m 1
 362 254 466 275 466 359 c 0
 466 396 439 419 402 419 c 0
 370 419 278 405 243 254 c 1
EndSplineSet
EndChar

StartChar: f
Encoding: 102 102 111
Width: 400
Flags: HW
TeX: 690 194
ItalicCorrection: 217
HStem: -206 37<58.6684 119.807> 397 47<119.405 236 351 486.631> 668 38<396.003 459.27>
VStem: -19 121<-144.922 -70.9501> 417 120<570.414 642.729>
DStem2: 188 136 265 -3 0.191725 0.981449<-241.999 265.361 333.759 535.252>
AnchorPoint: "affricate-below" 351 -194 basechar 0
AnchorPoint: "affricate-above" 574 694 basechar 0
AnchorPoint: "above" 402 694 basechar 0
AnchorPoint: "below" 119 -194 basechar 0
LayerCount: 2
Fore
SplineSet
-19 -123 m 0
 -19 -82 14 -49 53 -49 c 0
 81 -49 102 -67 102 -95 c 0
 102 -111 95 -143 58 -160 c 1
 68 -164 78 -169 89 -169 c 0
 133 -169 144 -104 188 136 c 2
 236 397 l 1
 151 397 l 2
 150 397 149 396 147 396 c 0
 135 396 119 398 119 417 c 0
 119 443 140 444 149 444 c 2
 244 444 l 1
 245 445 l 1
 266 587 286 623 302 645 c 0
 330 684 379 706 425 706 c 0
 489 706 537 672 537 623 c 0
 537 575 498 549 466 549 c 0
 438 549 417 567 417 595 c 0
 417 611 424 641 460 659 c 1
 448 665 438 668 429 668 c 0
 407 668 396 652 391 642 c 0
 383 624 351 446 351 444 c 1
 459 444 l 2
 482 444 487 433 487 424 c 0
 487 397 466 396 457 396 c 0
 456 396 456 397 455 397 c 2
 342 397 l 1
 342 397 288 84 265 -3 c 0
 248 -67 227 -129 171 -174 c 0
 132 -205 101 -206 89 -206 c 0
 41 -206 -19 -180 -19 -123 c 0
EndSplineSet
EndChar

StartChar: g
Encoding: 103 103 112
Width: 532
Flags: HW
TeX: 444 194
ItalicCorrection: 104
HStem: -206 37<151.049 277.09> 0 37<230.556 330.269> 419 37<322.032 422.82>
VStem: 58 120<-155.069 -79.439> 106 108<71.4799 227.728> 447 115<298.443 398.896>
DStem2: 307.484 -206 413.989 -206 0.242599 0.970127<92.0006 241.206 281.146 579.719>
AnchorPoint: "affricate-below" 483 -194 basechar 0
AnchorPoint: "affricate-above" 706 694 basechar 0
AnchorPoint: "below" 216 -194 basechar 0
AnchorPoint: "above" 375 456 basechar 0
LayerCount: 2
Fore
SplineSet
58 -131 m 0
 58 -90 92 -58 130 -58 c 0
 159 -58 178 -77 178 -104 c 0xf4
 178 -127 167 -146 149 -162 c 1
 170 -166 191 -169 212 -169 c 0
 287 -169 325 -109 337 -81 c 0
 341 -71 344 -59 366 28 c 1
 336 11 305 0 269 0 c 0
 175 0 106 54 106 159 c 0
 106 299 213 456 373 456 c 0
 421 456 450 439 472 417 c 1
 487 429 499 435 517 435 c 0
 542 435 562 418 562 393 c 0
 562 385 560 376 558 368 c 2
 454 -46 l 2
 446 -79 436 -138 346 -179 c 0
 305 -197 265 -206 213 -206 c 0
 164 -206 58 -202 58 -131 c 0
214 107 m 0
 214 51 249 37 272 37 c 0
 322 37 372 82 384 105 c 0
 392 119 447 354 447 357 c 0xec
 447 377 423 419 374 419 c 0
 332 419 299 385 282 358 c 0
 249 305 214 154 214 107 c 0
EndSplineSet
EndChar

StartChar: h
Encoding: 104 104 113
Width: 591
Flags: HW
TeX: 690 0
ItalicCorrection: 94
HStem: -11 37<462.028 514.689> 419 37<332.864 433.094> 674 20G<312.5 321>
VStem: 366 96<26.3994 121.437> 443 101<252.959 411.873> 565 57<86.3676 161.7>
DStem2: 61.4946 -11 168.995 -11 0.242599 0.970127<45.2957 366.059 453.914 666.853>
AnchorPoint: "affricate-below" 542 -194 basechar 0
AnchorPoint: "affricate-above" 765 694 basechar 0
AnchorPoint: "below" 263 0 basechar 0
AnchorPoint: "above" 437 694 basechar 0
LayerCount: 2
Fore
SplineSet
74 32 m 0
 74 44 78 56 81 67 c 2
 207 571 l 2
 212 593 218 614 223 636 c 1
 185 640 155 632 155 659 c 0
 155 693 185 686 300 693 c 0
 304 693 310 694 315 694 c 0
 327 694 339 690 339 674 c 0
 339 667 336 659 335 653 c 2
 273 404 l 1
 307 433 346 456 408 456 c 0
 471 456 544 433 544 342 c 0xec
 544 249 462 93 462 45 c 0
 462 34 465 26 477 26 c 0
 495 26 536 41 565 140 c 0
 572 162 580 162 598 162 c 0
 609 162 622 162 622 146 c 0
 622 123 572 -11 470 -11 c 0
 413 -11 366 25 366 79 c 0xf4
 366 126 443 266 443 364 c 0
 443 392 433 419 398 419 c 0
 364 419 311 404 264 334 c 0
 247 308 254 330 186 57 c 0
 184 49 175 -11 120 -11 c 0
 95 -11 74 6 74 32 c 0
EndSplineSet
EndChar

StartChar: i
Encoding: 105 105 114
Width: 355
Flags: HW
TeX: 690 0
ItalicCorrection: 113
HStem: -11 37<227.476 279.418> 418 38<184.873 237.907> 577 116<271.661 349.248>
VStem: 131 96<26.8824 120.971> 238 96<322.769 417.759> 251 119<598.027 672.5> 336 51<100.281 161.992>
AnchorPoint: "above" 346 673 basechar 0
AnchorPoint: "ogonek" 238 0 basechar 0
AnchorPoint: "affricate-below" 306 -194 basechar 0
AnchorPoint: "affricate-above" 529 694 basechar 0
AnchorPoint: "below" 177 0 basechar 0
LayerCount: 2
Fore
SplineSet
251 625 m 0
 251 661 286 693 321 693 c 0
 350 693 370 671 370 645 c 0
 370 612 338 577 300 577 c 0xf4
 273 577 251 596 251 625 c 0
EndSplineSet
Refer: 34 305 S 1 0 0 1 -0 0 3
EndChar

StartChar: j
Encoding: 106 106 115
Width: 355
Flags: HW
TeX: 690 194
ItalicCorrection: 167
HStem: -206 38<51.2773 111.14> 418 37<208.149 273.092> 577 116<314.125 390.875>
VStem: -30 121<-151.539 -80> 79 60<282.399 346.646> 275 101<282.375 415.676> 293 119<598.25 671.75>
DStem2: 131.487 -206 238.988 -206 0.242599 0.970127<102.916 603.527>
AnchorPoint: "affricate-below" 306 -194 basechar 0
AnchorPoint: "affricate-above" 529 694 basechar 0
AnchorPoint: "below" 108 -194 basechar 0
LayerCount: 2
Fore
SplineSet
-30 -132 m 0
 -30 -92 2 -58 41 -58 c 0
 69 -58 91 -76 91 -104 c 0xf4
 91 -119 85 -146 51 -167 c 1
 54 -168 58 -168 63 -168 c 0
 108 -168 151 -128 177 -24 c 2
 263 321 l 2
 273 361 275 375 275 389 c 0
 275 411 267 418 253 418 c 0
 230 418 179 398 139 307 c 0
 129 283 125 282 108 282 c 2
 99 282 l 2
 84 282 79 289 79 297 c 0xec
 79 319 146 455 260 455 c 0
 325 455 376 415 376 356 c 0
 376 334 367 311 364 297 c 2
 282 -34 l 2
 275 -61 272 -76 258 -99 c 0
 216 -169 132 -206 64 -206 c 0
 9 -206 -30 -176 -30 -132 c 0
293 625 m 0
 293 659 326 693 363 693 c 0
 392 693 412 672 412 645 c 0
 412 611 379 577 342 577 c 0xe2
 313 577 293 598 293 625 c 0
EndSplineSet
EndChar

StartChar: k
Encoding: 107 107 116
Width: 532
Flags: HW
TeX: 690 0
ItalicCorrection: 111
HStem: -11 37<414.288 466.923> 419 36<433.89 505.693> 638 56<157.594 222.484>
VStem: 74 96<-3.11938 73.3438> 312 100<30.8134 141.516> 317 107<76.192 184.912> 439 122<311.924 383.745> 513 51<91.0508 161.988>
DStem2: 60.9953 -11 168.734 -11 0.242599 0.970127<52.3962 258.24 319.912 666.974>
AnchorPoint: "affricate-below" 483 -194 basechar 0
AnchorPoint: "affricate-above" 706 694 basechar 0
AnchorPoint: "below" 259 0 basechar 0
AnchorPoint: "above" 432 694 basechar 0
LayerCount: 2
Fore
SplineSet
74 32 m 0
 74 40 76 49 78 57 c 2
 209 580 l 2
 214 599 219 617 223 636 c 1
 212 637 201 638 190 638 c 2
 186 638 l 2
 170 638 155 639 155 659 c 0
 155 694 187 686 305 693 c 0
 308 693 311 694 315 694 c 0
 333 694 339 685 339 674 c 0
 339 669 337 664 336 659 c 2
 240 274 l 1
 330 335 391 455 491 455 c 0
 547 455 561 408 561 376 c 0
 561 310 517 289 488 289 c 0
 460 289 439 307 439 335 c 0
 439 361 458 400 506 406 c 1
 500 416 496 419 487 419 c 0xf6
 409 419 340 304 266 251 c 1
 266 250 l 1
 322 244 424 227 424 144 c 0xf6
 424 118 412 93 412 58 c 0
 412 35 422 26 434 26 c 0
 489 26 502 143 513 155 c 0
 520 163 532 162 541 162 c 0
 553 162 564 160 564 146 c 0
 564 134 526 -11 428 -11 c 0
 373 -11 312 24 312 92 c 0xf9
 312 108 317 125 317 141 c 0
 317 185 273 204 225 214 c 1
 196 88 179 28 170 15 c 1
 158 0 139 -11 120 -11 c 0
 95 -11 74 6 74 32 c 0
EndSplineSet
EndChar

StartChar: l
Encoding: 108 108 117
Width: 297
Flags: HW
TeX: 690 0
ItalicCorrection: 108
HStem: -11 37<193.297 234.74> 636 47<156.079 221.458> 674 20G<167 321>
VStem: 90 101<28.4115 158.656> 276 52<85.4525 161.854>
DStem2: 61.99 -11 169.491 -11 0.242599 0.970127<103.612 666.733>
AnchorPoint: "affricate-below" 248 -194 basechar 0
AnchorPoint: "affricate-above" 471 694 basechar 0
AnchorPoint: "below" 118 0 basechar 0
AnchorPoint: "above" 292 694 basechar 0
LayerCount: 2
Fore
SplineSet
90 88 m 0
 90 105 95 123 98 133 c 2
 209 576 l 2
 214 596 218 616 223 636 c 1
 183 640 156 631 156 659 c 0
 156 668 159 678 167 683 c 0xd8
 177 689 315 694 315 694 c 2
 327 694 339 690 339 674 c 0
 339 670 338 665 337 661 c 2
 203 123 l 2
 193 83 191 70 191 56 c 0
 191 37 198 26 209 26 c 0
 251 26 267 141 276 154 c 0
 281 161 290 162 299 162 c 0
 318 162 328 160 328 146 c 0xb8
 328 137 299 -11 205 -11 c 0
 149 -11 90 24 90 88 c 0
EndSplineSet
EndChar

StartChar: m
Encoding: 109 109 118
Width: 944
Flags: HW
TeX: 444 0
ItalicCorrection: 94
HStem: -11 37<816.092 868.791> 419 37<171.565 214.533 391.43 493.327 687.393 788.042>
VStem: 77 52<282.055 359> 133 103<0.939186 106.531> 428 102<0.903076 105.597> 720 96<26.399 123.634> 796 102<254.538 411.641> 925 51<99.2085 162>
AnchorPoint: "affricate-below" 895 -194 basechar 0
AnchorPoint: "affricate-above" 1118 694 basechar 0
AnchorPoint: "below" 470 0 basechar 0
AnchorPoint: "above" 584 456 basechar 0
LayerCount: 2
Fore
SplineSet
77 299 m 0
 77 301 104 455 202 455 c 0
 232 455 292 443 312 385 c 1
 356 430 404 456 466 456 c 0
 517 456 581 442 599 378 c 1
 640 421 686 456 761 456 c 0
 824 456 898 433 898 342 c 0xfb
 898 251 816 95 816 44 c 0
 816 33 819 26 832 26 c 0
 892 26 919 147 925 155 c 0
 930 162 938 162 946 162 c 2
 956 162 l 2
 966 162 976 158 976 145 c 0
 976 126 928 -11 824 -11 c 0
 768 -11 720 25 720 79 c 0xfd
 720 123 796 272 796 364 c 0
 796 408 775 419 751 419 c 0
 725 419 672 409 624 344 c 0
 598 308 599 298 596 286 c 0
 531 27 535 38 530 27 c 0
 525 16 507 -11 472 -11 c 0
 447 -11 428 6 428 31 c 0
 428 65 502 305 502 363 c 0
 502 412 476 419 458 419 c 0
 430 419 372 410 320 330 c 0
 306 308 306 299 301 281 c 0
 238 29 241 39 236 28 c 0
 228 9 208 -11 178 -11 c 0
 154 -11 133 5 133 31 c 0
 133 43 137 55 140 67 c 2
 203 320 l 2
 205 330 216 362 216 387 c 0
 216 404 211 418 196 418 c 0
 155 418 137 303 129 291 c 0
 125 285 120 282 109 282 c 2xfb
 102 282 l 2
 92 282 77 283 77 299 c 0
EndSplineSet
EndChar

StartChar: n
Encoding: 110 110 119
Width: 650
Flags: HW
TeX: 444 0
ItalicCorrection: 94
HStem: -11 37<521.413 574.123> 418 37<170.706 213.463 389.676 493.857>
VStem: 77 52<282.086 358.5> 425 96<26.1911 121.566> 502 102<253.413 412.376> 634 48<104.221 162.89>
DStem2: 120.245 -11 227.98 -11 0.242599 0.970127<44.2949 409.105>
AnchorPoint: "affricate-below" 601 -194 basechar 0
AnchorPoint: "affricate-above" 824 694 basechar 0
AnchorPoint: "below" 323 0 basechar 0
AnchorPoint: "above" 437 456 basechar 0
LayerCount: 2
Fore
SplineSet
77 299 m 0
 77 301 104 455 202 455 c 0
 232 455 292 443 312 385 c 1
 356 430 404 456 465 456 c 0
 545 456 604 424 604 342 c 0xec
 604 253 521 91 521 45 c 0
 521 31 528 26 537 26 c 0
 550 26 570 37 584 54 c 0
 621 100 620 147 634 158 c 0
 637 160 647 163 657 163 c 0
 669 163 682 159 682 146 c 0
 682 125 632 -11 529 -11 c 0
 478 -11 425 20 425 79 c 0xf4
 425 127 502 265 502 363 c 0xec
 502 407 480 419 456 419 c 0
 430 419 374 409 324 336 c 0
 304 307 305 298 301 281 c 0
 235 18 238 29 229 16 c 0
 218 0 198 -11 178 -11 c 0
 155 -11 133 5 133 31 c 0
 133 41 136 51 138 60 c 2
 201 312 l 2
 207 337 215 367 215 388 c 0
 215 414 204 418 196 418 c 0
 154 418 138 302 129 290 c 0
 124 283 117 282 102 282 c 0
 92 282 77 284 77 299 c 0
EndSplineSet
EndChar

StartChar: o
Encoding: 111 111 120
Width: 591
Flags: HW
TeX: 444 0
ItalicCorrection: 78
HStem: -11 36<244.683 360.925> 419 37<338.1 457.534>
VStem: 106 110<70.4952 237.177> 485 110<210.206 374.427>
AnchorPoint: "ogonek" 299 0 basechar 0
AnchorPoint: "affricate-below" 542 -194 basechar 0
AnchorPoint: "affricate-above" 765 694 basechar 0
AnchorPoint: "below" 299 0 basechar 0
AnchorPoint: "above" 406 456 basechar 0
LayerCount: 2
Fore
SplineSet
106 159 m 0
 106 299 218 456 406 456 c 0
 520 456 595 395 595 286 c 0
 595 160 496 -11 296 -11 c 0
 182 -11 106 50 106 159 c 0
216 113 m 0
 216 43 263 25 298 25 c 0
 434 25 464 215 468 230 c 0
 474 254 485 296 485 332 c 0
 485 402 438 419 403 419 c 0
 267 419 236 229 233 215 c 0
 227 191 216 149 216 113 c 0
EndSplineSet
EndChar

StartChar: p
Encoding: 112 112 121
Width: 591
Flags: HW
TeX: 444 194
ItalicCorrection: 78
HStem: -194 47<24.3688 91.096 194 261.416> -11 37<277.994 375.791> 418 37<170.855 213.753 371.973 471.255>
VStem: 77 53<282.236 362.307> 488 108<224.572 383.349>
DStem2: 73.7466 -194 181.747 -194 0.242599 0.970127<76.7096 247.697 318.816 598.291>
AnchorPoint: "affricate-below" 542 -194 basechar 0
AnchorPoint: "affricate-above" 765 694 basechar 0
AnchorPoint: "below" 278 -194 basechar 0
AnchorPoint: "above" 441 456 basechar 0
LayerCount: 2
Fore
SplineSet
24 -174 m 0
 24 -148 45 -147 54 -147 c 2
 57 -147 l 2
 67 -147 76 -146 86 -145 c 1
 91 -127 95 -108 100 -90 c 2
 204 326 l 2
 213 363 215 375 215 388 c 0
 215 414 204 418 196 418 c 0
 155 418 137 304 130 292 c 0
 125 283 115 282 106 282 c 0
 84 282 77 287 77 298 c 0
 77 303 104 455 202 455 c 0
 236 455 278 442 303 403 c 1
 336 429 377 456 435 456 c 0
 499 456 596 423 596 295 c 0
 596 165 499 -11 326 -11 c 0
 290 -11 263 -2 235 21 c 1
 194 -145 l 1
 206 -146 219 -147 231 -147 c 0
 245 -147 262 -149 262 -166 c 0
 262 -175 259 -194 235 -194 c 0
 225 -194 193 -192 131 -192 c 0
 64 -192 56 -194 48 -194 c 0
 36 -194 24 -190 24 -174 c 0
254 89 m 0
 254 67 279 26 326 26 c 0
 363 26 396 52 417 86 c 0
 454 147 488 306 488 348 c 0
 488 405 454 419 431 419 c 0
 380 419 330 372 318 348 c 0
 315 342 254 97 254 89 c 0
EndSplineSet
EndChar

StartChar: q
Encoding: 113 113 122
Width: 532
Flags: HW
TeX: 444 194
ItalicCorrection: 104
HStem: -194 47<241.516 323 430 497.903> -11 37<228.285 328.424> 419 37<323.964 421.814>
VStem: 104 108<61.4326 219.394> 446 128<349.541 440.5>
DStem2: 310.246 -194 417.747 -194 0.242599 0.970127<76.5883 217.495 257.298 564.249>
AnchorPoint: "affricate-below" 483 -194 basechar 0
AnchorPoint: "affricate-above" 706 694 basechar 0
AnchorPoint: "below" 213 -194 basechar 0
AnchorPoint: "above" 376 456 basechar 0
LayerCount: 2
Fore
SplineSet
104 150 m 0
 104 278 198 456 373 456 c 0
 414 456 441 445 471 417 c 1
 500 443 547 454 555 454 c 0
 569 454 574 445 574 436 c 0
 574 429 575 435 538 288 c 2
 430 -145 l 1
 442 -146 455 -147 467 -147 c 2
 471 -147 l 2
 483 -147 498 -148 498 -170 c 0
 498 -182 491 -194 470 -194 c 0
 448 -194 448 -192 360 -192 c 2
 342 -192 l 2
 310 -192 285 -194 269 -194 c 0
 256 -194 241 -193 241 -174 c 0
 241 -163 248 -151 258 -148 c 0
 266 -146 274 -147 282 -147 c 0
 296 -147 309 -146 323 -143 c 1
 363 17 l 1
 332 0 302 -11 264 -11 c 0
 200 -11 104 21 104 150 c 0
212 97 m 0
 212 40 246 26 269 26 c 0
 325 26 372 77 381 95 c 0
 389 110 446 351 446 354 c 0
 446 376 422 419 374 419 c 0
 337 419 303 391 282 357 c 0
 249 301 212 146 212 97 c 0
EndSplineSet
EndChar

StartChar: r
Encoding: 114 114 123
Width: 502
Flags: HW
TeX: 444 0
ItalicCorrection: 111
HStem: -11 21G<166 204> 418 37<170.795 213.923 372.858 485.271>
VStem: 77 53<282.055 361.831> 439 121<311.25 382.033>
DStem2: 120.245 -11 227.496 -11 0.242599 0.970127<44.2044 407.954>
AnchorPoint: "affricate-below" 453 -194 basechar 0
AnchorPoint: "affricate-above" 676 694 basechar 0
AnchorPoint: "below" 181 0 basechar 0
AnchorPoint: "above" 326 456 basechar 0
LayerCount: 2
Fore
SplineSet
77 299 m 1
 77 299 103 455 202 455 c 0
 219 455 274 452 306 400 c 1
 344 436 383 456 435 456 c 0
 493 456 560 429 560 365 c 0
 560 323 527 289 488 289 c 0
 456 289 439 311 439 336 c 0
 439 360 455 387 487 401 c 1
 469 413 455 419 433 419 c 0
 362 419 319 344 314 331 c 0
 310 322 308 311 306 301 c 2
 243 51 l 2
 241 42 230 -11 178 -11 c 0
 154 -11 133 5 133 31 c 0
 133 39 135 48 137 56 c 2
 204 321 l 2
 206 330 215 362 215 387 c 0
 215 404 211 418 196 418 c 0
 155 418 138 303 130 291 c 0
 126 285 120 282 109 282 c 2
 102 282 l 2
 92 282 77 283 77 299 c 1
EndSplineSet
EndChar

StartChar: s
Encoding: 115 115 124
Width: 487
Flags: HW
TeX: 444 0
ItalicCorrection: 81
HStem: -11 36<173.251 332.021> 419 37<279.326 409.588>
VStem: 84 121<73.4731 146.606> 166 77<269.5 372.896> 380 105<312.5 379.954> 387 76<86.2447 197>
AnchorPoint: "affricate-below" 438 -194 basechar 0
AnchorPoint: "affricate-above" 661 694 basechar 0
AnchorPoint: "below" 248 0 basechar 0
AnchorPoint: "above" 351 456 basechar 0
LayerCount: 2
Fore
SplineSet
84 90 m 0
 84 136 117 169 156 169 c 0
 185 169 205 150 205 123 c 0
 205 104 194 69 155 56 c 1
 168 44 192 25 248 25 c 0
 365 25 387 96 387 123 c 0xe4
 387 187 288 184 242 200 c 0
 213 210 166 240 166 299 c 0
 166 337 194 456 351 456 c 0
 433 456 485 420 485 365 c 0
 485 317 448 296 423 296 c 0
 398 296 380 314 380 337 c 0xd8
 380 351 387 377 419 393 c 1
 409 402 390 419 348 419 c 0
 259 419 243 360 243 340 c 0
 243 337 242 324 253 312 c 0
 278 284 323 291 374 274 c 0
 407 263 463 230 463 164 c 0xd4
 463 113 425 -11 245 -11 c 0
 146 -11 84 29 84 90 c 0
EndSplineSet
EndChar

StartChar: t
Encoding: 116 116 125
Width: 385
Flags: HW
TeX: 639 0
ItalicCorrection: 96
HStem: -11 37<222.857 286.281> 397 47<91.4495 193 313 414.423>
VStem: 120 101<28.2218 164.773> 357 60<99.9501 161.625>
DStem2: 91.7388 -11 198.74 -11 0.242599 0.970127<103.763 420.378 495.085 658.406>
AnchorPoint: "affricate-below" 336 -194 basechar 0
AnchorPoint: "affricate-above" 559 694 basechar 0
AnchorPoint: "below" 212 0 basechar 0
AnchorPoint: "above" 309 646 basechar 0
LayerCount: 2
Fore
SplineSet
91 417 m 0
 91 428 96 443 119 444 c 1
 206 444 l 1
 209 458 212 473 240 585 c 0
 255 643 294 646 306 646 c 0
 330 646 350 629 350 604 c 0
 350 586 324 493 313 444 c 1
 388 444 l 2
 409 444 415 435 415 425 c 0
 415 418 413 398 387 397 c 1
 300 397 l 1
 233 126 l 2
 225 96 221 72 221 55 c 0
 221 36 227 26 242 26 c 0
 265 26 316 46 357 138 c 0
 365 156 368 162 385 162 c 2
 391 162 l 2
 404 162 417 161 417 147 c 0
 417 127 349 -11 236 -11 c 0
 170 -11 120 29 120 88 c 0
 120 107 126 125 132 150 c 2
 193 397 l 1
 117 397 l 2
 104 397 91 401 91 417 c 0
EndSplineSet
EndChar

StartChar: u
Encoding: 117 117 126
Width: 620
Flags: HW
TeX: 444 0
ItalicCorrection: 94
HStem: -11 37<273.844 367.57 515.422 557.8> 418 38<184.428 237.525>
VStem: 77 49<282.197 341.102> 160 101<40.4821 205.842> 238 96<322.689 417.734> 484 109<356.682 425.201> 595 57<77.0784 161.704>
AnchorPoint: "ogonek" 531 0 basechar 0
AnchorPoint: "affricate-below" 571 -194 basechar 0
AnchorPoint: "affricate-above" 794 694 basechar 0
AnchorPoint: "below" 309 0 basechar 0
AnchorPoint: "above" 424 456 basechar 0
LayerCount: 2
Fore
SplineSet
77 299 m 0
 77 319 126 456 230 456 c 0
 280 456 334 423 334 365 c 0xee
 334 314 261 197 261 93 c 0
 261 35 293 26 314 26 c 0
 345 26 372 43 392 65 c 0
 416 91 413 96 418 118 c 2
 484 385 l 2
 497 434 529 444 549 444 c 0
 573 444 593 428 593 402 c 0xf6
 593 372 514 104 514 57 c 0
 514 31 525 26 533 26 c 0
 568 26 588 112 595 139 c 0
 601 162 609 162 628 162 c 0
 640 162 652 161 652 146 c 0
 652 140 622 -11 528 -11 c 0
 491 -11 451 3 426 40 c 1
 394 11 361 -11 306 -11 c 0
 238 -11 160 14 160 116 c 0xf6
 160 215 238 349 238 399 c 0
 238 409 235 418 222 418 c 0
 206 418 186 404 174 389 c 0
 138 343 139 297 126 287 c 0
 123 285 113 282 103 282 c 0
 91 282 77 286 77 299 c 0
EndSplineSet
EndChar

StartChar: v
Encoding: 118 118 127
Width: 532
Flags: HW
TeX: 444 0
ItalicCorrection: 111
HStem: -11 37<280.424 372.572> 418 37<185.246 237.713>
VStem: 78 57<282.166 358.027> 161 102<42.694 209.742> 238 96<321.283 417.586> 480 74<245.793 402.5>
AnchorPoint: "affricate-below" 483 -194 basechar 0
AnchorPoint: "affricate-above" 706 694 basechar 0
AnchorPoint: "below" 324 0 basechar 0
AnchorPoint: "above" 360 456 basechar 0
LayerCount: 2
Fore
SplineSet
78 299 m 0
 78 321 127 455 230 455 c 0
 283 455 334 423 334 365 c 0xec
 334 316 263 197 263 99 c 0
 263 33 304 26 326 26 c 0
 434 26 480 261 480 276 c 0
 480 335 419 339 419 384 c 0
 419 417 453 456 491 456 c 0
 516 456 554 436 554 369 c 0
 554 304 491 -11 321 -11 c 0
 245 -11 161 14 161 119 c 0xf4
 161 214 238 349 238 399 c 0xec
 238 409 235 418 222 418 c 0
 203 418 163 399 135 305 c 0
 129 284 122 282 108 282 c 2
 100 282 l 2
 88 282 78 286 78 299 c 0
EndSplineSet
EndChar

StartChar: w
Encoding: 119 119 128
Width: 768
Flags: HW
TeX: 444 0
ItalicCorrection: 111
HStem: -11 37<285.181 377.173 531.156 624.275> 419 36<187.902 237.53>
VStem: 77 51<282.112 345.373> 161 102<46.6163 211.564> 238 96<321.981 418.981> 411 102<56.5 214.012> 716 73<244.74 402.5>
AnchorPoint: "affricate-below" 719 -194 basechar 0
AnchorPoint: "affricate-above" 942 694 basechar 0
AnchorPoint: "below" 451 0 basechar 0
AnchorPoint: "above" 530 456 basechar 0
LayerCount: 2
Fore
SplineSet
77 299 m 0
 77 322 128 455 229 455 c 0
 287 455 334 419 334 365 c 0xee
 334 316 263 201 263 104 c 0xf6
 263 41 302 26 334 26 c 0xee
 379 26 411 81 411 105 c 2
 411 121 l 2
 411 167 471 398 479 411 c 0
 490 430 512 444 534 444 c 0
 557 444 579 428 579 402 c 0
 579 372 513 160 513 100 c 0
 513 40 546 26 577 26 c 0
 650 26 682 130 711 245 c 0
 714 255 716 265 716 276 c 0
 716 335 654 339 654 384 c 0
 654 416 686 456 726 456 c 0
 751 456 789 436 789 369 c 0
 789 316 752 147 697 65 c 0
 653 -2 605 -11 570 -11 c 0
 481 -11 448 23 434 40 c 1
 433 40 l 1
 391 -9 354 -11 327 -11 c 0
 249 -11 161 16 161 122 c 0xf6
 161 212 238 351 238 400 c 0xee
 238 410 235 419 222 419 c 0
 210 419 193 409 179 394 c 0
 142 352 137 300 128 289 c 0
 122 282 114 282 106 282 c 0
 93 282 77 282 77 299 c 0
EndSplineSet
EndChar

StartChar: x
Encoding: 120 120 129
Width: 560
Flags: HW
TeX: 444 0
ItalicCorrection: 125
HStem: -11 37<137.286 216.123 365.616 461.386> 419 37<206.792 302.457 452.959 532.68>
VStem: 66 121<61.9407 133.494> 77 60<282.62 351.122> 482 121<310.722 384.611> 532 60<92.466 161.708>
AnchorPoint: "affricate-below" 511 -194 basechar 0
AnchorPoint: "affricate-above" 734 694 basechar 0
AnchorPoint: "below" 279 0 basechar 0
AnchorPoint: "above" 393 456 basechar 0
LayerCount: 2
Fore
SplineSet
66 78 m 0
 66 130 107 155 138 155 c 0
 164 155 187 138 187 109 c 0xe4
 187 89 176 57 136 42 c 1
 149 31 161 26 177 26 c 0
 213 26 235 68 237 72 c 0
 257 108 312 343 312 370 c 0
 312 409 283 419 262 419 c 0
 212 419 160 373 137 310 c 0
 129 286 127 283 108 282 c 1
 103 282 l 2
 84 282 77 288 77 298 c 0
 77 325 138 456 268 456 c 0
 347 456 379 418 391 402 c 1
 413 425 444 456 494 456 c 0
 546 456 603 426 603 366 c 0
 603 314 562 289 531 289 c 0
 503 289 482 308 482 336 c 0xd8
 482 357 493 388 533 403 c 1
 520 414 509 419 492 419 c 0
 423 419 407 300 368 145 c 0
 364 129 356 100 356 75 c 0
 356 36 386 26 407 26 c 0
 457 26 510 74 532 134 c 0
 539 154 539 162 560 162 c 2
 566 162 l 2
 586 162 592 156 592 147 c 0xc4
 592 114 524 -11 402 -11 c 0
 349 -11 304 5 277 43 c 1
 276 43 l 1
 249 10 215 -11 174 -11 c 0
 123 -11 66 18 66 78 c 0
EndSplineSet
EndChar

StartChar: y
Encoding: 121 121 130
Width: 562
Flags: HW
TeX: 444 194
ItalicCorrection: 104
HStem: -206 37<181.188 289.44> -11 36<275.875 366.303> 418 38<184.796 237.907>
VStem: 77 50<282.15 340.657> 107 73<-161.959 -138.806> 160 101<40.1194 204.121> 238 96<321.569 417.54>
DStem2: 336.235 -206 443.484 -206 0.242599 0.970127<138.339 225.744 259.913 651.72>
AnchorPoint: "affricate-below" 513 -194 basechar 0
AnchorPoint: "affricate-above" 736 694 basechar 0
AnchorPoint: "below" 215 -194 basechar 0
AnchorPoint: "above" 424 456 basechar 0
LayerCount: 2
Fore
SplineSet
77 299 m 0
 77 320 126 456 230 456 c 0
 286 456 334 418 334 365 c 0xf2
 334 320 261 190 261 96 c 0xe4
 261 34 292 25 313 25 c 0
 346 25 387 50 407 83 c 0
 413 93 414 105 417 116 c 2
 482 376 l 2
 485 388 495 444 549 444 c 0
 573 444 593 429 593 402 c 0
 593 393 592 386 590 378 c 2
 500 20 l 2
 493 -8 476 -100 370 -165 c 0
 322 -194 273 -206 232 -206 c 0
 159 -206 107 -169 107 -115 c 0
 107 -61 150 -39 178 -39 c 0
 206 -39 227 -57 227 -85 c 0
 227 -102 218 -136 180 -151 c 1
 180 -152 l 1xe8
 195 -162 210 -169 233 -169 c 0
 296 -169 364 -102 391 13 c 1
 362 -4 338 -11 306 -11 c 0
 239 -11 160 14 160 115 c 0xe4
 160 209 238 351 238 400 c 0
 238 412 233 418 221 418 c 0
 161 418 136 295 127 287 c 0
 123 284 113 282 103 282 c 0
 90 282 77 286 77 299 c 0
EndSplineSet
EndChar

StartChar: z
Encoding: 122 122 131
Width: 490
Flags: HW
TeX: 444 0
ItalicCorrection: 138
HStem: -11 106<281.873 416.688> 59 37<195 241.455> 348 38<384.537 405> 350 105<216.176 374.561>
AnchorPoint: "affricate-below" 441 -194 basechar 0
AnchorPoint: "affricate-above" 664 694 basechar 0
AnchorPoint: "below" 274 0 basechar 0
AnchorPoint: "above" 388 456 basechar 0
LayerCount: 2
Fore
SplineSet
63 3 m 0
 63 8 64 13 76 30 c 0
 158 152 262 209 405 348 c 1xa0
 298 349 284 350 271 350 c 0
 169 350 224 318 170 318 c 0
 158 318 145 322 145 335 c 0
 145 366 202 455 286 455 c 0x10
 355 455 382 386 427 386 c 0
 461 386 469 455 505 456 c 1
 514 456 l 2
 527 456 538 453 538 441 c 0
 538 436 536 431 524 414 c 0
 437 285 292 198 195 96 c 1x60
 240 96 316 95 346 95 c 2
 352 95 l 2
 455 95 467 153 472 159 c 0
 479 167 491 166 501 166 c 0
 520 166 523 156 523 149 c 0
 523 113 451 -11 343 -11 c 0x80
 273 -11 249 59 196 59 c 0x40
 166 59 142 34 122 5 c 0
 112 -9 108 -11 94 -11 c 2x80
 87 -11 l 2
 75 -11 63 -10 63 3 c 0
EndSplineSet
EndChar

StartChar: braceleft
Encoding: 123 123 132
Width: 591
Flags: HW
TeX: 742 249
ItalicCorrection: 146
HStem: -250 37<352.25 430.959> 231 41<162.309 244.999> 706 44<560.477 670.3>
VStem: 210 106<-186.118 -41.292> 276 106<55.2478 203.536>
DStem2: 330 363 434 351 0.256382 0.966576<-40.825 339.432>
LayerCount: 2
Fore
SplineSet
162 248 m 0
 162 272 189 267 211 272 c 0
 261 283 310 316 330 363 c 0
 341 390 390 612 405 644 c 0
 440 716 541 750 648 750 c 0
 662 750 671 747 671 734 c 0
 671 707 644 718 604 706 c 0
 564 694 527 669 509 633 c 0
 494 603 448 384 434 351 c 0
 411 296 357 266 294 249 c 1
 334 234 382 209 382 149 c 0xe8
 382 110 316 -104 316 -139 c 0
 316 -183 357 -208 408 -213 c 0
 419 -214 431 -215 431 -230 c 0
 431 -248 417 -250 405 -250 c 0
 333 -250 210 -231 210 -139 c 0xf0
 210 -103 276 119 276 152 c 0
 276 203 230 227 191 231 c 0
 179 232 162 231 162 248 c 0
EndSplineSet
EndChar

StartChar: bar
Encoding: 124 124 133
Width: 355
Flags: HW
TeX: 742 249
ItalicCorrection: 99
DStem2: 83.2456 -249 145.748 -249 0.242599 0.970127<31.8828 1012.12>
LayerCount: 2
Fore
SplineSet
93 -219 m 0
 93 -210 96 -197 99 -186 c 2
 322 704 l 2
 327 724 331 749 357 749 c 0
 372 749 386 737 386 719 c 0
 386 710 384 701 382 693 c 2
 154 -216 l 2
 147 -247 128 -249 122 -249 c 0
 107 -249 93 -237 93 -219 c 0
EndSplineSet
EndChar

StartChar: braceright
Encoding: 125 125 134
Width: 591
Flags: HW
TeX: 742 249
ItalicCorrection: 21
HStem: 228 41<470.655 550.7> 713 37<283.078 362.273>
VStem: 333 106<296.719 447.525> 398 107<541.178 686.77>
LayerCount: 2
Fore
SplineSet
42 -234 m 0
 42 -207 70 -218 110 -206 c 0
 205 -178 214 -107 217 -96 c 0
 278 146 275 136 280 147 c 0
 305 208 360 232 421 251 c 1
 385 262 333 291 333 350 c 0xe0
 333 389 398 605 398 639 c 0
 398 690 346 710 307 713 c 0
 295 714 283 715 283 730 c 0
 283 746 295 750 309 750 c 0
 382 750 505 732 505 639 c 0xd0
 505 601 439 383 439 348 c 0
 439 297 485 273 523 269 c 0
 534 268 551 270 551 252 c 0
 551 228 525 233 503 228 c 0
 453 217 404 184 384 137 c 0
 379 126 382 138 322 -104 c 0
 316 -130 303 -199 192 -232 c 0
 156 -243 117 -250 67 -250 c 0
 54 -250 42 -248 42 -234 c 0
EndSplineSet
EndChar

StartChar: asciitilde
Encoding: 126 126 135
Width: 709
Flags: HW
TeX: 690 0
ItalicCorrection: 114
HStem: 575 58<545.776 666.935> 636 58<355.737 477.544>
LayerCount: 2
Fore
SplineSet
267 593 m 0
 267 604 286 619 296 628 c 0
 329 658 375 694 432 694 c 0
 509 694 551 633 614 633 c 0
 678 633 720 693 739 693 c 0
 748 693 756 684 756 676 c 0
 756 668 750 661 743 655 c 0
 714 627 658 575 592 575 c 0
 513 575 473 636 410 636 c 0
 346 636 304 576 284 576 c 0
 275 576 267 585 267 593 c 0
EndSplineSet
EndChar

StartChar: uni00AD
Encoding: 173 173 136
Width: 238
Flags: HW
TeX: 444 0
ItalicCorrection: 26
HStem: 176 93<102.769 373.418>
VStem: 91 294<180.536 264.409>
LayerCount: 2
Fore
SplineSet
91 195 m 0
 91 200 92 205 102 245 c 0
 106 262 112 269 134 269 c 2
 360 269 l 2
 376 269 385 261 385 249 c 0
 385 244 379 216 373 195 c 0
 369 181 360 176 344 176 c 2
 118 176 l 2
 95 176 91 186 91 195 c 0
EndSplineSet
EndChar

StartChar: Abreve
Encoding: 258 258 137
Width: 865
Flags: HW
TeX: 894 0
HStem: 0 58<76.8429 193.423 247 329.605> 3 45<470.373 572 709.017 801.909> 189 48<356 552> 685 20<597 626> 764 60<530.184 734.009>
VStem: 483 38<839.777 892.937>
DStem2: 200 90 247 58 0.520685 0.853749<-2.60019 150.127 206.728 526.235> 644 667 522 510 0.108839 -0.994059<142.789 417.432 465.8 602.34>
AnchorPoint: "below" 431 0 basechar 0
AnchorPoint: "above" 653 876 basechar 0
LayerCount: 2
Fore
SplineSet
483 858 m 0
 483 871 486 893 503 893 c 0
 513 893 521 885 521 873 c 2
 521 866 l 2
 521 841 546 824 632 824 c 0
 806 824 762 893 797 893 c 0
 808 893 815 883 815 874 c 0x3c
 815 838 753 764 627 764 c 0
 543 764 483 800 483 858 c 0
EndSplineSet
Refer: 74 65 S 1 0 0 1 0 0 3
AlternateSubs2: "Stilistic set 01 subtable" Abreve.vn
AlternateSubs2: "Latin alternatives subtable" Abreve.vn
Substitution2: "Latin Vietnamese substitutions subtable" Abreve.vn
EndChar

StartChar: Aogonek
Encoding: 260 260 138
Width: 865
Flags: HW
TeX: 690 194
HStem: -216 66<599.5 692.754> 0 58<76.6227 193.423 247 329.899> 0 48<470.44 570.967 710.001 802.499> 189 48<356 552> 685 20G<590 622.5>
VStem: 538 83<-144.731 -54.249>
DStem2: 200 90 247 58 0.520685 0.853749<-2.60019 150.127 206.728 526.235> 644 668 522 510 0.108803 -0.994063<143.788 418.431 466.799 604.097>
AnchorPoint: "above" 606 708 basechar 0
LayerCount: 2
Fore
SplineSet
72 20 m 0
 72 64 128 38 173 60 c 1
 185 67 193 78 200 90 c 2
 558 677 l 2
 568 693 576 705 604 705 c 2
 607 705 l 2
 638 705 640 700 644 668 c 2
 710 65 l 2
 713 44 719 50 778 48 c 0
 798 47 803 36 803 28 c 0
 803 3 783 0 775 0 c 2
 771 0 l 2
 754 0 727 2 709 2 c 0
 660 2 621 -54 621 -96 c 0
 621 -120 634 -150 659 -150 c 0
 679 -150 691 -131 705 -131 c 0
 716 -131 728 -143 728 -154 c 0
 728 -174 676 -216 626 -216 c 0
 573 -216 538 -174 538 -124 c 0
 538 -65 581 -22 612 3 c 1
 566 3 519 1 496 0 c 0
 477 0 470 10 470 21 c 0
 470 27 472 48 499 48 c 0xbc
 525 48 550 49 572 53 c 1
 558 189 l 1
 326 189 l 1
 247 58 l 1xdc
 300 41 331 58 331 28 c 0
 331 21 329 0 304 0 c 0xdc
 290 0 263 3 189 3 c 0
 133 3 105 1 96 1 c 0
 75 1 72 12 72 20 c 0
356 237 m 1x9c
 552 237 l 1
 522 510 l 1
 356 237 l 1x9c
EndSplineSet
Ligature2: "Latin ligatures subtable" A uni0328
EndChar

StartChar: Cacute
Encoding: 262 262 139
Width: 826
Flags: HW
TeX: 873 0
ItalicCorrection: 142
HStem: -22 48<380.726 573.155> 660 48<534.173 721.133>
VStem: 161 135<129.399 333.857> 785 64<426.254 488.021>
AnchorPoint: "below" 461 0 basechar 0
AnchorPoint: "above" 672 871 basechar 0
LayerCount: 2
Fore
SplineSet
545 788 m 0
 545 805 560 811 570 816 c 0
 714 890 711 891 730 891 c 0
 758 891 774 870 774 845 c 0
 774 825 765 810 753 800 c 0
 736 786 724 785 584 758 c 0
 579 757 574 756 568 756 c 0
 549 756 545 775 545 788 c 0
EndSplineSet
Refer: 76 67 S 1 0 0 1 0 -0 3
EndChar

StartChar: Ccaron
Encoding: 268 268 140
Width: 826
Flags: HW
TeX: 894 0
ItalicCorrection: 142
HStem: -22 48<380.726 573.155> 660 48<534.173 721.133> 778 91<638.881 725.69>
VStem: 161 135<129.399 333.857> 785 64<426.254 488.021>
AnchorPoint: "below" 461 0 basechar 0
AnchorPoint: "above" 673 874 basechar 0
LayerCount: 2
Fore
SplineSet
540 877 m 0
 540 887 548 894 559 894 c 0
 572 894 675 869 691 869 c 0
 705 869 825 894 836 894 c 0
 848 894 855 887 855 877 c 0
 855 865 842 859 833 854 c 0
 702 787 686 778 677 778 c 2
 675 778 l 2
 667 778 665 781 562 852 c 0
 553 858 540 866 540 877 c 0
EndSplineSet
Refer: 76 67 S 1 0 0 1 -0 0 3
EndChar

StartChar: Dcaron
Encoding: 270 270 141
Width: 875
Flags: HW
TeX: 894 0
ItalicCorrection: 90
HStem: 0 48<65.548 179.385 311 545.682> 638 48<225.368 326 458.703 682.838> 778 91<545.881 632.69>
VStem: 755 129<346.364 556.8>
DStem2: 166.996 0 298.747 0 0.242599 0.970127<82.4714 655.575>
AnchorPoint: "below" 395 0 basechar 0
AnchorPoint: "above" 619 896 basechar 0
LayerCount: 2
Fore
SplineSet
447 877 m 0
 447 887 455 894 466 894 c 0
 479 894 582 869 598 869 c 0
 612 869 732 894 743 894 c 0
 755 894 762 887 762 877 c 0
 762 865 749 859 740 854 c 0
 609 787 593 778 584 778 c 2
 582 778 l 2
 574 778 572 781 469 852 c 0
 460 858 447 866 447 877 c 0
EndSplineSet
Refer: 77 68 S 1 0 0 1 -0 0 3
EndChar

StartChar: Ecaron
Encoding: 282 282 142
Width: 756
Flags: HW
TeX: 894 0
ItalicCorrection: 114
HStem: 0 48<65.5257 179.385 317 561.405> 329 48<399 502.388> 633 47<223.336 324 462.75 696.691> 778 91<512.881 599.658>
VStem: 497 65<216.145 287.97> 725 78<461.926 605.227>
DStem2: 166.996 0 304.747 0 0.242599 0.970127<83.927 372.544 422.022 649.269>
AnchorPoint: "below" 376 0 basechar 0
AnchorPoint: "above" 602 902 basechar 0
LayerCount: 2
Fore
SplineSet
414 877 m 0
 414 887 422 894 433 894 c 0
 446 894 549 869 565 869 c 0
 579 869 698 894 709 894 c 0
 721 894 729 887 729 877 c 0
 729 865 716 859 707 854 c 0
 576 787 560 778 551 778 c 2
 549 778 l 2
 541 778 539 781 436 852 c 0
 427 858 414 866 414 877 c 0
EndSplineSet
Refer: 78 69 S 1 0 0 1 -0 0 3
EndChar

StartChar: Eogonek
Encoding: 280 280 143
Width: 756
Flags: HW
TeX: 690 194
ItalicCorrection: 114
HStem: -216 66<476.5 569.741> -0 48<65.5257 179.385 317 482.371> 329 48<399 502.217> 633 47<223.336 324 462.75 695.64>
VStem: 414 83<-144.801 -54.1505> 497 65<216.145 287.97> 710 48<226.743 274.895> 725 78<461.926 605.656>
DStem2: 112.981 -216 250.732 -216 0.242599 0.970127<306.578 595.196 644.673 871.92>
AnchorPoint: "above" 522 708 basechar 0
LayerCount: 2
Fore
SplineSet
65 20 m 0
 65 46 86 48 94 48 c 2
 114 48 l 2
 147 48 167 49 180 52 c 1
 324 630 l 1
 306 632 288 633 270 633 c 2
 250 633 l 2
 235 633 223 636 223 653 c 0
 223 666 228 680 252 680 c 2
 775 680 l 2
 792 680 803 676 803 657 c 0
 803 650 789 532 782 469 c 0
 780 449 776 438 752 438 c 0
 731 438 725 446 725 462 c 0xfd
 725 477 730 498 730 527 c 0
 730 621 676 633 580 633 c 2
 510 633 l 2
 494 633 478 633 462 631 c 1
 399 377 l 1
 434 377 l 2
 469 377 499 378 522 400 c 0
 565 441 541 494 585 494 c 0
 599 494 612 488 612 472 c 0
 612 465 608 456 562 270 c 0
 552 229 553 213 524 213 c 0
 503 213 497 220 497 232 c 0
 497 246 506 267 506 289 c 0
 506 326 473 329 443 329 c 2
 387 329 l 1
 317 49 l 1
 330 48 342 48 355 48 c 2
 420 48 l 2
 467 48 527 49 580 80 c 0
 664 129 693 251 710 268 c 0
 714 272 723 275 733 275 c 0
 746 275 758 270 758 256 c 0
 758 246 758 249 662 23 c 0
 652 1 645 0 629 -0 c 0xfe
 612 0 595 0 578 -0 c 0
 542 0 497 -48 497 -96 c 0
 497 -121 511 -150 535 -150 c 0
 556 -150 566 -131 580 -131 c 0
 590 -131 605 -143 605 -154 c 0
 605 -173 554 -216 503 -216 c 0
 450 -216 414 -174 414 -124 c 0
 414 -68 451 -29 484 -0 c 1
 89 -0 l 2
 76 0 65 6 65 20 c 0
EndSplineSet
EndChar

StartChar: Gbreve
Encoding: 286 286 144
Width: 895
Flags: HW
TeX: 894 0
ItalicCorrection: 73
HStem: -22 48<385.228 566.367> 227 48<529.453 655 788.006 871.474> 660 48<544.653 758.753> 764 60<558.515 762.291>
VStem: 161 136<132.085 341.345> 512 37<839.777 892.877>
LayerCount: 2
Fore
SplineSet
161 242 m 0
 161 446 322 708 635 708 c 0
 669 708 750 705 807 671 c 1
 857 695 873 708 890 708 c 0
 897 708 908 705 908 692 c 0
 908 686 909 691 875 556 c 0
 871 541 867 537 849 537 c 2
 839 537 l 2
 790 537 832 566 792 613 c 0
 760 651 702 660 658 660 c 0
 559 660 456 617 392 523 c 0
 330 433 297 269 297 199 c 0
 297 60 405 26 483 26 c 0
 567 26 612 80 624 107 c 0
 629 118 631 130 655 225 c 1
 631 227 592 227 576 227 c 2
 557 227 l 2
 547 227 529 228 529 248 c 0
 529 259 534 275 558 275 c 0
 575 275 593 273 732 273 c 2
 760 273 l 2
 775 273 790 273 834 274 c 0
 840 274 846 275 850 275 c 0
 863 275 872 270 872 255 c 0
 872 229 851 227 842 227 c 2
 829 227 l 2
 819 227 806 227 792 224 c 1
 787 203 747 39 741 19 c 0
 737 6 732 2 725 2 c 0
 713 2 671 28 651 47 c 1
 650 47 l 1
 596 -5 520 -22 457 -22 c 0
 287 -22 161 66 161 242 c 0
512 858 m 0
 512 874 516 893 532 893 c 0
 543 893 550 885 550 873 c 0
 550 871 549 869 549 866 c 0
 549 841 575 824 661 824 c 0
 834 824 791 893 826 893 c 0
 837 893 843 883 843 874 c 0
 843 838 781 764 655 764 c 0
 571 764 512 800 512 858 c 0
EndSplineSet
EndChar

StartChar: Lcaron
Encoding: 317 317 146
Width: 698
Flags: HW
TeX: 894 0
HStem: 0 48<64.5257 178.385 316 491.004> 638 48<223.381 325 462 570> 668 148<597.757 662.16>
VStem: 555 161<686.951 782.123>
DStem2: 165.996 0 303.747 0 0.242599 0.970127<83.927 655.575>
LayerCount: 2
Fore
SplineSet
64 20 m 0
 64 47 85 48 93 48 c 2
 113 48 l 2
 146 48 166 49 179 52 c 1
 325 636 l 1
 306 638 286 638 267 638 c 2
 250 638 l 2
 231 638 223 648 223 659 c 0
 223 683 244 686 253 686 c 2
 257 686 l 2
 279 686 317 683 375 683 c 0
 387 683 399 683 411 683 c 0
 459 683 538 684 570 686 c 1xd0
 560 699 555 710 555 726 c 0
 555 770 594 816 645 816 c 0
 688 816 716 784 716 741 c 0
 716 697 678 599 575 546 c 0
 570 543 564 540 558 540 c 0
 549 540 540 549 540 558 c 0
 540 583 604 575 663 681 c 1
 645 672 632 668 614 668 c 0xb0
 611 668 608 669 605 669 c 1
 601 641 590 638 573 638 c 2
 550 638 l 2
 506 638 479 636 462 633 c 1
 316 49 l 1
 328 48 340 48 352 48 c 2xd0
 389 48 l 2
 533 48 588 149 627 253 c 0
 633 269 640 275 656 275 c 0
 671 275 684 271 684 255 c 0
 684 246 685 252 601 22 c 0
 594 4 589 0 570 0 c 2
 88 0 l 1
 68 1 64 12 64 20 c 0
EndSplineSet
EndChar

StartChar: Lslash
Encoding: 321 321 147
Width: 698
Flags: HW
TeX: 690 0
HStem: 0 48<64.5257 178.385 316 491.004> 638 48<224.466 325 462 603.474>
DStem2: 165.996 0 303.747 0 0.242599 0.970127<83.927 276.249 324.651 381.147 493.085 655.575> 250 335 233 268 0.833856 0.551981<-142.627 -51.1583 198.856 381.379>
LayerCount: 2
Fore
SplineSet
64 20 m 0
 64 47 85 48 93 48 c 2
 113 48 l 2
 146 48 166 49 179 52 c 1
 233 268 l 1
 166 223 163 221 154 221 c 0
 142 221 132 234 132 246 c 0
 132 259 142 264 250 335 c 1
 325 636 l 1
 306 638 286 638 267 638 c 2
 249 638 l 2
 230 638 224 648 224 659 c 0
 224 665 226 686 251 686 c 0
 256 686 261 685 266 685 c 0
 298 684 315 683 427 683 c 0
 518 683 564 686 579 686 c 0
 598 686 604 676 604 666 c 0
 604 641 583 638 574 638 c 2
 554 638 l 2
 508 638 480 637 462 633 c 1
 415 446 l 1
 575 552 578 556 589 556 c 0
 602 556 611 540 611 531 c 0
 611 517 616 523 417 390 c 0
 381 367 404 377 316 49 c 1
 328 48 340 48 352 48 c 2
 389 48 l 2
 533 48 588 149 627 253 c 0
 633 269 640 275 656 275 c 0
 671 275 684 270 684 255 c 0
 684 246 685 252 601 22 c 0
 594 4 589 0 570 0 c 2
 88 0 l 1
 68 1 64 12 64 20 c 0
EndSplineSet
EndChar

StartChar: Nacute
Encoding: 323 323 148
Width: 896
Flags: HW
TeX: 873 0
ItalicCorrection: 172
HStem: 0 48<64.6813 183.161 244.94 342.548> 638 48<224.368 326 722.382 820.105 882.143 1000.45>
DStem2: 166.706 0 229.209 0 0.242599 0.970127<74.2202 616.116> 480 664 375 583 0.458562 -0.888662<23.8326 514.339> 664.236 0 726.998 0 0.242599 0.970127<213.374 648.15>
LayerCount: 2
Fore
SplineSet
536 788 m 0
 536 805 551 811 561 816 c 0
 705 890 702 891 721 891 c 0
 749 891 765 870 765 845 c 0
 765 825 755 810 743 800 c 0
 726 786 716 786 576 759 c 0
 571 758 564 756 558 756 c 0
 540 756 536 774 536 788 c 0
EndSplineSet
Refer: 87 78 S 1 0 0 1 -0 -0 3
EndChar

StartChar: Ncaron
Encoding: 327 327 149
Width: 896
Flags: HW
TeX: 894 0
ItalicCorrection: 172
HStem: 0 48<64.6813 183.161 244.94 342.548> 638 48<224.368 326 722.382 820.105 882.143 1000.45> 778 91<608.828 694.28>
DStem2: 166.706 0 229.209 0 0.242599 0.970127<74.2202 616.116> 480 664 375 583 0.458562 -0.888662<23.8326 514.339> 664.236 0 726.998 0 0.242599 0.970127<213.374 648.15>
LayerCount: 2
Fore
SplineSet
509 877 m 0
 509 887 517 894 528 894 c 0
 541 894 643 869 659 869 c 0
 673 869 793 894 804 894 c 0
 816 894 823 887 823 877 c 0
 823 865 811 859 802 854 c 0
 671 787 655 778 646 778 c 0
 635 778 620 791 609 798 c 0
 509 866 509 863 509 877 c 0
EndSplineSet
Refer: 87 78 S 1 0 0 1 -0 0 3
EndChar

StartChar: Eng
Encoding: 330 330 150
Width: 905
Flags: HW
TeX: 690 0
ItalicCorrection: 171
HStem: -22 37<534.852 646.274> 1 47<65.4158 180 317 381.679> 638 48<224.699 326> 660 62<561.796 727.254>
VStem: 443 152<75.4941 154.955> 799 137<400.906 589.15>
DStem2: 161.495 -22 299.245 -22 0.242599 0.970127<106.604 675.948> 671.487 -22 809.487 -22 0.242599 0.970127<114.568 545.772>
LayerCount: 2
Fore
SplineSet
65 20 m 0
 65 33 70 48 93 48 c 2
 111 48 l 2
 146 48 167 49 180 52 c 1
 326 636 l 1
 309 637 293 638 276 638 c 2
 251 638 l 2
 231 638 224 649 224 659 c 0
 224 667 230 686 252 686 c 0
 264 686 293 683 411 683 c 0
 430 683 441 685 449 685 c 0x6c
 466 685 470 676 470 666 c 0
 470 663 470 659 469 656 c 1
 543 703 621 722 687 722 c 0
 828 722 936 637 936 511 c 0
 936 482 930 461 925 440 c 2
 855 160 l 2
 846 123 836 85 792 45 c 0
 740 -3 666 -22 599 -22 c 0
 507 -22 443 23 443 91 c 0
 443 150 486 188 533 188 c 0
 569 188 595 165 595 130 c 0
 595 100 574 54 522 43 c 1
 527 38 551 15 594 15 c 0
 619 15 683 25 718 164 c 2
 787 440 l 2
 792 461 799 482 799 510 c 0
 799 600 733 660 643 660 c 0x9c
 543 660 458 589 447 567 c 0
 444 561 444 556 442 550 c 2
 329 100 l 2
 325 83 321 66 317 49 c 1
 328 48 340 48 351 48 c 0
 362 48 382 47 382 28 c 0
 382 0 364 1 345 1 c 0
 324 1 289 3 232 3 c 0
 178 3 112 1 89 1 c 2
 87 1 l 2
 81 1 65 2 65 20 c 0
EndSplineSet
EndChar

StartChar: Ohungarumlaut
Encoding: 336 336 151
Width: 855
Flags: HW
TeX: 873 0
ItalicCorrection: 90
HStem: -22 43<359.078 513.05> 667 41<511.47 669.282> 785 106<600.819 653.898 778.184 861.99>
VStem: 159 137<113.588 334.823> 733 132<364.106 569.823>
AnchorPoint: "below" 427 0 basechar 0
AnchorPoint: "above" 646 871 basechar 0
LayerCount: 2
Fore
SplineSet
472 788 m 0
 472 806 487 811 499 817 c 0
 641 890 638 891 657 891 c 0
 684 891 701 872 701 843 c 0
 701 839 700 835 699 830 c 1
 796 880 815 891 834 891 c 0
 860 891 877 869 877 845 c 0
 877 818 858 797 837 789 c 0
 821 783 674 756 670 756 c 0
 652 756 650 770 648 785 c 0
 647 785 501 756 494 756 c 0
 476 756 472 774 472 788 c 0
EndSplineSet
Refer: 88 79 S 1 0 0 1 -0 -0 3
EndChar

StartChar: Racute
Encoding: 340 340 152
Width: 859
Flags: HW
TeX: 873 0
ItalicCorrection: 25
HStem: -22 37<689.132 756.838> 0 48<65.4285 180 311 412.65> 325 36<389 540.408> 638 48<225.487 326 458.704 657.095>
VStem: 539 143<30.5288 197.418> 569 133<145.224 295.779> 686 139<461.776 605.534> 791 57<49.5406 116.512>
DStem2: 161.495 -22 292.995 -22 0.242599 0.970127<106.119 389.643 426.751 678.252>
AnchorPoint: "below" 350 0 basechar 0
AnchorPoint: "above" 573 893 basechar 0
LayerCount: 2
Fore
SplineSet
528 788 m 0
 528 805 541 810 552 816 c 0
 696 890 696 891 713 891 c 0
 739 891 757 871 757 845 c 0
 757 828 748 811 735 800 c 0
 718 786 707 786 567 759 c 0
 562 758 556 756 550 756 c 0x30
 532 756 528 774 528 788 c 0
EndSplineSet
Refer: 91 82 S 1 0 0 1 0 0 3
EndChar

StartChar: Rcaron
Encoding: 344 344 153
Width: 859
Flags: HW
TeX: 894 0
ItalicCorrection: 25
HStem: -22 37<689.132 756.838> 0 48<65.4285 180 311 412.65> 325 36<389 540.408> 638 48<225.487 326 458.704 657.095> 778 91<535.881 622.69>
VStem: 539 143<30.5288 197.418> 569 133<145.224 295.779> 686 139<461.776 605.534> 791 57<49.5406 116.512>
DStem2: 161.495 -22 292.995 -22 0.242599 0.970127<106.119 389.643 426.751 678.252>
AnchorPoint: "below" 350 0 basechar 0
AnchorPoint: "above" 574 896 basechar 0
LayerCount: 2
Fore
SplineSet
437 877 m 0
 437 887 445 894 456 894 c 0
 469 894 572 869 588 869 c 0
 602 869 722 894 733 894 c 0x38
 745 894 752 887 752 877 c 0
 752 865 739 859 730 854 c 0
 599 787 583 778 574 778 c 2
 572 778 l 2
 564 778 562 781 459 852 c 0
 450 858 437 866 437 877 c 0
EndSplineSet
Refer: 91 82 S 1 0 0 1 -0 0 3
EndChar

StartChar: Sacute
Encoding: 346 346 154
Width: 650
Flags: HW
TeX: 873 0
ItalicCorrection: 112
HStem: -22 48<255.108 427.319> 665 43<387.827 544.093>
VStem: 87 103<-12.5 184.216> 208 108<442 550.382> 508 107<151.093 266.5> 596 106<500.237 697.5>
AnchorPoint: "below" 354 0 basechar 0
AnchorPoint: "above" 510 871 basechar 0
LayerCount: 2
Fore
SplineSet
398 788 m 0
 398 805 413 811 423 816 c 0
 567 890 564 891 583 891 c 0
 611 891 627 870 627 845 c 0
 627 825 617 810 605 800 c 0
 588 786 577 785 437 758 c 0
 432 757 426 756 420 756 c 0xf0
 401 756 398 775 398 788 c 0
EndSplineSet
Refer: 92 83 S 1 0 0 1 0 -0 3
EndChar

StartChar: Scaron
Encoding: 352 352 155
Width: 650
Flags: HW
TeX: 894 0
ItalicCorrection: 112
HStem: -22 48<255.108 427.319> 665 43<387.827 544.093> 778 91<484.175 570.87>
VStem: 87 103<-12.5 184.216> 208 108<442 550.382> 508 107<151.093 266.5> 596 106<500.237 697.5>
AnchorPoint: "below" 354 0 basechar 0
AnchorPoint: "above" 511 874 basechar 0
LayerCount: 2
Fore
SplineSet
386 877 m 0
 386 887 394 894 405 894 c 0
 418 894 520 869 536 869 c 0
 550 869 670 894 681 894 c 0xf8
 693 894 700 887 700 877 c 0
 700 865 688 859 679 854 c 0
 548 787 532 778 523 778 c 2
 521 778 l 2
 513 778 510 781 407 852 c 0
 398 858 386 866 386 877 c 0
EndSplineSet
Refer: 92 83 S 1 0 0 1 -0 0 3
EndChar

StartChar: Scedilla
Encoding: 350 350 156
Width: 650
Flags: HW
TeX: 690 170
ItalicCorrection: 112
HStem: -192 36<169.009 329.005> -22 21G<100 112.5> 665 43<387.651 544.093>
VStem: 87 103<-11 184.216> 208 108<442 550.164> 360 107<-134.654 -77.1808> 508 107<147.344 289.5> 596 106<501.759 697.5>
LayerCount: 2
Fore
SplineSet
87 -6 m 0
 87 1 121 134 139 204 c 0
 145 226 147 228 173 228 c 0
 191 228 196 223 196 212 c 0
 196 200 190 181 190 157 c 0
 190 52 284 26 352 26 c 0
 459 26 508 126 508 188 c 0xfe
 508 328 305 248 231 372 c 0
 216 398 208 427 208 457 c 0
 208 559 296 708 469 708 c 0
 554 708 593 672 611 652 c 1
 657 694 669 708 684 708 c 0
 693 708 702 703 702 692 c 0
 702 685 668 552 650 481 c 0
 644 459 639 458 616 458 c 0
 597 458 593 465 593 478 c 0
 593 489 596 504 596 525 c 0xfd
 596 637 527 665 466 665 c 0
 361 665 316 574 316 520 c 0
 316 423 432 438 517 405 c 0
 573 383 615 329 615 250 c 0
 615 156 551 16 402 -17 c 1
 397 -39 l 1
 413 -42 467 -52 467 -101 c 0
 467 -174 368 -192 226 -192 c 2xfe
 197 -192 l 2
 182 -192 169 -189 169 -174 c 0
 169 -167 174 -156 196 -156 c 2
 215 -156 l 2
 332 -156 360 -129 360 -103 c 0
 360 -85 341 -76 325 -73 c 0
 313 -70 288 -74 288 -51 c 0
 288 -44 290 -41 295 -18 c 1
 239 -10 209 10 179 34 c 1
 130 -10 120 -22 105 -22 c 0
 95 -22 87 -16 87 -6 c 0
EndSplineSet
EndChar

StartChar: Tcaron
Encoding: 356 356 157
Width: 796
Flags: HW
TeX: 894 0
ItalicCorrection: 128
HStem: 0 48<181.527 346.315 479 624.594> 627 48<329.416 485 622.75 772.066> 778 91<557.881 644.69>
VStem: 792 77<509.332 662>
DStem2: 328.494 0 466.246 0 0.242599 0.970127<85.989 645.267>
AnchorPoint: "below" 397 0 basechar 0
AnchorPoint: "above" 624 907 basechar 0
LayerCount: 2
Fore
SplineSet
459 877 m 0
 459 887 467 894 478 894 c 0
 491 894 594 869 610 869 c 0
 624 869 744 894 755 894 c 0
 767 894 774 887 774 877 c 0
 774 865 761 859 752 854 c 0
 621 787 605 778 596 778 c 2
 594 778 l 2
 586 778 584 781 481 852 c 0
 472 858 459 866 459 877 c 0
EndSplineSet
Refer: 93 84 S 1 0 0 1 -0 0 3
EndChar

StartChar: Tcommaaccent
Encoding: 354 354 158
Width: 796
Flags: HW
TeX: 690 170
ItalicCorrection: 128
HStem: -192 36<213.012 374.294> 1 47<181.523 343.918 480.64 624.546> 627 48<328.993 485 622.75 772.066>
VStem: 404 107<-134.211 -77.2323> 792 77<509.332 662>
DStem2: 280.481 -192 418.233 -192 0.242599 0.970127<283.901 843.18>
LayerCount: 2
Fore
SplineSet
181 20 m 0
 181 46 201 48 211 48 c 0
 225 48 239 48 253 48 c 0
 350 48 341 48 349 82 c 2
 472 575 l 2
 476 592 480 609 485 626 c 1
 473 627 460 627 448 627 c 2
 437 627 l 2
 323 627 291 598 241 460 c 0
 234 439 228 433 208 433 c 0
 189 433 182 441 182 452 c 0
 182 460 181 455 249 653 c 0
 255 671 262 675 281 675 c 2
 841 675 l 2
 857 675 869 671 869 653 c 0
 869 646 850 526 840 463 c 0
 837 443 835 433 810 433 c 0
 794 433 783 437 783 454 c 0
 783 466 792 506 792 547 c 0
 792 623 739 627 679 627 c 2
 670 627 l 2
 654 627 638 627 622 625 c 1
 479 51 l 1
 514 48 548 48 585 48 c 2
 596 48 l 2
 607 48 625 47 625 28 c 0
 625 18 620 0 595 0 c 0
 581 0 509 3 451 3 c 1
 451 2 l 1
 441 -39 l 1
 457 -42 511 -52 511 -101 c 0
 511 -174 415 -192 270 -192 c 2
 239 -192 l 2
 230 -192 213 -190 213 -174 c 0
 213 -167 218 -157 240 -156 c 1
 257 -156 l 2
 354 -156 404 -137 404 -102 c 0
 404 -84 384 -76 368 -73 c 0
 354 -70 332 -73 332 -51 c 0
 332 -43 340 -14 344 3 c 1
 273 2 235 1 215 1 c 2
 214 1 l 2
 196 1 181 1 181 20 c 0
EndSplineSet
EndChar

StartChar: Uring
Encoding: 366 366 160
Width: 881
Flags: HW
TeX: 894 0
ItalicCorrection: 172
HStem: -22 48<382.065 562.402> 638 48<223.539 325 458.116 576.438 706.539 805.059 866.8 984.463> 728 36<618.834 724.339> 870 37<635.229 742.276>
VStem: 216 128<79.7187 248.643> 562 54<767.02 854.178> 745 54<779.697 866.962>
DStem2: 160.481 -22 298.478 -22 0.242599 0.970127<201.276 678.256> 643.481 -22 706.731 -22 0.242599 0.970127<151.467 670.618>
LayerCount: 2
Fore
SplineSet
562 797 m 0
 562 847 609 907 704 907 c 0
 781 907 799 866 799 838 c 0
 799 789 753 728 657 728 c 0
 579 728 562 769 562 797 c 0
616 794 m 0
 616 767 640 764 668 764 c 0
 718 764 732 778 742 821 c 0
 743 827 745 834 745 841 c 0
 745 869 719 870 692 870 c 0
 643 870 629 855 619 813 c 0
 618 807 616 801 616 794 c 0
EndSplineSet
Refer: 94 85 S 1 0 0 1 -0 -0 3
EndChar

StartChar: Ydieresis
Encoding: 376 376 161
Width: 865
Flags: HW
TeX: 894 0
ItalicCorrection: 197
HStem: 0 48<263.462 383.104 509 610.538> 630 56<727.375 800> 638 48<212.382 310.684 458.796 548.381 864.161 981.521> 747 147<490.867 575.718 697.282 782.149>
VStem: 458 151<779.748 860.243> 664 151<779.305 860.659>
DStem2: 458 634 312 613 0.340574 -0.940218<0 299.88> 560 352 578 289 0.652643 0.757666<0 365.968>
AnchorPoint: "below" 431 0 basechar 0
AnchorPoint: "above" 655 896 basechar 0
LayerCount: 2
Fore
SplineSet
458 807 m 0
 458 850 499 894 547 894 c 0
 584 894 609 867 609 833 c 0
 609 789 567 747 520 747 c 0
 483 747 458 773 458 807 c 0
664 807 m 0
 664 851 706 894 753 894 c 0
 787 894 815 869 815 833 c 0
 815 787 770 747 726 747 c 0x9c
 689 747 664 773 664 807 c 0
EndSplineSet
Refer: 98 89 S 1 0 0 1 0 -0 3
EndChar

StartChar: Zacute
Encoding: 377 377 162
Width: 709
Flags: HW
TeX: 873 0
ItalicCorrection: 142
HStem: 0 52<259 496.216> 638 48<398.075 622>
VStem: 629 61<201.05 284.692>
DStem2: 115 59 259 52 0.658505 0.752577<89.5566 769.604>
AnchorPoint: "below" 357 0 basechar 0
AnchorPoint: "above" 580 893 basechar 0
LayerCount: 2
Fore
SplineSet
457 788 m 0
 457 805 471 810 482 816 c 0
 626 890 626 891 643 891 c 0
 669 891 687 871 687 845 c 0
 687 828 678 811 665 800 c 0
 648 786 637 785 497 758 c 0
 492 757 486 756 480 756 c 0
 462 756 457 774 457 788 c 0
EndSplineSet
Refer: 99 90 S 1 0 0 1 0 0 3
EndChar

StartChar: Zcaron
Encoding: 381 381 163
Width: 709
Flags: HW
TeX: 894 0
ItalicCorrection: 142
HStem: 0 52<259 496.216> 638 48<398.075 622> 778 91<500.175 587.658>
VStem: 629 61<201.05 284.692>
DStem2: 115 59 259 52 0.658505 0.752577<89.5566 769.604>
AnchorPoint: "below" 357 0 basechar 0
AnchorPoint: "above" 581 896 basechar 0
LayerCount: 2
Fore
SplineSet
402 877 m 0
 402 887 410 894 421 894 c 0
 434 894 537 869 553 869 c 0
 567 869 686 894 697 894 c 0
 709 894 716 887 716 877 c 0
 716 865 704 859 695 854 c 0
 564 787 548 778 539 778 c 2
 537 778 l 2
 529 778 526 781 423 852 c 0
 414 858 402 866 402 877 c 0
EndSplineSet
Refer: 99 90 S 1 0 0 1 -0 0 3
EndChar

StartChar: Zdotaccent
Encoding: 379 379 164
Width: 709
Flags: HW
TeX: 873 0
ItalicCorrection: 142
HStem: 0 52<259 496.216> 638 48<398.075 622> 774 147<552.56 638.125>
VStem: 520 150<806.511 888.26> 629 61<201.05 284.692>
DStem2: 115 59 259 52 0.658505 0.752577<89.5566 769.604>
AnchorPoint: "below" 357 0 basechar 0
AnchorPoint: "above" 588 923 basechar 0
LayerCount: 2
Fore
SplineSet
520 835 m 0
 520 876 559 921 609 921 c 0
 643 921 670 897 670 861 c 0
 670 815 627 774 582 774 c 0xf0
 545 774 520 801 520 835 c 0
EndSplineSet
Refer: 99 90 S 1 0 0 1 0 0 3
EndChar

StartChar: IJ
Encoding: 306 306 165
Width: 1001
Flags: HW
TeX: 690 0
ItalicCorrection: 144
HStem: -22 36<556.292 667.591> 0 48<59.5826 180 317 423.222> 638 48<218.517 325 462 582.499 726.485 860 991 1078.38>
VStem: 461 152<73.2644 153.709>
DStem2: 161.495 -22 298.995 -22 0.242599 0.970127<107.575 678.01> 695.454 -22 827.986 -22 0.242599 0.970127<112.94 678.262>
LayerCount: 2
Fore
SplineSet
59 20 m 0
 59 32 64 48 88 48 c 2
 105 48 l 2x70
 142 48 166 49 180 52 c 1
 325 636 l 1
 305 637 284 638 264 638 c 2
 245 638 l 2
 226 638 218 648 218 659 c 0
 218 664 220 686 246 686 c 0
 276 686 306 683 395 683 c 0
 496 683 537 686 556 686 c 2
 558 686 l 2
 566 686 583 685 583 666 c 0
 583 640 563 638 555 638 c 2
 533 638 l 2
 498 638 476 636 462 633 c 1
 317 50 l 1
 337 49 358 48 378 48 c 2
 397 48 l 2
 417 48 424 38 424 28 c 0
 424 24 422 0 396 0 c 0
 380 0 333 3 239 3 c 0
 150 3 110 0 89 0 c 0
 76 0 59 0 59 20 c 0
461 91 m 0
 461 147 503 188 551 188 c 0
 587 188 613 165 613 130 c 0
 613 100 593 54 541 43 c 1
 560 26 584 14 611 14 c 0
 720 14 746 179 747 185 c 2
 860 636 l 1
 820 639 780 638 760 638 c 2
 756 638 l 2
 743 638 726 638 726 658 c 0
 726 672 732 686 756 686 c 0
 770 686 812 683 897 683 c 2xb0
 953 683 l 2
 1013 683 1041 686 1055 686 c 0
 1069 686 1079 682 1079 666 c 0
 1079 658 1076 639 1052 638 c 1
 1039 638 l 2
 1023 638 1007 638 991 635 c 1
 877 174 l 2
 865 126 858 92 817 51 c 0
 765 -1 687 -22 618 -22 c 0
 524 -22 461 24 461 91 c 0
EndSplineSet
Ligature2: "Latin Dutch ligatures subtable" I J
EndChar

StartChar: Idotaccent
Encoding: 304 304 166
Width: 472
Flags: HW
TeX: 873 0
ItalicCorrection: 156
HStem: 0 48<59.5449 180 317 423.083> 638 48<219.432 325 462 582.568> 774 147<404.56 490.125>
VStem: 372 150<806.511 888.26>
DStem2: 166.996 0 304.497 0 0.242599 0.970127<84.8971 655.332>
LayerCount: 2
Fore
SplineSet
372 835 m 0
 372 876 411 921 461 921 c 0
 495 921 522 897 522 861 c 0
 522 815 479 774 434 774 c 0
 397 774 372 801 372 835 c 0
EndSplineSet
Refer: 82 73 S 1 0 0 1 -0 0 3
EndChar

StartChar: dcroat
Encoding: 273 273 167
Width: 591
Flags: HW
TeX: 690 0
ItalicCorrection: 108
HStem: -11 37<228.638 327.428 486.224 529.145> 419 37<322.426 421.78> 523 48<384.349 489 609 655.474> 636 47<450.087 516.119> 674 20G<462 617.5>
VStem: 104 108<61.4326 218.657> 570 53<81.3298 161.766>
DStem2: 355.47 -11 463.463 -11 0.242599 0.970127<97.3365 375.519 447.364 550.442 626.12 666.576>
LayerCount: 2
Fore
SplineSet
104 150 m 0
 104 293 212 456 374 456 c 0
 410 456 435 446 464 423 c 1
 489 523 l 1
 410 523 l 2
 391 523 384 533 384 544 c 0
 384 552 386 570 411 571 c 1
 501 571 l 1
 517 636 l 1
 480 640 450 631 450 659 c 0
 450 668 454 678 462 683 c 0xf6
 472 689 609 694 609 694 c 1
 626 694 632 688 632 674 c 0xee
 632 655 621 623 609 571 c 1
 629 571 l 2
 643 571 656 567 656 551 c 0
 656 525 635 523 627 523 c 0
 617 523 607 523 597 523 c 1
 494 114 l 2
 491 101 485 76 485 56 c 0
 485 39 489 26 504 26 c 0
 545 26 563 139 570 152 c 0
 575 161 585 162 594 162 c 0
 617 162 623 157 623 147 c 0
 623 143 596 -11 498 -11 c 0
 464 -11 422 2 396 41 c 1
 358 10 317 -11 264 -11 c 0
 202 -11 104 21 104 150 c 0
212 97 m 0
 212 40 246 26 269 26 c 0
 326 26 373 79 382 97 c 0
 385 103 446 346 446 354 c 0xe6
 446 376 422 419 374 419 c 0
 337 419 303 391 282 357 c 0
 249 301 212 146 212 97 c 0
EndSplineSet
AlternateSubs2: "Stilistic set 01 subtable" dcroat.vn
AlternateSubs2: "Latin alternatives subtable" dcroat.vn
Substitution2: "Latin Vietnamese substitutions subtable" dcroat.vn
EndChar

StartChar: section
Encoding: 167 167 168
Width: 549
Flags: HW
TeX: 690 194
HStem: -206 37<176.304 287.499> 669 37<386.135 496.55>
VStem: 96 110<-112.561 -44.3325> 162 70<164.98 298.337> 235 70<475.268 589.36> 368 71<-88.4765 1.68555> 441 70<201.92 366.417> 467 110<544.879 613.385>
LayerCount: 2
Fore
SplineSet
96 -101 m 0xee
 96 -45 136 -25 162 -25 c 0xdc
 187 -25 206 -43 206 -68 c 0xec
 206 -86 195 -117 158 -129 c 1
 168 -146 186 -169 228 -169 c 0
 310 -169 368 -73 368 -34 c 0
 368 4 308 22 272 39 c 0
 213 66 162 124 162 208 c 0
 162 298 217 356 273 387 c 1
 249 420 235 453 235 499 c 0
 235 627 349 706 448 706 c 0
 520 706 577 664 577 602 c 0xdd
 577 546 537 525 511 525 c 0xce
 486 525 467 542 467 568 c 0xcd
 467 586 479 618 516 629 c 1
 506 645 487 669 445 669 c 0
 363 669 305 574 305 534 c 0
 305 512 327 496 339 489 c 0
 375 468 511 439 511 292 c 0
 511 203 457 144 401 113 c 1
 401 112 l 1
 426 80 439 44 439 -0 c 0
 439 -123 327 -206 225 -206 c 0
 153 -206 96 -164 96 -101 c 0xee
232 242 m 0xde
 232 194 303 190 369 145 c 1
 422 185 441 236 441 259 c 0
 441 306 361 314 305 355 c 1
 253 319 232 265 232 242 c 0xde
EndSplineSet
EndChar

StartChar: aogonek
Encoding: 261 261 170
Width: 591
Flags: HW
TeX: 444 194
ItalicCorrection: 94
HStem: -216 52<444.116 519.163> -11 37<228.646 327.446 486.527 526.773> 419 37<322.426 421.226>
VStem: 104 108<61.3615 218.657> 351 76<-147.16 -65.8655> 446 116<297.935 398.468> 572 51<89.3194 161.988>
AnchorPoint: "above" 374 456 basechar 0
LayerCount: 2
Fore
SplineSet
104 150 m 0
 104 293 212 456 374 456 c 0
 413 456 444 443 472 416 c 1
 486 428 499 435 517 435 c 0
 539 435 562 422 562 393 c 0
 562 366 485 99 485 57 c 0
 485 36 493 26 504 26 c 0
 507 26 510 27 514 29 c 0
 551 49 561 141 572 155 c 0
 579 163 590 162 600 162 c 2
 601 162 l 2
 613 162 623 159 623 146 c 1
 623 146 598 -11 496 -11 c 2
 491 -11 l 1
 485 -15 427 -46 427 -98 c 0
 427 -133 456 -164 484 -164 c 0
 503 -164 509 -152 522 -152 c 0
 527 -152 539 -158 539 -168 c 0
 539 -183 503 -216 451 -216 c 0
 403 -216 351 -183 351 -127 c 0
 351 -77 395 -31 445 -1 c 1
 445 -0 l 1
 411 15 399 36 396 41 c 1
 365 15 322 -11 264 -11 c 0
 181 -11 104 37 104 150 c 0
212 97 m 0
 212 40 246 26 269 26 c 0
 326 26 373 79 382 97 c 0
 385 102 446 346 446 354 c 0
 446 369 427 419 374 419 c 0
 337 419 303 391 282 357 c 0
 249 301 212 146 212 97 c 0
EndSplineSet
EndChar

StartChar: dcaron
Encoding: 271 271 173
Width: 591
Flags: HW
TeX: 690 0
ItalicCorrection: 108
HStem: -11 37<228.638 327.428 486.585 528.88> 419 37<322.426 421.78> 603 147<706.74 780.342> 674 20<607 615>
VStem: 104 108<61.4326 218.657> 565 58<77.4506 161.892> 674 160<615.82 717.383>
DStem2: 355.47 -11 463.203 -11 0.242599 0.970127<96.3671 375.519 447.364 666.859>
LayerCount: 2
Fore
SplineSet
659 493 m 0
 659 515 731 519 781 615 c 1
 767 608 751 603 734 603 c 0
 698 603 674 626 674 661 c 0
 674 702 710 750 764 750 c 0xee
 806 750 834 718 834 674 c 0
 834 631 799 539 703 485 c 0
 695 480 684 475 676 475 c 0xde
 665 475 659 486 659 493 c 0
EndSplineSet
Refer: 109 100 S 1 0 0 1 0 0 3
EndChar

StartChar: ecaron
Encoding: 283 283 174
Width: 532
Flags: HW
TeX: 652 0
ItalicCorrection: 84
HStem: -11 36<246.254 389.494> 218 36<243 387.178> 419 37<337.09 449.368>
VStem: 108 109<73.4492 215.246> 466 66<303.806 405.216>
AnchorPoint: "below" 302 0 basechar 0
AnchorPoint: "above" 446 631 basechar 0
LayerCount: 2
Fore
SplineSet
308 635 m 0
 308 644 315 651 325 651 c 0
 338 651 434 585 446 576 c 1
 513 607 591 651 605 651 c 0
 618 651 622 640 622 635 c 0
 622 624 611 616 603 609 c 0
 439 477 441 475 429 475 c 0
 416 475 406 493 395 508 c 0
 312 620 308 625 308 635 c 0
EndSplineSet
Refer: 110 101 S 1 0 0 1 0 -0 3
EndChar

StartChar: eogonek
Encoding: 281 281 175
Width: 532
Flags: HW
TeX: 444 194
ItalicCorrection: 84
HStem: -216 56<333.353 426.132> -11 36<249.139 337> 218 36<243 387.246> 419 37<337.521 449.368>
VStem: 108 109<72.8568 216.119> 268 76<-148.388 -60.4904> 466 66<304.443 405.216>
AnchorPoint: "above" 402 456 basechar 0
LayerCount: 2
Fore
SplineSet
108 165 m 0
 108 321 229 456 402 456 c 0
 479 456 532 417 532 358 c 0
 532 314 504 260 427 236 c 0
 373 219 303 218 258 218 c 2
 233 218 l 1
 228 196 217 154 217 117 c 0
 217 56 249 25 302 25 c 0
 332 25 411 35 474 93 c 0
 484 102 495 116 505 116 c 0
 517 116 534 95 534 86 c 0
 534 72 500 39 454 18 c 0
 444 14 344 -17 344 -97 c 0
 344 -138 373 -160 394 -160 c 0
 417 -160 427 -141 441 -141 c 0
 450 -141 459 -150 459 -159 c 0
 459 -174 410 -216 358 -216 c 0
 310 -216 268 -180 268 -127 c 0
 268 -79 301 -38 337 -10 c 1
 324 -11 310 -11 297 -11 c 0
 176 -11 108 58 108 165 c 0
243 254 m 1
 362 254 466 275 466 359 c 0
 466 396 439 419 402 419 c 0
 370 419 278 405 243 254 c 1
EndSplineSet
EndChar

StartChar: gbreve
Encoding: 287 287 176
Width: 532
Flags: HW
TeX: 652 194
ItalicCorrection: 104
HStem: -206 37<151.049 277.09> 0 37<230.556 330.269> 419 37<322.032 422.82> 506 60<310.789 493.49>
VStem: 58 120<-155.069 -79.439> 106 108<71.4799 227.728> 256 38<587.307 650.839> 447 115<298.443 398.896> 546 42<600.916 650.491>
DStem2: 307.484 -206 413.989 -206 0.242599 0.970127<92.0006 241.206 281.146 579.719>
LayerCount: 2
Fore
SplineSet
256 613 m 0
 256 626 258 651 277 651 c 0
 287 651 294 643 294 631 c 2
 294 619 l 2xf280
 294 572 372 566 403 566 c 0
 454 566 522 581 546 623 c 0
 551 632 555 651 571 651 c 0
 581 651 588 642 588 633 c 0
 588 598 523 506 396 506 c 0
 314 506 256 549 256 613 c 0
EndSplineSet
Refer: 112 103 S 1 0 0 1 -0 -0 3
EndChar

StartChar: lacute
Encoding: 314 314 177
Width: 297
Flags: HW
TeX: 873 0
ItalicCorrection: 108
HStem: -11 37<193.297 234.74> 636 47<156.079 221.458> 674 20<167 321>
VStem: 90 101<28.4115 158.656> 276 52<85.4525 161.854>
DStem2: 61.99 -11 169.491 -11 0.242599 0.970127<103.612 666.733>
LayerCount: 2
Fore
SplineSet
281 788 m 0
 281 805 294 810 305 816 c 0
 449 890 449 891 466 891 c 0
 492 891 510 871 510 845 c 0
 510 828 501 811 488 800 c 0
 471 786 460 785 320 758 c 0
 315 757 309 756 303 756 c 0x98
 285 756 281 774 281 788 c 0
EndSplineSet
Refer: 117 108 S 1 0 0 1 0 0 3
EndChar

StartChar: lcaron
Encoding: 318 318 178
Width: 297
Flags: HW
TeX: 690 0
ItalicCorrection: 108
HStem: -11 37<193.297 234.74> 603 147<412.74 486.342> 636 47<156.079 221.458> 674 20<167 321>
VStem: 90 101<28.4115 158.656> 276 52<85.4525 161.854> 380 160<615.82 717.383>
DStem2: 61.99 -11 169.491 -11 0.242599 0.970127<103.612 666.733>
LayerCount: 2
Fore
SplineSet
365 493 m 0
 365 515 437 519 487 615 c 1
 473 608 457 603 440 603 c 0
 404 603 380 626 380 661 c 0
 380 702 416 750 470 750 c 0xce
 512 750 540 718 540 674 c 0
 540 631 505 539 409 485 c 0
 401 480 391 475 383 475 c 0x9e
 372 475 365 486 365 493 c 0
EndSplineSet
Refer: 117 108 S 1 0 0 1 0 0 3
EndChar

StartChar: lslash
Encoding: 322 322 179
Width: 355
Flags: HW
TeX: 690 0
ItalicCorrection: 108
HStem: -11 37<207.197 248.75> 674 20G<260.5 339.5>
VStem: 105 100<28.0135 160.431> 285 58<76.8805 161.677>
DStem2: 76.2297 -11 183.975 -11 0.242599 0.970127<119.032 299.961 348.093 439.239 483.81 663.342> 166 347 149 280 0.831872 0.554968<-110.202 -51.3247 158.614 241.218>
AnchorPoint: "above" 306 694 basechar 0
LayerCount: 2
Fore
SplineSet
75 276 m 0
 75 282 69 287 166 347 c 1
 238 636 l 1
 200 640 170 632 170 659 c 0
 170 694 199 687 322 694 c 1
 330 694 l 2
 349 694 353 684 353 677 c 0
 353 653 323 555 295 433 c 1
 353 472 360 478 369 478 c 0
 382 478 391 463 391 453 c 0
 391 441 380 434 371 428 c 0
 266 358 280 372 272 341 c 0
 225 151 205 86 205 55 c 0
 205 32 216 26 224 26 c 0
 258 26 278 112 285 139 c 0
 291 160 294 162 318 162 c 0
 337 162 343 155 343 146 c 0
 343 142 315 -11 219 -11 c 0
 162 -11 105 24 105 88 c 0
 105 107 104 102 149 280 c 1
 123 263 109 251 97 251 c 0
 87 251 75 265 75 276 c 0
EndSplineSet
EndChar

StartChar: nacute
Encoding: 324 324 180
Width: 650
Flags: HW
TeX: 652 0
ItalicCorrection: 94
HStem: -11 37<521.413 574.123> 418 37<170.706 213.463 389.676 493.857> 655 20G<547.5 573.5>
VStem: 77 52<282.086 358.5> 380 225<548 628> 425 96<26.1911 121.566> 502 102<253.413 412.376> 634 48<104.221 162.89>
DStem2: 120.245 -11 227.98 -11 0.242599 0.970127<44.2949 409.105>
LayerCount: 2
Fore
SplineSet
380 548 m 0
 380 559 389 565 404 576 c 0
 513 654 535 675 560 675 c 0
 587 675 605 652 605 628 c 0
 605 581 554 568 538 562 c 0
 419 519 410 515 405 515 c 0xf9
 386 515 380 544 380 548 c 0
EndSplineSet
Refer: 119 110 S 1 0 0 1 0 0 3
EndChar

StartChar: ncaron
Encoding: 328 328 181
Width: 650
Flags: HW
TeX: 652 0
ItalicCorrection: 94
HStem: -11 37<521.413 574.123> 418 37<170.706 213.463 389.676 493.857>
VStem: 77 52<282.086 358.5> 425 96<26.1911 121.566> 502 102<253.413 412.376> 634 48<104.221 162.89>
DStem2: 120.245 -11 227.98 -11 0.242599 0.970127<44.2949 409.105>
LayerCount: 2
Fore
SplineSet
286 635 m 0
 286 644 293 651 303 651 c 0
 316 651 412 585 424 576 c 1
 491 607 570 651 584 651 c 0xe4
 597 651 601 640 601 635 c 0
 601 624 589 616 581 609 c 0
 417 477 420 475 408 475 c 0
 395 475 385 493 374 508 c 0
 291 620 286 625 286 635 c 0
EndSplineSet
Refer: 119 110 S 1 0 0 1 0 -0 3
EndChar

StartChar: eng
Encoding: 331 331 182
Width: 650
Flags: HW
TeX: 444 194
ItalicCorrection: 94
HStem: -206 38<314.946 341.369> -11 21G<166 206.5> 418 37<171.574 213.435 390.331 493.836>
VStem: 77 58<282.471 366.876> 502 102<258.4 411.78>
AnchorPoint: "affricate-below" 601 -194 basechar 0
AnchorPoint: "affricate-above" 824 694 basechar 0
AnchorPoint: "below" 274 -194 basechar 0
AnchorPoint: "above" 437 456 basechar 0
LayerCount: 2
Fore
SplineSet
77 299 m 0
 77 301 104 455 202 455 c 0
 232 455 292 443 312 385 c 1
 344 418 392 456 465 456 c 0
 531 456 604 433 604 342 c 0
 604 279 560 174 544 126 c 0
 531 86 494 -206 326 -206 c 0
 278 -206 240 -175 240 -129 c 0
 240 -86 274 -54 311 -54 c 0
 337 -54 360 -72 360 -101 c 0
 360 -107 359 -114 358 -120 c 1
 405 1 418 91 428 115 c 0
 432 126 435 125 441 141 c 0
 493 279 502 342 502 363 c 0
 502 405 485 419 458 419 c 0
 430 419 371 410 318 327 c 0
 305 305 312 325 245 57 c 0
 244 55 235 -11 178 -11 c 0
 154 -11 133 6 133 31 c 0
 133 40 136 50 138 59 c 2
 201 311 l 2
 207 336 215 367 215 388 c 0
 215 403 211 418 197 418 c 0
 162 418 141 328 135 306 c 0
 130 286 127 282 102 282 c 0
 92 282 77 284 77 299 c 0
314 -167 m 1
 316 -167 318 -168 320 -168 c 0
 329 -168 336 -164 349 -140 c 1
 332 -156 l 1
 314 -167 l 1
EndSplineSet
EndChar

StartChar: ohungarumlaut
Encoding: 337 337 183
Width: 591
Flags: HW
TeX: 652 0
ItalicCorrection: 78
HStem: -11 36<244.683 360.925> 419 37<338.1 457.534> 515 160 562 113<605.003 671.844>
VStem: 106 110<70.4952 237.177> 293 225<548 628> 469 225<548 628> 485 110<210.206 374.427>
AnchorPoint: "below" 299 0 basechar 0
AnchorPoint: "above" 456 655 basechar 0
LayerCount: 2
Fore
SplineSet
469 548 m 0
 469 563 472 561 605 657 c 0
 616 665 632 675 649 675 c 0xda
 677 675 694 652 694 628 c 0
 694 581 643 568 627 562 c 0xda
 508 518 499 515 493 515 c 0xea
 477 515 469 536 469 548 c 0
EndSplineSet
Refer: 11 180 S 1 0 0 1 -87 0 2
Refer: 120 111 S 1 0 0 1 -0 -0 3
EndChar

StartChar: racute
Encoding: 341 341 184
Width: 502
Flags: HW
TeX: 652 0
ItalicCorrection: 111
HStem: -11 21<166 204> 418 37<170.795 213.923 372.858 485.271> 655 20G<473.5 500>
VStem: 77 53<282.055 361.831> 306 225<548 628> 439 121<311.25 382.033>
DStem2: 120.245 -11 227.496 -11 0.242599 0.970127<44.2044 407.954>
AnchorPoint: "below" 181 0 basechar 0
AnchorPoint: "above" 376 655 basechar 0
LayerCount: 2
Fore
SplineSet
306 548 m 0
 306 559 314 565 329 576 c 0
 438 655 461 675 486 675 c 0
 514 675 531 652 531 628 c 0
 531 581 479 567 464 562 c 0
 346 519 336 515 331 515 c 0xf8
 311 515 306 543 306 548 c 0
EndSplineSet
Refer: 123 114 S 1 0 0 1 0 -0 3
EndChar

StartChar: sacute
Encoding: 347 347 186
Width: 487
Flags: HW
TeX: 652 0
ItalicCorrection: 81
HStem: -11 36<174.087 335.05> 419 37<276.169 409.382> 515 160
VStem: 84 121<73.8887 147.125> 166 77<278.5 373.863> 299 225<548 628> 380 105<312.5 379.954> 387 76<83.6074 197>
AnchorPoint: "below" 248 0 basechar 0
AnchorPoint: "above" 401 655 basechar 0
LayerCount: 2
Fore
SplineSet
84 90 m 0
 84 137 117 169 156 169 c 0
 185 169 205 150 205 123 c 0
 205 88 179 64 155 56 c 1
 181 31 211 25 249 25 c 0
 307 25 363 38 383 103 c 0
 385 110 387 116 387 123 c 0xf1
 387 187 286 185 242 200 c 0
 190 218 166 259 166 298 c 0
 166 324 181 456 350 456 c 0
 433 456 485 420 485 365 c 0
 485 317 448 296 423 296 c 0
 398 296 380 314 380 337 c 0xea
 380 351 387 377 419 393 c 1
 399 412 379 419 347 419 c 0
 257 419 243 362 243 340 c 0
 243 286 322 292 374 274 c 0
 407 263 463 230 463 164 c 0xe9
 463 133 446 -11 249 -11 c 0
 116 -11 84 49 84 90 c 0
EndSplineSet
Refer: 11 180 S 1 0 0 1 -81 0 2
EndChar

StartChar: scaron
Encoding: 353 353 187
Width: 487
Flags: HW
TeX: 652 0
ItalicCorrection: 133
HStem: -11 36<173.849 334.818> 419 37<275.474 409.382>
VStem: 84 121<73.8887 146.606> 167 76<284 377.734> 380 105<312.5 379.954> 386 76<84.513 198.5>
AnchorPoint: "below" 248 0 basechar 0
AnchorPoint: "above" 395 631 basechar 0
LayerCount: 2
Fore
SplineSet
84 90 m 0
 84 136 117 169 156 169 c 0
 185 169 205 150 205 123 c 0
 205 104 194 69 155 56 c 1
 181 31 211 25 249 25 c 0
 373 25 386 99 386 119 c 0xe4
 386 180 284 183 229 208 c 0
 186 228 167 267 167 301 c 0
 167 325 180 456 350 456 c 0
 433 456 485 420 485 365 c 0
 485 317 448 296 423 296 c 0
 398 296 380 314 380 337 c 0xd8
 380 351 387 377 419 393 c 1
 399 412 379 419 347 419 c 0
 259 419 243 365 243 342 c 0xd8
 243 304 283 297 354 276 c 0
 397 263 462 236 462 161 c 0
 462 127 443 71 406 38 c 0
 384 18 343 -11 248 -11 c 0
 116 -11 84 49 84 90 c 0
244 635 m 0
 244 644 251 651 261 651 c 0
 275 651 382 576 382 576 c 1
 449 607 527 651 541 651 c 0xc0
 550 651 558 645 558 635 c 0
 558 624 547 616 539 609 c 0
 375 477 377 475 365 475 c 0
 352 475 342 493 331 508 c 0
 248 620 244 625 244 635 c 0
EndSplineSet
EndChar

StartChar: scedilla
Encoding: 351 351 188
Width: 487
Flags: HW
TeX: 444 170
ItalicCorrection: 81
HStem: -192 36<59.0116 219.435> 419 37<276.473 409.717>
VStem: 85 121<74.0305 146.322> 167 76<286 374.76> 250 107<-134.358 -77.1687> 381 105<312.862 382.197> 387 76<85.6102 194.998>
LayerCount: 2
Fore
SplineSet
59 -174 m 0
 59 -158 75 -156 86 -156 c 2
 104 -156 l 2
 222 -156 250 -128 250 -102 c 0
 250 -86 234 -77 215 -73 c 0
 201 -70 178 -73 178 -51 c 0
 178 -42 183 -28 188 -6 c 1
 139 5 85 30 85 90 c 0
 85 145 127 169 157 169 c 0
 183 169 206 153 206 123 c 0
 206 104 194 70 155 56 c 1
 175 37 190 34 200 34 c 0
 214 34 204 36 235 36 c 0xea
 245 36 255 36 265 36 c 0
 283 36 287 36 297 29 c 1
 326 36 367 48 384 103 c 0
 386 110 387 116 387 123 c 0xea
 387 131 385 148 365 164 c 0
 320 200 239 177 189 237 c 0
 176 253 167 273 167 299 c 0
 167 326 183 456 350 456 c 0
 434 456 486 420 486 365 c 0
 486 327 460 296 423 296 c 0
 399 296 381 312 381 337 c 0
 381 351 387 377 419 393 c 1
 399 412 380 419 348 419 c 0
 256 419 243 360 243 340 c 0xdc
 243 287 316 292 370 275 c 0
 414 261 463 226 463 163 c 0
 463 135 444 8 294 -9 c 1
 287 -39 l 1
 303 -42 357 -52 357 -101 c 0
 357 -174 259 -192 116 -192 c 0
 106 -192 97 -192 87 -192 c 0
 72 -192 59 -189 59 -174 c 0
EndSplineSet
EndChar

StartChar: tcaron
Encoding: 357 357 189
Width: 385
Flags: HW
TeX: 690 0
ItalicCorrection: 96
HStem: -11 37<222.857 286.281> 397 47<91.4495 193 313 414.423> 593 148<416.184 489.388>
VStem: 120 101<28.2218 164.773> 357 60<99.9501 161.625> 383 161<607.046 706.86>
DStem2: 91.7388 -11 198.74 -11 0.242599 0.970127<103.763 420.378 495.085 658.406>
LayerCount: 2
Fore
SplineSet
368 483 m 0
 368 495 384 500 389 503 c 0
 433 526 468 563 490 606 c 1
 477 599 461 593 444 593 c 0
 404 593 383 618 383 651 c 0
 383 692 419 741 473 741 c 0
 515 741 544 709 544 665 c 0
 544 617 502 527 413 476 c 0
 404 471 395 465 386 465 c 0xf4
 375 465 368 476 368 483 c 0
EndSplineSet
Refer: 125 116 S 1 0 0 1 0 0 3
EndChar

StartChar: tcommaaccent
Encoding: 355 355 190
Width: 385
Flags: HW
TeX: 639 170
ItalicCorrection: 96
HStem: -192 36<52.0124 212.435> 397 47<91.2949 193 312 414.423>
VStem: 119 101<36.5155 159.859> 243 107<-134.267 -77.1265 511.412 629.789>
DStem2: 46.2272 -192 153.229 -192 0.242599 0.970127<290.018 607.012 681.477 845.04>
LayerCount: 2
Fore
SplineSet
52 -174 m 0
 52 -167 56 -157 79 -156 c 1
 96 -156 l 2
 131 -156 243 -155 243 -103 c 0
 243 -67 187 -76 175 -63 c 0
 172 -60 171 -56 171 -51 c 0
 171 -39 176 -23 182 -1 c 1
 131 20 119 61 119 88 c 0
 119 104 124 119 128 135 c 2
 193 397 l 1
 116 397 l 2
 97 397 91 407 91 418 c 0
 91 426 94 443 119 444 c 1
 205 444 l 1
 208 458 212 473 240 585 c 0
 255 643 293 646 305 646 c 0
 329 646 350 629 350 604 c 0
 350 586 323 493 312 444 c 1
 388 444 l 2
 409 444 415 435 415 425 c 0
 415 418 413 398 387 397 c 1
 300 397 l 1
 229 111 l 2
 225 93 220 75 220 57 c 0
 220 50 220 43 222 36 c 1
 260 36 l 2
 274 36 282 37 300 53 c 0
 325 76 343 105 357 138 c 0
 367 161 370 162 391 162 c 0
 403 162 417 162 417 147 c 0
 417 131 376 43 302 5 c 0
 288 -3 289 -3 280 -39 c 1
 296 -42 350 -52 350 -101 c 0
 350 -174 252 -192 109 -192 c 0
 99 -192 90 -192 80 -192 c 0
 69 -192 52 -191 52 -174 c 0
EndSplineSet
EndChar

StartChar: uhungarumlaut
Encoding: 369 369 191
Width: 620
Flags: HW
TeX: 652 0
ItalicCorrection: 220
HStem: -11 37<281.124 364.738 515.21 557.971> 418 38<184.944 237.843> 562 113<438.245 508.265 619.003 685.594>
VStem: 77 58<282.287 357.465> 169 100<45.8758 243.009> 238 96<325.486 417.76> 483 225<548 628> 484 109<356.781 425.641> 595 57<74.7164 161.805>
AnchorPoint: "below" 309 0 basechar 0
AnchorPoint: "above" 474 655 basechar 0
LayerCount: 2
Fore
SplineSet
77 299 m 0
 77 319 126 456 230 456 c 0
 285 456 334 419 334 365 c 0xf4
 334 326 310 299 299 270 c 0
 292 252 270 166 269 107 c 0
 269 75 272 26 315 26 c 0
 361 26 397 72 409 92 c 0
 415 103 417 115 420 127 c 2
 484 385 l 2
 497 435 531 444 549 444 c 0
 573 444 593 428 593 402 c 0
 593 372 514 104 514 57 c 0
 514 31 525 26 533 26 c 0
 568 26 588 112 595 139 c 0
 601 161 609 162 624 162 c 0
 643 162 652 158 652 146 c 0xf980
 652 144 626 -11 527 -11 c 0
 485 -11 449 7 427 39 c 1
 392 9 363 -11 308 -11 c 0
 264 -11 169 3 169 135 c 0xf980
 169 193 189 266 194 279 c 0
 203 303 238 355 238 399 c 0
 238 413 232 418 223 418 c 0
 205 418 164 403 135 304 c 0
 129 283 123 282 102 282 c 0
 92 282 77 284 77 299 c 0
307 548 m 0
 307 559 315 565 330 576 c 0
 439 655 461 675 486 675 c 0
 514 675 531 652 531 628 c 0
 531 581 478 567 464 562 c 0
 346 519 336 515 331 515 c 0
 311 515 307 543 307 548 c 0
483 548 m 0
 483 563 490 564 619 657 c 0
 630 665 644 675 662 675 c 0xf2
 690 675 708 652 708 628 c 0
 708 581 656 567 641 562 c 0
 523 519 513 515 508 515 c 0
 491 515 483 536 483 548 c 0
EndSplineSet
EndChar

StartChar: uring
Encoding: 367 367 192
Width: 620
Flags: HW
TeX: 652 0
ItalicCorrection: 94
HStem: -11 37<271.69 367.876 515.422 557.8> 418 38<184.967 237.844> 492 35<390.105 499.904> 630 35<406.752 517.633>
VStem: 159 101<36.3901 202.044> 238 96<322.281 417.759> 334 55<528.945 617.355> 484 109<356.682 425.641> 519 54<540.545 628.143> 595 57<77.0784 161.704>
LayerCount: 2
Fore
SplineSet
77 299 m 0
 77 319 126 456 230 456 c 0
 285 456 334 419 334 365 c 0xf640
 334 316 260 191 260 90 c 0
 260 56 271 26 314 26 c 0
 345 26 372 43 392 65 c 0
 416 91 413 96 418 118 c 2
 484 385 l 2
 497 435 529 444 549 444 c 0
 573 444 593 428 593 402 c 0xfb40
 593 372 514 104 514 57 c 0
 514 31 525 26 533 26 c 0
 568 26 588 112 595 139 c 0
 601 162 609 162 628 162 c 0
 640 162 652 161 652 146 c 0
 652 140 622 -11 528 -11 c 0
 491 -11 451 3 426 40 c 1
 392 9 360 -11 305 -11 c 0
 234 -11 159 13 159 110 c 0xfb40
 159 209 238 350 238 400 c 0
 238 410 235 418 223 418 c 0
 212 418 194 412 175 389 c 0
 123 324 153 282 103 282 c 0
 91 282 77 286 77 299 c 0
334 553 m 0
 334 587 352 622 377 640 c 0
 408 663 448 665 478 665 c 0
 530 665 573 653 573 604 c 0
 573 568 558 492 430 492 c 0
 377 492 334 504 334 553 c 0
389 551 m 0xf2c0
 389 531 404 527 437 527 c 0
 494 527 504 531 517 590 c 0
 518 596 519 602 519 606 c 0
 519 626 506 630 470 630 c 0
 423 630 406 628 395 585 c 0
 392 575 389 563 389 551 c 0xf2c0
EndSplineSet
EndChar

StartChar: ydieresis
Encoding: 255 255 193
Width: 562
Flags: HW
TeX: 652 194
ItalicCorrection: 104
HStem: -206 37<181.188 289.44> -11 37<272.005 367.428> 418 38<184.944 237.908> 539 147<287.689 372.311 494.282 579.125>
VStem: 77 58<282.34 357.047> 107 73<-161.959 -138.806> 159 101<35.973 203.496> 238 96<319.538 417.539> 255 150<570.461 652.907> 461 150<571.305 652.659>
DStem2: 336.235 -206 443.484 -206 0.242599 0.970127<138.339 225.744 260.278 651.72>
AnchorPoint: "below" 215 -194 basechar 0
AnchorPoint: "above" 477 666 basechar 0
LayerCount: 2
Fore
SplineSet
77 299 m 0
 77 319 125 456 230 456 c 0
 286 456 334 418 334 365 c 0xf940
 334 317 260 190 260 90 c 0xf240
 260 44 281 26 313 26 c 0
 354 26 392 58 407 83 c 0
 413 93 414 105 417 116 c 2
 482 376 l 2
 485 388 495 444 549 444 c 0
 573 444 593 428 593 402 c 0
 593 393 592 386 590 378 c 2
 500 20 l 2
 493 -8 476 -100 370 -165 c 0
 322 -194 273 -206 232 -206 c 0
 159 -206 107 -169 107 -115 c 0
 107 -61 150 -39 178 -39 c 0
 206 -39 227 -57 227 -85 c 0
 227 -102 218 -136 180 -151 c 1
 180 -152 l 1xf440
 195 -162 210 -169 233 -169 c 0
 296 -169 364 -102 391 13 c 1
 353 -10 324 -11 311 -11 c 2
 306 -11 l 2
 233 -11 159 13 159 110 c 0xf240
 159 205 238 348 238 399 c 0
 238 411 234 418 223 418 c 0
 205 418 165 403 135 303 c 0
 129 283 122 282 102 282 c 0
 91 282 77 284 77 299 c 0
255 599 m 0
 255 641 296 686 343 686 c 0
 380 686 405 659 405 625 c 0xf0c0
 405 581 364 539 317 539 c 0
 280 539 255 566 255 599 c 0
461 599 m 0
 461 643 503 686 550 686 c 0
 587 686 611 658 611 625 c 0
 611 579 568 539 523 539 c 0xf040
 486 539 461 565 461 599 c 0
EndSplineSet
EndChar

StartChar: zcaron
Encoding: 382 382 195
Width: 490
Flags: HW
TeX: 652 0
ItalicCorrection: 138
HStem: -11 106<281.873 416.688> 59 37<195 241.455> 348 38<384.537 405> 350 105<216.176 374.561>
AnchorPoint: "below" 274 0 basechar 0
AnchorPoint: "above" 432 631 basechar 0
LayerCount: 2
Fore
SplineSet
260 635 m 0
 260 644 267 651 277 651 c 0
 290 651 386 585 398 576 c 1
 465 607 543 651 557 651 c 0x00
 570 651 574 640 574 635 c 0
 574 624 563 616 555 609 c 0
 391 477 394 475 382 475 c 0
 369 475 358 493 347 508 c 0
 264 620 260 625 260 635 c 0
EndSplineSet
Refer: 131 122 S 1 0 0 1 0 -0 3
EndChar

StartChar: zdotaccent
Encoding: 380 380 196
Width: 490
Flags: HW
TeX: 690 0
ItalicCorrection: 138
HStem: -11 106<281.873 416.688> 59 37<195 241.455> 348 38<384.537 405> 350 105<216.176 374.561> 577 116<378.75 455.875>
VStem: 358 119<598.25 672.053>
AnchorPoint: "below" 274 0 basechar 0
AnchorPoint: "above" 442 673 basechar 0
LayerCount: 2
Fore
SplineSet
358 625 m 0
 358 658 390 693 428 693 c 0
 457 693 477 672 477 645 c 0
 477 611 444 577 407 577 c 0x0c
 380 577 358 596 358 625 c 0
EndSplineSet
Refer: 131 122 S 1 0 0 1 -0 -0 3
EndChar

StartChar: ij
Encoding: 307 307 197
Width: 650
Flags: HW
TeX: 690 194
ItalicCorrection: 113
HStem: -206 38<344.739 404.929> -11 37<227.092 279.715> 418 38<184.873 237.908 498.606 566.092> 577 116<272.732 348.973 607.181 684.248>
VStem: 131 96<26.7412 121.457> 238 96<322.823 417.759> 251 119<597.5 671.75> 264 120<-151.826 -80> 336 52<99.2766 161.941> 372 60<282.458 345.05> 568 101<280.18 416.606> 587 118<597.947 672.5>
DStem2: 424.487 -206 531.24 -206 0.242599 0.970127<100.055 604.497>
LayerCount: 2
Fore
SplineSet
77 299 m 0
 77 320 127 456 230 456 c 0
 286 456 334 419 334 365 c 0
 334 317 227 95 227 45 c 0
 227 34 230 26 244 26 c 0
 303 26 330 147 336 155 c 0
 340 160 346 162 357 162 c 2
 363 162 l 2
 382 162 388 157 388 147 c 0
 388 122 337 -11 235 -11 c 0
 179 -11 131 26 131 80 c 0
 131 127 238 349 238 399 c 0xfc80
 238 410 235 418 221 418 c 0
 208 418 189 409 170 383 c 0
 124 319 147 283 108 282 c 1
 103 282 l 2
 94 282 77 283 77 299 c 0
251 625 m 0
 251 659 285 693 322 693 c 0
 351 693 370 672 370 645 c 0xfa
 370 609 335 577 300 577 c 0
 271 577 251 599 251 625 c 0
264 -132 m 0
 264 -92 296 -58 335 -58 c 0
 364 -58 384 -77 384 -104 c 0xf920
 384 -119 378 -146 344 -167 c 1
 349 -168 353 -168 357 -168 c 0
 380 -168 436 -158 470 -24 c 2
 557 321 l 2
 567 361 568 374 568 388 c 0
 568 410 560 419 546 419 c 0
 523 419 473 399 432 307 c 0
 421 283 418 282 399 282 c 2
 398 282 l 2
 386 282 372 282 372 297 c 0xf860
 372 320 442 456 553 456 c 0
 618 456 669 416 669 357 c 0
 669 335 661 312 658 298 c 2
 575 -33 l 2
 572 -44 570 -56 566 -67 c 0
 531 -167 421 -206 357 -206 c 0
 292 -206 264 -167 264 -132 c 0
587 625 m 0
 587 661 621 693 656 693 c 0
 685 693 705 672 705 645 c 0
 705 612 673 577 635 577 c 0xf810
 606 577 587 598 587 625 c 0
EndSplineSet
Ligature2: "Latin Dutch ligatures subtable" i j
EndChar

StartChar: exclamdown
Encoding: 161 161 198
Width: 386
Flags: HW
TeX: 499 194
ItalicCorrection: 65
HStem: 352 148<257.282 342.125>
VStem: 80 152<-185.459 -86.6562> 224 150<384.511 466.659> 224 62<250 279.812>
LayerCount: 2
Fore
SplineSet
80 -160 m 0xc0
 80 -148 84 -138 87 -128 c 2
 224 250 l 2
 234 276 234 281 262 281 c 0
 282 281 286 274 286 262 c 0x90
 286 256 285 249 284 241 c 2
 232 -133 l 2xc0
 222 -208 161 -216 143 -216 c 0
 108 -216 80 -194 80 -160 c 0xc0
224 413 m 0
 224 457 266 500 313 500 c 0
 347 500 374 475 374 439 c 0xa0
 374 393 331 352 286 352 c 0x90
 249 352 224 379 224 413 c 0
EndSplineSet
EndChar

StartChar: questiondown
Encoding: 191 191 199
Width: 591
Flags: HW
TeX: 499 194
HStem: -216 36<181.365 313.312> 243 38<308.837 371.112> 352 148<359.694 442.907>
VStem: 100 58<-159.508 -47.6749> 226 57<172.167 219.88> 326 150<385.093 466.453> 372 58<182.433 242.384> 381 120<-51.8906 33.4272>
LayerCount: 2
Fore
SplineSet
100 -92 m 0
 100 -22 140 37 189 73 c 0
 297 153 372 173 372 224 c 0xfa
 372 234 369 243 354 243 c 0
 333 243 298 226 283 190 c 0
 278 178 275 173 259 172 c 0
 256 172 253 172 250 172 c 0
 241 172 226 173 226 188 c 0
 226 220 282 281 359 281 c 0
 400 281 430 257 430 208 c 0xfa
 430 178 419 138 392 109 c 0
 379 95 375 95 223 -6 c 0
 184 -32 158 -69 158 -111 c 0
 158 -159 196 -180 244 -180 c 0
 325 -180 388 -115 419 -60 c 1
 399 -54 381 -42 381 -15 c 0
 381 24 417 55 452 55 c 0
 478 55 501 38 501 9 c 0xf9
 501 -52 402 -216 242 -216 c 0
 158 -216 100 -172 100 -92 c 0
326 413 m 0
 326 454 365 500 415 500 c 0
 449 500 476 475 476 439 c 0
 476 393 432 352 387 352 c 0xfc
 350 352 326 379 326 413 c 0
EndSplineSet
EndChar

StartChar: sterling
Encoding: 163 163 200
Width: 868
Flags: HW
TeX: 690 0
HStem: -11 67<451.381 604.121> -11 37<165.128 240.03> 71 68<168.633 266.803> 323 48<279.106 351 470 571.948> 463 116<679.752 727.635> 673 37<583.242 695.507>
VStem: 99 66<26.0267 63.9537> 652 58<96.5142 152.752> 659 124<489.222 558.206>
DStem2: 265.99 -11 374.477 -11 0.242599 0.970127<146.717 344.646 420.081 647.7>
LayerCount: 2
Fore
SplineSet
99 38 m 0
 99 81 155 139 250 139 c 0
 269 139 284 136 302 133 c 1
 351 323 l 1
 304 323 l 2
 287 323 278 326 278 339 c 0
 278 347 280 370 303 371 c 1
 363 371 l 1
 371 407 403 532 409 549 c 0
 457 680 574 710 643 710 c 0
 730 710 783 648 783 566 c 0
 783 482 738 463 708 463 c 0
 679 463 659 482 659 509 c 0x7e80
 659 533 676 573 728 579 c 1
 722 655 677 673 643 673 c 0
 635 673 592 672 557 634 c 0
 531 606 519 582 470 371 c 1
 551 371 l 2
 568 371 573 364 573 355 c 0
 573 346 571 324 547 323 c 1
 458 323 l 1
 409 127 416 147 392 102 c 1
 424 90 488 56 547 56 c 0
 607 56 641 103 652 131 c 0
 659 148 660 153 680 153 c 2
 684 153 l 2
 698 153 710 152 710 137 c 0
 710 101 639 -11 516 -11 c 0xbf
 452 -11 390 19 337 42 c 1
 293 7 235 -11 180 -11 c 0
 113 -11 99 18 99 38 c 0
165 40 m 0x7e
 165 29 175 26 184 26 c 0
 192 26 232 29 267 66 c 1
 262 67 238 71 219 71 c 0
 183 71 165 53 165 40 c 0x7e
EndSplineSet
EndChar

StartChar: Acircumflex
Encoding: 194 194 203
Width: 865
Flags: HW
TeX: 894 0
HStem: 0 58<76.8429 193.423 247 329.605> 3 45<470.373 572 709.017 801.909> 189 48<356 552> 685 20<597 626>
DStem2: 200 90 247 58 0.520685 0.853749<-2.60019 150.127 206.728 526.235> 644 667 522 510 0.108839 -0.994059<142.789 417.432 465.8 602.34>
AnchorPoint: "below" 431 0 basechar 0
AnchorPoint: "above" 656 887 basechar 0
LayerCount: 2
Fore
SplineSet
470 772 m 0
 470 781 476 787 488 795 c 0
 645 903 643 904 653 904 c 2
 654 904 l 2
 663 904 663 904 754 808 c 0
 778 783 780 779 780 772 c 0
 780 761 761 740 746 740 c 0
 735 740 675 792 642 823 c 1
 599 800 509 740 495 740 c 0x30
 480 740 470 763 470 772 c 0
EndSplineSet
Refer: 74 65 S 1 0 0 1 0 -0 3
AlternateSubs2: "Stilistic set 01 subtable" Acircumflex.vn
AlternateSubs2: "Latin alternatives subtable" Acircumflex.vn
Substitution2: "Latin Vietnamese substitutions subtable" Acircumflex.vn
EndChar

StartChar: Atilde
Encoding: 195 195 204
Width: 865
Flags: HW
TeX: 894 0
HStem: 0 58<76.8429 193.423 247 329.605> 3 45<470.373 572 709.017 801.909> 189 48<356 552> 685 20<597 626> 789 57<662.964 784.044> 837 57<501.257 619.644>
DStem2: 200 90 247 58 0.520685 0.853749<-2.60019 150.127 206.728 526.235> 644 667 522 510 0.108839 -0.994059<142.789 417.432 465.8 602.34>
AnchorPoint: "below" 431 0 basechar 0
AnchorPoint: "above" 653 877 basechar 0
LayerCount: 2
Fore
SplineSet
429 807 m 0
 429 818 440 825 447 832 c 0
 477 859 521 894 574 894 c 0x34
 641 894 678 846 732 846 c 0
 786 846 820 893 838 893 c 0
 847 893 855 884 855 876 c 0
 855 866 845 857 838 851 c 0
 802 819 761 789 710 789 c 0x38
 641 789 604 837 551 837 c 0x34
 497 837 464 790 446 790 c 0
 438 790 429 797 429 807 c 0
EndSplineSet
Refer: 74 65 S 1 0 0 1 -0 0 3
AlternateSubs2: "Stilistic set 01 subtable" Atilde.vn
AlternateSubs2: "Latin alternatives subtable" Atilde.vn
Substitution2: "Latin Vietnamese substitutions subtable" Atilde.vn
EndChar

StartChar: Adieresis
Encoding: 196 196 205
Width: 865
Flags: HW
TeX: 894 0
HStem: 0 58<76.8429 193.423 247 329.605> 3 45<470.373 572 709.017 801.909> 189 48<356 552> 685 20<597 626> 747 147<490.867 575.718 697.282 782.149>
VStem: 458 151<779.748 860.243> 664 151<779.305 860.659>
DStem2: 200 90 247 58 0.520685 0.853749<-2.60019 150.127 206.728 526.235> 644 667 522 510 0.108839 -0.994059<142.789 417.432 465.8 602.34>
AnchorPoint: "below" 431 0 basechar 0
AnchorPoint: "above" 653 877 basechar 0
LayerCount: 2
Fore
SplineSet
458 807 m 0
 458 850 499 894 547 894 c 0
 584 894 609 867 609 833 c 0
 609 789 567 747 520 747 c 0
 483 747 458 773 458 807 c 0
664 807 m 0
 664 851 706 894 753 894 c 0
 790 894 815 867 815 833 c 0
 815 787 770 747 726 747 c 0x3e
 689 747 664 773 664 807 c 0
EndSplineSet
Refer: 74 65 S 1 0 0 1 0 -0 3
EndChar

StartChar: Aring
Encoding: 197 197 206
Width: 865
Flags: HW
TeX: 852 0
HStem: 0 58<75.5332 194.575 247 329.736 474.676 572> 0 48<470.679 570.967 709.693 802.44> 189 48<356 552> 870 37<597.843 690.781>
VStem: 508 53<709.567 828.927> 696 53<744.842 865.405>
DStem2: 201 90 326 189 0.519854 0.854255<-3.27297 149.553 206.153 525.66> 659 534 522 510 0.10876 -0.994068<8.95749 283.601 331.969 469.361>
LayerCount: 2
Fore
SplineSet
72 20 m 0
 72 65 123 36 172 59 c 0
 185 66 194 78 201 90 c 2
 557 675 l 1
 523 690 508 717 508 752 c 0
 508 821 562 907 658 907 c 0
 716 907 749 873 749 823 c 0
 749 762 709 696 644 676 c 1
 644 675 l 1
 649 628 654 581 659 534 c 2
 708 85 l 2
 712 49 710 51 734 49 c 0
 745 49 755 48 766 48 c 0
 787 48 803 48 803 28 c 0
 803 20 800 0 775 0 c 0x7c
 761 0 720 3 637 3 c 0
 552 3 509 0 495 0 c 0xbc
 476 0 470 10 470 20 c 0
 470 27 473 48 500 48 c 0x7c
 526 48 550 48 572 53 c 1
 558 189 l 1
 326 189 l 1
 247 58 l 1xbc
 299 41 331 57 331 28 c 0
 331 20 328 0 304 0 c 0xbc
 293 0 259 3 191 3 c 0
 133 3 104 1 94 1 c 0
 77 1 72 12 72 20 c 0
356 237 m 1
 552 237 l 1
 522 510 l 1
 356 237 l 1
561 744 m 0
 561 721 574 705 608 705 c 0
 675 705 684 764 693 805 c 0
 695 814 696 823 696 832 c 0x3c
 696 847 691 870 649 870 c 0
 582 870 573 811 564 770 c 0
 562 762 561 753 561 744 c 0
EndSplineSet
EndChar

StartChar: AE
Encoding: 198 198 207
Width: 1023
Flags: HW
TeX: 690 0
ItalicCorrection: 114
HStem: 0 58<249 330.572> 0 48<401.478 492.999 617 832.451> 306 48<433 552 694 805.895> 638 48<474.405 544 596.019 635 764.75 969.779>
VStem: 853 63<391.203 468.05> 993 78<474.019 614.976>
DStem2: 201 88 249 58 0.527667 0.849452<-0.155556 291.769 348.373 648.188> 475.995 0 604.747 0 0.242599 0.970127<81.7438 315.297 396.313 654.605>
AnchorPoint: "below" 514 0 basechar 0
AnchorPoint: "above" 717 708 basechar 0
LayerCount: 2
Fore
SplineSet
73 20 m 0
 73 67 131 37 175 61 c 0
 186 67 194 77 201 88 c 2
 544 638 l 1
 502 638 l 2
 490 638 474 640 474 659 c 0
 474 672 480 686 505 686 c 2
 1043 686 l 2
 1056 686 1071 684 1071 664 c 0
 1071 657 1056 537 1049 474 c 0
 1046 450 1041 444 1019 444 c 0
 998 444 993 452 993 468 c 0
 993 483 998 506 998 537 c 0
 998 622 958 638 860 638 c 0
 844 638 828 638 812 638 c 0
 796 638 780 639 764 637 c 1
 694 354 l 1
 739 354 l 2
 787 354 831 356 853 423 c 0
 864 457 861 470 889 470 c 0
 905 470 916 467 916 450 c 0
 916 444 915 437 914 434 c 0
 853 191 861 189 829 189 c 0
 813 189 801 197 801 209 c 0
 801 221 810 243 810 265 c 0
 810 303 781 306 733 306 c 2
 682 306 l 1
 617 49 l 1
 630 48 643 48 656 48 c 0
 672 48 688 48 704 48 c 0
 859 48 897 98 962 243 c 0
 971 263 972 275 998 275 c 2
 1000 275 l 2
 1014 275 1024 269 1024 256 c 0
 1024 247 1026 252 930 27 c 0
 921 7 917 0 897 0 c 2
 430 0 l 2
 420 0 401 1 401 19 c 0
 401 47 420 48 428 48 c 0x7c
 430 48 432 48 434 48 c 0x7c
 489 48 489 51 493 68 c 2
 552 306 l 1
 403 306 l 1
 249 58 l 1
 295 42 332 57 332 28 c 0
 332 20 329 0 305 0 c 0xbc
 292 0 265 3 192 3 c 0
 134 3 105 1 95 1 c 0
 78 1 73 12 73 20 c 0
433 354 m 1
 565 354 l 1x3c
 635 635 l 1
 628 635 623 636 619 636 c 0
 609 636 606 633 595 615 c 2
 433 354 l 1
EndSplineSet
EndChar

StartChar: Ccedilla
Encoding: 199 199 208
Width: 826
Flags: HW
TeX: 690 170
ItalicCorrection: 142
HStem: -192 36<277.012 436.179> -19 45<399 402 508 575.367> 660 48<536.064 721.264>
VStem: 161 135<128.927 337.728> 467 108<-134.447 -77.1336> 733 60<174.363 247.574> 788 120<466.236 698.5>
AnchorPoint: "above" 631 708 basechar 0
LayerCount: 2
Fore
SplineSet
161 241 m 0
 161 462 338 708 631 708 c 0
 696 708 750 687 794 640 c 1
 858 688 871 708 890 708 c 0
 897 708 908 705 908 692 c 0
 908 687 908 687 849 450 c 0
 844 431 841 426 820 426 c 2
 813 426 l 2
 790 426 785 432 785 445 c 0
 785 455 788 469 788 487 c 0xfa
 788 577 745 660 644 660 c 0
 607 660 480 652 394 528 c 0
 329 435 296 262 296 199 c 0
 296 60 399 26 480 26 c 0
 600 26 699 123 733 219 c 0
 740 239 738 248 762 248 c 2
 771 248 l 2
 788 248 793 241 793 232 c 0
 793 188 701 11 508 -18 c 1
 504 -39 l 1
 520 -42 575 -52 575 -101 c 0
 575 -174 475 -192 333 -192 c 2xfc
 304 -192 l 2
 294 -192 277 -191 277 -174 c 0
 277 -164 286 -156 304 -156 c 2
 321 -156 l 2
 440 -156 467 -128 467 -103 c 0
 467 -88 453 -77 432 -73 c 0
 418 -70 395 -74 395 -51 c 0
 395 -45 396 -41 402 -19 c 1
 260 -3 161 85 161 241 c 0
EndSplineSet
EndChar

StartChar: Egrave
Encoding: 200 200 209
Width: 756
Flags: HW
TeX: 873 0
ItalicCorrection: 114
HStem: 0 48<65.5257 179.385 317 561.405> 329 48<399 502.388> 633 47<223.336 324 462.75 696.691>
VStem: 497 65<216.145 287.97> 725 78<461.926 605.227>
DStem2: 166.996 0 304.747 0 0.242599 0.970127<83.927 372.544 422.022 649.269>
AnchorPoint: "below" 376 0 basechar 0
AnchorPoint: "above" 601 899 basechar 0
LayerCount: 2
Fore
SplineSet
487 827 m 0
 487 857 516 891 549 891 c 0
 571 891 575 885 674 816 c 0
 687 807 694 801 694 791 c 0
 694 782 682 756 663 756 c 2
 662 756 l 2
 657 756 655 756 544 780 c 0
 523 784 487 790 487 827 c 0
EndSplineSet
Refer: 78 69 S 1 0 0 1 -0 0 3
AlternateSubs2: "Stilistic set 01 subtable" Egrave.vn
AlternateSubs2: "Latin alternatives subtable" Egrave.vn
Substitution2: "Latin Vietnamese substitutions subtable" Egrave.vn
EndChar

StartChar: Eacute
Encoding: 201 201 210
Width: 756
Flags: HW
TeX: 873 0
ItalicCorrection: 114
HStem: 0 48<65.5257 179.385 317 561.405> 329 48<399 502.388> 633 47<223.336 324 462.75 696.691>
VStem: 497 65<216.145 287.97> 725 78<461.926 605.227>
DStem2: 166.996 0 304.747 0 0.242599 0.970127<83.927 372.544 422.022 649.269>
AnchorPoint: "below" 376 0 basechar 0
AnchorPoint: "above" 601 899 basechar 0
LayerCount: 2
Fore
SplineSet
520 788 m 0
 520 805 534 810 545 816 c 0
 689 890 688 891 705 891 c 0
 731 891 749 871 749 845 c 0
 749 828 741 811 728 800 c 0
 711 786 700 786 560 759 c 0
 555 758 549 756 543 756 c 0
 525 756 520 774 520 788 c 0
EndSplineSet
Refer: 78 69 S 1 0 0 1 0 0 3
AlternateSubs2: "Stilistic set 01 subtable" Eacute.vn
AlternateSubs2: "Latin alternatives subtable" Eacute.vn
Substitution2: "Latin Vietnamese substitutions subtable" Eacute.vn
EndChar

StartChar: Ecircumflex
Encoding: 202 202 211
Width: 756
Flags: HW
TeX: 894 0
ItalicCorrection: 114
HStem: 0 48<65.5257 179.385 317 561.405> 329 48<399 502.388> 633 47<223.336 324 462.75 696.691>
VStem: 497 65<216.145 287.97> 725 78<461.926 605.227>
DStem2: 166.996 0 304.747 0 0.242599 0.970127<83.927 372.544 422.022 649.269>
AnchorPoint: "below" 376 0 basechar 0
AnchorPoint: "above" 604 912 basechar 0
LayerCount: 2
Fore
SplineSet
425 772 m 0
 425 781 431 787 443 795 c 0
 600 903 599 904 609 904 c 0
 618 904 619 904 710 808 c 0
 734 783 735 779 735 772 c 0
 735 759 714 740 702 740 c 0
 691 740 684 748 646 781 c 2
 597 823 l 1
 554 800 465 740 451 740 c 0
 436 740 425 762 425 772 c 0
EndSplineSet
Refer: 78 69 S 1 0 0 1 0 0 3
AlternateSubs2: "Stilistic set 01 subtable" Ecircumflex.vn
AlternateSubs2: "Latin alternatives subtable" Ecircumflex.vn
Substitution2: "Latin Vietnamese substitutions subtable" Ecircumflex.vn
EndChar

StartChar: Edieresis
Encoding: 203 203 212
Width: 756
Flags: HW
TeX: 894 0
ItalicCorrection: 114
HStem: 0 48<65.5257 179.385 317 561.405> 329 48<399 502.388> 633 47<223.336 324 462.75 696.691> 747 147<653.918 737.718> 747 148<446.56 532.44>
VStem: 414 151<780.093 861.907> 497 65<216.145 287.97> 620 151<779.748 860.692> 725 78<461.926 605.227>
DStem2: 166.996 0 304.747 0 0.242599 0.970127<83.927 372.544 422.022 649.269>
AnchorPoint: "below" 376 0 basechar 0
AnchorPoint: "above" 602 903 basechar 0
LayerCount: 2
Fore
SplineSet
620 807 m 0
 620 855 667 894 709 894 c 0
 746 894 771 867 771 833 c 0
 771 789 729 747 682 747 c 0xf1
 645 747 620 773 620 807 c 0
EndSplineSet
Refer: 20 729 S 1 0 0 1 143 200 2
Refer: 78 69 S 1 0 0 1 -0 0 3
EndChar

StartChar: Igrave
Encoding: 204 204 213
Width: 472
Flags: HW
TeX: 873 0
ItalicCorrection: 156
HStem: 0 48<59.5449 180 317 423.083> 638 48<219.432 325 462 582.568>
DStem2: 166.996 0 304.497 0 0.242599 0.970127<84.8971 655.332>
AnchorPoint: "below" 235 0 basechar 0
AnchorPoint: "above" 458 893 basechar 0
LayerCount: 2
Fore
SplineSet
320 827 m 0
 320 856 347 891 382 891 c 0
 403 891 408 885 507 816 c 0
 519 807 527 801 527 791 c 0
 527 782 515 756 496 756 c 2
 495 756 l 2
 490 756 488 756 376 780 c 0
 358 784 320 789 320 827 c 0
EndSplineSet
Refer: 82 73 S 1 0 0 1 0 -0 3
AlternateSubs2: "Stilistic set 01 subtable" Igrave.vn
AlternateSubs2: "Latin alternatives subtable" Igrave.vn
Substitution2: "Latin Vietnamese substitutions subtable" Igrave.vn
EndChar

StartChar: Iacute
Encoding: 205 205 214
Width: 472
Flags: HW
TeX: 873 0
ItalicCorrection: 156
HStem: 0 48<59.5449 180 317 423.083> 638 48<219.432 325 462 582.568>
DStem2: 166.996 0 304.497 0 0.242599 0.970127<84.8971 655.332>
AnchorPoint: "below" 235 0 basechar 0
AnchorPoint: "above" 458 893 basechar 0
LayerCount: 2
Fore
SplineSet
314 788 m 0
 314 805 329 811 339 816 c 0
 483 890 480 891 499 891 c 0
 527 891 543 870 543 845 c 0
 543 825 534 810 522 800 c 0
 505 786 494 785 354 758 c 0
 349 757 343 756 337 756 c 0
 318 756 314 775 314 788 c 0
EndSplineSet
Refer: 82 73 S 1 0 0 1 -0 -0 3
AlternateSubs2: "Stilistic set 01 subtable" Iacute.vn
AlternateSubs2: "Latin alternatives subtable" Iacute.vn
Substitution2: "Latin Vietnamese substitutions subtable" Iacute.vn
EndChar

StartChar: Icircumflex
Encoding: 206 206 215
Width: 472
Flags: HW
TeX: 894 0
ItalicCorrection: 156
HStem: 0 48<59.5449 180 317 423.083> 638 48<219.432 325 462 582.568>
DStem2: 166.996 0 304.497 0 0.242599 0.970127<84.8971 655.332>
AnchorPoint: "below" 235 0 basechar 0
AnchorPoint: "above" 462 906 basechar 0
LayerCount: 2
Fore
SplineSet
274 772 m 0
 274 781 279 787 291 795 c 0
 448 903 447 904 457 904 c 0
 470 904 471 900 558 808 c 0
 582 783 584 779 584 772 c 0
 584 759 563 740 551 740 c 0
 540 740 530 750 494 781 c 0
 478 795 462 809 446 823 c 1
 406 801 312 740 299 740 c 0
 284 740 274 762 274 772 c 0
EndSplineSet
Refer: 82 73 S 1 0 0 1 -0 0 3
EndChar

StartChar: Idieresis
Encoding: 207 207 216
Width: 472
Flags: HW
TeX: 894 0
ItalicCorrection: 156
HStem: 0 48<59.5449 180 317 423.083> 638 48<219.432 325 462 582.568> 746 148<294.56 379.718> 747 147<501.282 586.125>
VStem: 262 151<779.341 860.907> 468 150<779.511 860.659>
DStem2: 166.996 0 304.497 0 0.242599 0.970127<84.8971 655.332>
AnchorPoint: "below" 235 0 basechar 0
AnchorPoint: "above" 459 896 basechar 0
LayerCount: 2
Fore
SplineSet
468 807 m 0
 468 851 510 894 557 894 c 0
 594 894 618 867 618 834 c 0
 618 788 575 747 530 747 c 0xdc
 493 747 468 773 468 807 c 0
EndSplineSet
Refer: 6 -1 S 1 0 0 1 -166 -12 2
Refer: 82 73 S 1 0 0 1 0 -0 3
EndChar

StartChar: Eth
Encoding: 208 208 217
Width: 875
Flags: HW
TeX: 690 0
ItalicCorrection: 90
HStem: -0 48<65.548 179.385 311 545.682> 313 47<143.577 245 389 563.662> 638 48<225.368 326 458.703 682.838>
VStem: 755 129<346.364 556.8>
DStem2: 166.996 -0 298.747 -0 0.242599 0.970127<82.4714 322.573 403.103 655.575>
LayerCount: 2
Fore
SplineSet
65 20 m 0
 65 46 86 48 94 48 c 2
 114 48 l 2
 147 48 167 49 180 52 c 1
 245 313 l 1
 170 313 l 2
 149 313 143 323 143 333 c 0
 143 339 146 359 171 360 c 1
 257 360 l 1
 326 636 l 1
 307 638 286 638 267 638 c 2
 250 638 l 2
 231 638 225 648 225 659 c 0
 225 685 246 686 254 686 c 2
 620 686 l 2
 831 686 884 559 884 447 c 0
 884 264 754 0 453 -0 c 2
 93 -0 l 2
 81 0 65 2 65 20 c 0
311 49 m 1
 324 48 336 48 349 48 c 0
 375 48 401 48 427 48 c 0
 468 48 581 50 658 154 c 0
 721 240 755 436 755 484 c 0
 755 608 668 638 572 638 c 2
 504 638 l 2
 488 638 473 639 458 637 c 1
 389 360 l 1
 536 360 l 2
 548 360 564 359 564 340 c 0
 564 314 545 313 527 313 c 2
 377 313 l 1
 311 49 l 1
EndSplineSet
EndChar

StartChar: Ntilde
Encoding: 209 209 218
Width: 896
Flags: HW
TeX: 894 0
ItalicCorrection: 172
HStem: 0 48<64.6813 183.161 244.94 342.548> 638 48<224.368 326 722.382 820.105 882.143 1000.45> 789 58<678.518 798.087> 837 57<516.257 635.095>
DStem2: 166.706 0 229.209 0 0.242599 0.970127<74.2202 616.116> 480 664 375 583 0.458562 -0.888662<23.8326 514.339> 664.236 0 726.998 0 0.242599 0.970127<213.374 648.15>
LayerCount: 2
Fore
SplineSet
444 807 m 0
 444 818 455 825 462 832 c 0
 492 859 536 894 589 894 c 0xd0
 656 894 694 847 748 847 c 0
 802 847 835 893 853 893 c 0
 862 893 870 884 870 876 c 0
 870 866 860 857 853 851 c 0
 827 828 780 789 725 789 c 0xe0
 657 789 620 837 566 837 c 0xd0
 512 837 479 790 461 790 c 0
 453 790 444 797 444 807 c 0
EndSplineSet
Refer: 87 78 S 1 0 0 1 0 -0 3
EndChar

StartChar: Ograve
Encoding: 210 210 219
Width: 855
Flags: HW
TeX: 873 0
ItalicCorrection: 90
HStem: -22 43<359.078 513.05> 667 41<511.47 669.282>
VStem: 159 137<113.588 334.823> 733 132<364.106 569.823>
AnchorPoint: "below" 427 0 basechar 0
AnchorPoint: "above" 646 871 basechar 0
LayerCount: 2
Fore
SplineSet
527 827 m 0
 527 856 554 891 589 891 c 0
 610 891 614 885 713 816 c 0
 725 807 733 801 733 791 c 0
 733 782 721 756 702 756 c 2
 701 756 l 2
 696 756 695 756 583 780 c 0
 565 784 527 789 527 827 c 0
EndSplineSet
Refer: 88 79 S 1 0 0 1 0 -0 3
AlternateSubs2: "Stilistic set 01 subtable" Ograve.vn
AlternateSubs2: "Latin alternatives subtable" Ograve.vn
Substitution2: "Latin Vietnamese substitutions subtable" Ograve.vn
EndChar

StartChar: Oacute
Encoding: 211 211 220
Width: 855
Flags: HW
TeX: 873 0
ItalicCorrection: 90
HStem: -22 43<359.078 513.05> 667 41<511.47 669.282>
VStem: 159 137<113.588 334.823> 733 132<364.106 569.823>
AnchorPoint: "below" 427 0 basechar 0
AnchorPoint: "above" 646 871 basechar 0
LayerCount: 2
Fore
SplineSet
516 788 m 0
 516 805 531 811 541 816 c 0
 685 890 682 891 701 891 c 0
 729 891 745 870 745 845 c 0
 745 825 735 810 723 800 c 0
 706 786 695 785 555 758 c 0
 550 757 544 756 538 756 c 0
 519 756 516 775 516 788 c 0
EndSplineSet
Refer: 88 79 S 1 0 0 1 0 -0 3
AlternateSubs2: "Stilistic set 01 subtable" Oacute.vn
AlternateSubs2: "Latin alternatives subtable" Oacute.vn
Substitution2: "Latin Vietnamese substitutions subtable" Oacute.vn
EndChar

StartChar: Ocircumflex
Encoding: 212 212 221
Width: 855
Flags: HW
TeX: 894 0
ItalicCorrection: 90
HStem: -22 43<359.078 513.05> 667 41<511.47 669.282>
VStem: 159 137<113.588 334.823> 733 132<364.106 569.823>
AnchorPoint: "below" 427 0 basechar 0
AnchorPoint: "above" 649 884 basechar 0
LayerCount: 2
Fore
SplineSet
465 772 m 0
 465 781 471 787 483 795 c 0
 640 903 639 904 649 904 c 0
 662 904 668 894 750 808 c 0
 774 783 775 779 775 772 c 0
 775 759 754 740 742 740 c 0
 731 740 724 748 686 781 c 2
 637 823 l 1
 600 803 504 740 490 740 c 0
 475 740 465 762 465 772 c 0
EndSplineSet
Refer: 88 79 S 1 0 0 1 -0 0 3
AlternateSubs2: "Stilistic set 01 subtable" Ocircumflex.vn
AlternateSubs2: "Latin alternatives subtable" Ocircumflex.vn
Substitution2: "Latin Vietnamese substitutions subtable" Ocircumflex.vn
EndChar

StartChar: Otilde
Encoding: 213 213 222
Width: 855
Flags: HW
TeX: 894 0
ItalicCorrection: 90
HStem: -22 43<359.078 513.05> 667 41<511.47 669.282> 789 57<658.729 778.428> 836 58<496.036 616.561>
VStem: 159 137<113.588 334.823> 733 132<364.106 569.823>
AnchorPoint: "below" 427 0 basechar 0
AnchorPoint: "above" 647 874 basechar 0
LayerCount: 2
Fore
SplineSet
424 807 m 0
 424 818 435 825 442 832 c 0
 472 859 516 894 569 894 c 0xdc
 636 894 674 846 728 846 c 0
 782 846 816 893 834 893 c 0
 843 893 850 884 850 876 c 0
 850 866 840 857 833 851 c 0
 807 828 761 789 705 789 c 0xec
 638 789 600 836 546 836 c 0xdc
 491 836 459 790 441 790 c 0
 433 790 424 797 424 807 c 0
EndSplineSet
Refer: 88 79 S 1 0 0 1 -0 0 3
AlternateSubs2: "Stilistic set 01 subtable" Otilde.vn
AlternateSubs2: "Latin alternatives subtable" Otilde.vn
Substitution2: "Latin Vietnamese substitutions subtable" Otilde.vn
EndChar

StartChar: Odieresis
Encoding: 214 214 223
Width: 855
Flags: HW
TeX: 894 0
ItalicCorrection: 90
HStem: -22 43<359.078 513.05> 667 41<511.47 669.282> 747 147<487.918 571.311> 747 148<691.56 777.44>
VStem: 159 137<113.588 334.823> 454 150<779.305 860.692> 659 151<780.093 861.907> 733 132<364.106 569.823>
AnchorPoint: "below" 427 0 basechar 0
AnchorPoint: "above" 647 875 basechar 0
LayerCount: 2
Fore
SplineSet
454 807 m 0
 454 855 501 894 543 894 c 0
 580 894 604 867 604 833 c 0
 604 789 563 747 516 747 c 0xec
 479 747 454 773 454 807 c 0
EndSplineSet
Refer: 20 729 S 1 0 0 1 388 200 2
Refer: 88 79 S 1 0 0 1 -0 -0 3
EndChar

StartChar: OE
Encoding: 338 338 224
Width: 1140
Flags: HW
TeX: 690 0
ItalicCorrection: 114
HStem: -22 36<397.779 545.536> 0 48<712 945.594> 332 48<796 941.545> 638 48<859 1084.27> 672 36<554.012 700.941>
VStem: 179 137<119.359 352.865> 1111 78<475.019 611.753>
DStem2: 573.234 -22 694.245 -22 0.242599 0.970127<106.16 394.314 444.034 640.66>
AnchorPoint: "above" 816 708 basechar 0
LayerCount: 2
Fore
SplineSet
179 231 m 0
 179 443 348 708 636 708 c 0xae
 709 708 733 686 831 686 c 2
 1160 686 l 2
 1175 686 1189 684 1189 663 c 0
 1189 656 1174 538 1167 475 c 0
 1165 455 1162 444 1138 444 c 2
 1137 444 l 2
 1116 444 1111 452 1111 468 c 0
 1111 483 1115 505 1115 535 c 0
 1115 623 1069 638 973 638 c 2
 908 638 l 2
 892 638 875 639 859 637 c 1
 796 380 l 1
 859 380 l 1
 889 381 928 379 955 398 c 0
 1010 437 982 497 1029 497 c 0
 1042 497 1055 492 1055 476 c 0
 1055 471 1056 474 997 238 c 0
 992 221 985 216 968 216 c 0
 946 216 941 222 941 234 c 0
 941 247 948 265 948 287 c 0
 948 331 910 332 857 332 c 2
 783 332 l 1
 712 49 l 1
 725 48 738 48 751 48 c 2x76
 815 48 l 2
 971 48 1014 94 1080 242 c 0
 1089 262 1090 275 1115 275 c 0
 1135 275 1142 268 1142 257 c 0
 1142 252 1141 245 1138 239 c 0
 1037 1 1042 8 1031 3 c 0
 1024 0 1015 0 1007 0 c 2
 656 0 l 2x76
 563 0 526 -22 454 -22 c 0
 338 -22 179 29 179 231 c 0
316 209 m 0
 317 58 397 14 468 14 c 0
 565 14 593 57 630 205 c 2
 695 465 l 2
 715 547 720 575 720 603 c 0xae
 720 644 704 672 632 672 c 0
 516 672 390 571 336 352 c 0
 325 305 316 262 316 209 c 0
EndSplineSet
EndChar

StartChar: Oslash
Encoding: 216 216 225
Width: 885
Flags: HW
TeX: 742 48
ItalicCorrection: 90
HStem: -22 36<364.135 536.579> 672 36<522.899 689.777>
VStem: 159 124<117.33 319.319> 771 123<363.879 567.349>
DStem2: 235 43 196 -61 0.66324 0.748407<-114.578 0 87.8628 747.765 835.628 951.839>
LayerCount: 2
Fore
SplineSet
159 230 m 0
 159 429 314 707 617 708 c 1
 618 708 l 2
 676 708 736 698 786 667 c 1
 787 667 l 1
 854 743 860 752 872 752 c 0
 884 752 892 741 892 733 c 0
 892 724 893 725 819 642 c 1
 843 621 894 566 894 452 c 0
 894 325 833 169 716 75 c 0
 636 11 535 -22 435 -22 c 0
 357 -22 311 -4 267 19 c 1
 254 2 204 -54 196 -61 c 0
 193 -64 188 -67 183 -67 c 0
 175 -67 163 -58 163 -47 c 0
 163 -32 181 -23 235 43 c 1
 190 82 159 142 159 230 c 0
283 178 m 0
 283 164 283 142 293 109 c 1
 740 614 l 1
 740 615 l 1
 723 634 688 672 610 672 c 0
 585 672 486 668 408 573 c 0
 318 463 283 221 283 178 c 0
314 71 m 1
 343 31 396 14 446 14 c 0
 523 14 639 53 702 205 c 0
 725 260 771 426 771 504 c 0
 771 540 765 562 761 576 c 1
 314 71 l 1
EndSplineSet
EndChar

StartChar: Ucircumflex
Encoding: 219 219 228
Width: 881
Flags: HW
TeX: 894 0
ItalicCorrection: 172
HStem: -22 48<382.065 562.402> 638 48<223.539 325 458.116 576.438 706.539 805.059 866.8 984.463>
VStem: 216 128<79.7187 248.643>
DStem2: 160.481 -22 298.478 -22 0.242599 0.970127<201.276 678.256> 643.481 -22 706.731 -22 0.242599 0.970127<151.467 670.618>
AnchorPoint: "below" 459 0 basechar 0
AnchorPoint: "above" 665 906 basechar 0
LayerCount: 2
Fore
SplineSet
496 772 m 0
 496 781 501 787 513 795 c 0
 670 903 669 904 679 904 c 2
 680 904 l 2
 689 904 689 904 780 808 c 0
 804 783 806 779 806 772 c 0
 806 761 787 740 772 740 c 0
 762 740 710 784 668 823 c 1
 625 800 535 740 521 740 c 0
 506 740 496 763 496 772 c 0
EndSplineSet
Refer: 94 85 S 1 0 0 1 -0 -0 3
EndChar

StartChar: Thorn
Encoding: 222 222 231
Width: 728
Flags: HW
TeX: 690 0
ItalicCorrection: 99
HStem: 0 48<65.4881 180 306 406.538> 178 48<350 511.487> 517 48<434 578.21> 638 48<224.432 326 457.384 566.688>
VStem: 600 137<333.108 497.125>
DStem2: 166.996 0 293.497 0 0.242599 0.970127<82.2285 213.925 263.645 563.419 612.896 655.312>
LayerCount: 2
Fore
SplineSet
65 20 m 0
 65 33 70 48 93 48 c 2
 111 48 l 2
 146 48 167 49 180 52 c 1
 326 636 l 1
 307 638 286 638 267 638 c 2
 250 638 l 2
 231 638 224 648 224 659 c 0
 224 665 226 686 252 686 c 0
 257 686 263 685 269 685 c 0
 337 683 338 683 383 683 c 2
 409 683 l 1
 515 684 528 686 541 686 c 0
 555 686 567 682 567 666 c 0
 567 638 550 638 514 638 c 2
 505 638 l 2
 485 638 465 638 457 634 c 0
 451 631 450 630 434 565 c 1
 560 565 l 2
 636 565 737 536 737 422 c 0
 737 326 664 207 517 183 c 0
 491 179 464 178 438 178 c 2
 337 178 l 1
 306 50 l 1
 325 48 345 48 364 48 c 2
 383 48 l 2
 401 48 407 38 407 27 c 0
 407 21 405 0 380 0 c 0
 364 0 347 3 216 3 c 0
 153 3 116 0 96 0 c 0
 79 0 65 1 65 20 c 0
350 226 m 1
 434 226 l 2
 566 226 600 374 600 432 c 0
 600 515 544 517 524 517 c 2
 422 517 l 1
 350 226 l 1
EndSplineSet
EndChar

